G04 #@! TF.GenerationSoftware,KiCad,Pcbnew,(5.1.4)-1*
G04 #@! TF.CreationDate,2020-11-06T15:37:27+01:00*
G04 #@! TF.ProjectId,usb_to_gpib,7573625f-746f-45f6-9770-69622e6b6963,RevB*
G04 #@! TF.SameCoordinates,Original*
G04 #@! TF.FileFunction,Paste,Top*
G04 #@! TF.FilePolarity,Positive*
%FSLAX46Y46*%
G04 Gerber Fmt 4.6, Leading zero omitted, Abs format (unit mm)*
G04 Created by KiCad (PCBNEW (5.1.4)-1) date 2020-11-06 15:37:27*
%MOMM*%
%LPD*%
G04 APERTURE LIST*
%ADD10O,0.300000X1.000000*%
%ADD11O,1.000000X0.300000*%
%ADD12R,2.000000X2.000000*%
%ADD13C,0.150000*%
%ADD14C,0.600000*%
%ADD15R,1.524000X0.406400*%
%ADD16R,0.406400X1.524000*%
%ADD17C,0.635000*%
%ADD18R,0.635000X1.143000*%
%ADD19C,0.875000*%
%ADD20R,2.000000X5.500000*%
%ADD21C,0.975000*%
%ADD22R,0.400000X0.500000*%
%ADD23R,0.600000X0.600000*%
%ADD24R,0.558000X1.873999*%
G04 APERTURE END LIST*
D10*
X72525000Y-145900000D03*
X73175000Y-145900000D03*
X73825000Y-145900000D03*
X74475000Y-145900000D03*
D11*
X75300000Y-145075000D03*
X75300000Y-144425000D03*
X75300000Y-143775000D03*
X75300000Y-143125000D03*
D10*
X74475000Y-142300000D03*
X73825000Y-142300000D03*
X73175000Y-142300000D03*
X72525000Y-142300000D03*
D11*
X71700000Y-143125000D03*
X71700000Y-143775000D03*
X71700000Y-144425000D03*
X71700000Y-145075000D03*
D12*
X73500000Y-144100000D03*
D13*
G36*
X86379703Y-105625722D02*
G01*
X86394264Y-105627882D01*
X86408543Y-105631459D01*
X86422403Y-105636418D01*
X86435710Y-105642712D01*
X86448336Y-105650280D01*
X86460159Y-105659048D01*
X86471066Y-105668934D01*
X86480952Y-105679841D01*
X86489720Y-105691664D01*
X86497288Y-105704290D01*
X86503582Y-105717597D01*
X86508541Y-105731457D01*
X86512118Y-105745736D01*
X86514278Y-105760297D01*
X86515000Y-105775000D01*
X86515000Y-107525000D01*
X86514278Y-107539703D01*
X86512118Y-107554264D01*
X86508541Y-107568543D01*
X86503582Y-107582403D01*
X86497288Y-107595710D01*
X86489720Y-107608336D01*
X86480952Y-107620159D01*
X86471066Y-107631066D01*
X86460159Y-107640952D01*
X86448336Y-107649720D01*
X86435710Y-107657288D01*
X86422403Y-107663582D01*
X86408543Y-107668541D01*
X86394264Y-107672118D01*
X86379703Y-107674278D01*
X86365000Y-107675000D01*
X86065000Y-107675000D01*
X86050297Y-107674278D01*
X86035736Y-107672118D01*
X86021457Y-107668541D01*
X86007597Y-107663582D01*
X85994290Y-107657288D01*
X85981664Y-107649720D01*
X85969841Y-107640952D01*
X85958934Y-107631066D01*
X85949048Y-107620159D01*
X85940280Y-107608336D01*
X85932712Y-107595710D01*
X85926418Y-107582403D01*
X85921459Y-107568543D01*
X85917882Y-107554264D01*
X85915722Y-107539703D01*
X85915000Y-107525000D01*
X85915000Y-105775000D01*
X85915722Y-105760297D01*
X85917882Y-105745736D01*
X85921459Y-105731457D01*
X85926418Y-105717597D01*
X85932712Y-105704290D01*
X85940280Y-105691664D01*
X85949048Y-105679841D01*
X85958934Y-105668934D01*
X85969841Y-105659048D01*
X85981664Y-105650280D01*
X85994290Y-105642712D01*
X86007597Y-105636418D01*
X86021457Y-105631459D01*
X86035736Y-105627882D01*
X86050297Y-105625722D01*
X86065000Y-105625000D01*
X86365000Y-105625000D01*
X86379703Y-105625722D01*
X86379703Y-105625722D01*
G37*
D14*
X86215000Y-106650000D03*
D13*
G36*
X85109703Y-105625722D02*
G01*
X85124264Y-105627882D01*
X85138543Y-105631459D01*
X85152403Y-105636418D01*
X85165710Y-105642712D01*
X85178336Y-105650280D01*
X85190159Y-105659048D01*
X85201066Y-105668934D01*
X85210952Y-105679841D01*
X85219720Y-105691664D01*
X85227288Y-105704290D01*
X85233582Y-105717597D01*
X85238541Y-105731457D01*
X85242118Y-105745736D01*
X85244278Y-105760297D01*
X85245000Y-105775000D01*
X85245000Y-107525000D01*
X85244278Y-107539703D01*
X85242118Y-107554264D01*
X85238541Y-107568543D01*
X85233582Y-107582403D01*
X85227288Y-107595710D01*
X85219720Y-107608336D01*
X85210952Y-107620159D01*
X85201066Y-107631066D01*
X85190159Y-107640952D01*
X85178336Y-107649720D01*
X85165710Y-107657288D01*
X85152403Y-107663582D01*
X85138543Y-107668541D01*
X85124264Y-107672118D01*
X85109703Y-107674278D01*
X85095000Y-107675000D01*
X84795000Y-107675000D01*
X84780297Y-107674278D01*
X84765736Y-107672118D01*
X84751457Y-107668541D01*
X84737597Y-107663582D01*
X84724290Y-107657288D01*
X84711664Y-107649720D01*
X84699841Y-107640952D01*
X84688934Y-107631066D01*
X84679048Y-107620159D01*
X84670280Y-107608336D01*
X84662712Y-107595710D01*
X84656418Y-107582403D01*
X84651459Y-107568543D01*
X84647882Y-107554264D01*
X84645722Y-107539703D01*
X84645000Y-107525000D01*
X84645000Y-105775000D01*
X84645722Y-105760297D01*
X84647882Y-105745736D01*
X84651459Y-105731457D01*
X84656418Y-105717597D01*
X84662712Y-105704290D01*
X84670280Y-105691664D01*
X84679048Y-105679841D01*
X84688934Y-105668934D01*
X84699841Y-105659048D01*
X84711664Y-105650280D01*
X84724290Y-105642712D01*
X84737597Y-105636418D01*
X84751457Y-105631459D01*
X84765736Y-105627882D01*
X84780297Y-105625722D01*
X84795000Y-105625000D01*
X85095000Y-105625000D01*
X85109703Y-105625722D01*
X85109703Y-105625722D01*
G37*
D14*
X84945000Y-106650000D03*
D13*
G36*
X83839703Y-105625722D02*
G01*
X83854264Y-105627882D01*
X83868543Y-105631459D01*
X83882403Y-105636418D01*
X83895710Y-105642712D01*
X83908336Y-105650280D01*
X83920159Y-105659048D01*
X83931066Y-105668934D01*
X83940952Y-105679841D01*
X83949720Y-105691664D01*
X83957288Y-105704290D01*
X83963582Y-105717597D01*
X83968541Y-105731457D01*
X83972118Y-105745736D01*
X83974278Y-105760297D01*
X83975000Y-105775000D01*
X83975000Y-107525000D01*
X83974278Y-107539703D01*
X83972118Y-107554264D01*
X83968541Y-107568543D01*
X83963582Y-107582403D01*
X83957288Y-107595710D01*
X83949720Y-107608336D01*
X83940952Y-107620159D01*
X83931066Y-107631066D01*
X83920159Y-107640952D01*
X83908336Y-107649720D01*
X83895710Y-107657288D01*
X83882403Y-107663582D01*
X83868543Y-107668541D01*
X83854264Y-107672118D01*
X83839703Y-107674278D01*
X83825000Y-107675000D01*
X83525000Y-107675000D01*
X83510297Y-107674278D01*
X83495736Y-107672118D01*
X83481457Y-107668541D01*
X83467597Y-107663582D01*
X83454290Y-107657288D01*
X83441664Y-107649720D01*
X83429841Y-107640952D01*
X83418934Y-107631066D01*
X83409048Y-107620159D01*
X83400280Y-107608336D01*
X83392712Y-107595710D01*
X83386418Y-107582403D01*
X83381459Y-107568543D01*
X83377882Y-107554264D01*
X83375722Y-107539703D01*
X83375000Y-107525000D01*
X83375000Y-105775000D01*
X83375722Y-105760297D01*
X83377882Y-105745736D01*
X83381459Y-105731457D01*
X83386418Y-105717597D01*
X83392712Y-105704290D01*
X83400280Y-105691664D01*
X83409048Y-105679841D01*
X83418934Y-105668934D01*
X83429841Y-105659048D01*
X83441664Y-105650280D01*
X83454290Y-105642712D01*
X83467597Y-105636418D01*
X83481457Y-105631459D01*
X83495736Y-105627882D01*
X83510297Y-105625722D01*
X83525000Y-105625000D01*
X83825000Y-105625000D01*
X83839703Y-105625722D01*
X83839703Y-105625722D01*
G37*
D14*
X83675000Y-106650000D03*
D13*
G36*
X82569703Y-105625722D02*
G01*
X82584264Y-105627882D01*
X82598543Y-105631459D01*
X82612403Y-105636418D01*
X82625710Y-105642712D01*
X82638336Y-105650280D01*
X82650159Y-105659048D01*
X82661066Y-105668934D01*
X82670952Y-105679841D01*
X82679720Y-105691664D01*
X82687288Y-105704290D01*
X82693582Y-105717597D01*
X82698541Y-105731457D01*
X82702118Y-105745736D01*
X82704278Y-105760297D01*
X82705000Y-105775000D01*
X82705000Y-107525000D01*
X82704278Y-107539703D01*
X82702118Y-107554264D01*
X82698541Y-107568543D01*
X82693582Y-107582403D01*
X82687288Y-107595710D01*
X82679720Y-107608336D01*
X82670952Y-107620159D01*
X82661066Y-107631066D01*
X82650159Y-107640952D01*
X82638336Y-107649720D01*
X82625710Y-107657288D01*
X82612403Y-107663582D01*
X82598543Y-107668541D01*
X82584264Y-107672118D01*
X82569703Y-107674278D01*
X82555000Y-107675000D01*
X82255000Y-107675000D01*
X82240297Y-107674278D01*
X82225736Y-107672118D01*
X82211457Y-107668541D01*
X82197597Y-107663582D01*
X82184290Y-107657288D01*
X82171664Y-107649720D01*
X82159841Y-107640952D01*
X82148934Y-107631066D01*
X82139048Y-107620159D01*
X82130280Y-107608336D01*
X82122712Y-107595710D01*
X82116418Y-107582403D01*
X82111459Y-107568543D01*
X82107882Y-107554264D01*
X82105722Y-107539703D01*
X82105000Y-107525000D01*
X82105000Y-105775000D01*
X82105722Y-105760297D01*
X82107882Y-105745736D01*
X82111459Y-105731457D01*
X82116418Y-105717597D01*
X82122712Y-105704290D01*
X82130280Y-105691664D01*
X82139048Y-105679841D01*
X82148934Y-105668934D01*
X82159841Y-105659048D01*
X82171664Y-105650280D01*
X82184290Y-105642712D01*
X82197597Y-105636418D01*
X82211457Y-105631459D01*
X82225736Y-105627882D01*
X82240297Y-105625722D01*
X82255000Y-105625000D01*
X82555000Y-105625000D01*
X82569703Y-105625722D01*
X82569703Y-105625722D01*
G37*
D14*
X82405000Y-106650000D03*
D13*
G36*
X81299703Y-105625722D02*
G01*
X81314264Y-105627882D01*
X81328543Y-105631459D01*
X81342403Y-105636418D01*
X81355710Y-105642712D01*
X81368336Y-105650280D01*
X81380159Y-105659048D01*
X81391066Y-105668934D01*
X81400952Y-105679841D01*
X81409720Y-105691664D01*
X81417288Y-105704290D01*
X81423582Y-105717597D01*
X81428541Y-105731457D01*
X81432118Y-105745736D01*
X81434278Y-105760297D01*
X81435000Y-105775000D01*
X81435000Y-107525000D01*
X81434278Y-107539703D01*
X81432118Y-107554264D01*
X81428541Y-107568543D01*
X81423582Y-107582403D01*
X81417288Y-107595710D01*
X81409720Y-107608336D01*
X81400952Y-107620159D01*
X81391066Y-107631066D01*
X81380159Y-107640952D01*
X81368336Y-107649720D01*
X81355710Y-107657288D01*
X81342403Y-107663582D01*
X81328543Y-107668541D01*
X81314264Y-107672118D01*
X81299703Y-107674278D01*
X81285000Y-107675000D01*
X80985000Y-107675000D01*
X80970297Y-107674278D01*
X80955736Y-107672118D01*
X80941457Y-107668541D01*
X80927597Y-107663582D01*
X80914290Y-107657288D01*
X80901664Y-107649720D01*
X80889841Y-107640952D01*
X80878934Y-107631066D01*
X80869048Y-107620159D01*
X80860280Y-107608336D01*
X80852712Y-107595710D01*
X80846418Y-107582403D01*
X80841459Y-107568543D01*
X80837882Y-107554264D01*
X80835722Y-107539703D01*
X80835000Y-107525000D01*
X80835000Y-105775000D01*
X80835722Y-105760297D01*
X80837882Y-105745736D01*
X80841459Y-105731457D01*
X80846418Y-105717597D01*
X80852712Y-105704290D01*
X80860280Y-105691664D01*
X80869048Y-105679841D01*
X80878934Y-105668934D01*
X80889841Y-105659048D01*
X80901664Y-105650280D01*
X80914290Y-105642712D01*
X80927597Y-105636418D01*
X80941457Y-105631459D01*
X80955736Y-105627882D01*
X80970297Y-105625722D01*
X80985000Y-105625000D01*
X81285000Y-105625000D01*
X81299703Y-105625722D01*
X81299703Y-105625722D01*
G37*
D14*
X81135000Y-106650000D03*
D13*
G36*
X80029703Y-105625722D02*
G01*
X80044264Y-105627882D01*
X80058543Y-105631459D01*
X80072403Y-105636418D01*
X80085710Y-105642712D01*
X80098336Y-105650280D01*
X80110159Y-105659048D01*
X80121066Y-105668934D01*
X80130952Y-105679841D01*
X80139720Y-105691664D01*
X80147288Y-105704290D01*
X80153582Y-105717597D01*
X80158541Y-105731457D01*
X80162118Y-105745736D01*
X80164278Y-105760297D01*
X80165000Y-105775000D01*
X80165000Y-107525000D01*
X80164278Y-107539703D01*
X80162118Y-107554264D01*
X80158541Y-107568543D01*
X80153582Y-107582403D01*
X80147288Y-107595710D01*
X80139720Y-107608336D01*
X80130952Y-107620159D01*
X80121066Y-107631066D01*
X80110159Y-107640952D01*
X80098336Y-107649720D01*
X80085710Y-107657288D01*
X80072403Y-107663582D01*
X80058543Y-107668541D01*
X80044264Y-107672118D01*
X80029703Y-107674278D01*
X80015000Y-107675000D01*
X79715000Y-107675000D01*
X79700297Y-107674278D01*
X79685736Y-107672118D01*
X79671457Y-107668541D01*
X79657597Y-107663582D01*
X79644290Y-107657288D01*
X79631664Y-107649720D01*
X79619841Y-107640952D01*
X79608934Y-107631066D01*
X79599048Y-107620159D01*
X79590280Y-107608336D01*
X79582712Y-107595710D01*
X79576418Y-107582403D01*
X79571459Y-107568543D01*
X79567882Y-107554264D01*
X79565722Y-107539703D01*
X79565000Y-107525000D01*
X79565000Y-105775000D01*
X79565722Y-105760297D01*
X79567882Y-105745736D01*
X79571459Y-105731457D01*
X79576418Y-105717597D01*
X79582712Y-105704290D01*
X79590280Y-105691664D01*
X79599048Y-105679841D01*
X79608934Y-105668934D01*
X79619841Y-105659048D01*
X79631664Y-105650280D01*
X79644290Y-105642712D01*
X79657597Y-105636418D01*
X79671457Y-105631459D01*
X79685736Y-105627882D01*
X79700297Y-105625722D01*
X79715000Y-105625000D01*
X80015000Y-105625000D01*
X80029703Y-105625722D01*
X80029703Y-105625722D01*
G37*
D14*
X79865000Y-106650000D03*
D13*
G36*
X78759703Y-105625722D02*
G01*
X78774264Y-105627882D01*
X78788543Y-105631459D01*
X78802403Y-105636418D01*
X78815710Y-105642712D01*
X78828336Y-105650280D01*
X78840159Y-105659048D01*
X78851066Y-105668934D01*
X78860952Y-105679841D01*
X78869720Y-105691664D01*
X78877288Y-105704290D01*
X78883582Y-105717597D01*
X78888541Y-105731457D01*
X78892118Y-105745736D01*
X78894278Y-105760297D01*
X78895000Y-105775000D01*
X78895000Y-107525000D01*
X78894278Y-107539703D01*
X78892118Y-107554264D01*
X78888541Y-107568543D01*
X78883582Y-107582403D01*
X78877288Y-107595710D01*
X78869720Y-107608336D01*
X78860952Y-107620159D01*
X78851066Y-107631066D01*
X78840159Y-107640952D01*
X78828336Y-107649720D01*
X78815710Y-107657288D01*
X78802403Y-107663582D01*
X78788543Y-107668541D01*
X78774264Y-107672118D01*
X78759703Y-107674278D01*
X78745000Y-107675000D01*
X78445000Y-107675000D01*
X78430297Y-107674278D01*
X78415736Y-107672118D01*
X78401457Y-107668541D01*
X78387597Y-107663582D01*
X78374290Y-107657288D01*
X78361664Y-107649720D01*
X78349841Y-107640952D01*
X78338934Y-107631066D01*
X78329048Y-107620159D01*
X78320280Y-107608336D01*
X78312712Y-107595710D01*
X78306418Y-107582403D01*
X78301459Y-107568543D01*
X78297882Y-107554264D01*
X78295722Y-107539703D01*
X78295000Y-107525000D01*
X78295000Y-105775000D01*
X78295722Y-105760297D01*
X78297882Y-105745736D01*
X78301459Y-105731457D01*
X78306418Y-105717597D01*
X78312712Y-105704290D01*
X78320280Y-105691664D01*
X78329048Y-105679841D01*
X78338934Y-105668934D01*
X78349841Y-105659048D01*
X78361664Y-105650280D01*
X78374290Y-105642712D01*
X78387597Y-105636418D01*
X78401457Y-105631459D01*
X78415736Y-105627882D01*
X78430297Y-105625722D01*
X78445000Y-105625000D01*
X78745000Y-105625000D01*
X78759703Y-105625722D01*
X78759703Y-105625722D01*
G37*
D14*
X78595000Y-106650000D03*
D13*
G36*
X77489703Y-105625722D02*
G01*
X77504264Y-105627882D01*
X77518543Y-105631459D01*
X77532403Y-105636418D01*
X77545710Y-105642712D01*
X77558336Y-105650280D01*
X77570159Y-105659048D01*
X77581066Y-105668934D01*
X77590952Y-105679841D01*
X77599720Y-105691664D01*
X77607288Y-105704290D01*
X77613582Y-105717597D01*
X77618541Y-105731457D01*
X77622118Y-105745736D01*
X77624278Y-105760297D01*
X77625000Y-105775000D01*
X77625000Y-107525000D01*
X77624278Y-107539703D01*
X77622118Y-107554264D01*
X77618541Y-107568543D01*
X77613582Y-107582403D01*
X77607288Y-107595710D01*
X77599720Y-107608336D01*
X77590952Y-107620159D01*
X77581066Y-107631066D01*
X77570159Y-107640952D01*
X77558336Y-107649720D01*
X77545710Y-107657288D01*
X77532403Y-107663582D01*
X77518543Y-107668541D01*
X77504264Y-107672118D01*
X77489703Y-107674278D01*
X77475000Y-107675000D01*
X77175000Y-107675000D01*
X77160297Y-107674278D01*
X77145736Y-107672118D01*
X77131457Y-107668541D01*
X77117597Y-107663582D01*
X77104290Y-107657288D01*
X77091664Y-107649720D01*
X77079841Y-107640952D01*
X77068934Y-107631066D01*
X77059048Y-107620159D01*
X77050280Y-107608336D01*
X77042712Y-107595710D01*
X77036418Y-107582403D01*
X77031459Y-107568543D01*
X77027882Y-107554264D01*
X77025722Y-107539703D01*
X77025000Y-107525000D01*
X77025000Y-105775000D01*
X77025722Y-105760297D01*
X77027882Y-105745736D01*
X77031459Y-105731457D01*
X77036418Y-105717597D01*
X77042712Y-105704290D01*
X77050280Y-105691664D01*
X77059048Y-105679841D01*
X77068934Y-105668934D01*
X77079841Y-105659048D01*
X77091664Y-105650280D01*
X77104290Y-105642712D01*
X77117597Y-105636418D01*
X77131457Y-105631459D01*
X77145736Y-105627882D01*
X77160297Y-105625722D01*
X77175000Y-105625000D01*
X77475000Y-105625000D01*
X77489703Y-105625722D01*
X77489703Y-105625722D01*
G37*
D14*
X77325000Y-106650000D03*
D13*
G36*
X76219703Y-105625722D02*
G01*
X76234264Y-105627882D01*
X76248543Y-105631459D01*
X76262403Y-105636418D01*
X76275710Y-105642712D01*
X76288336Y-105650280D01*
X76300159Y-105659048D01*
X76311066Y-105668934D01*
X76320952Y-105679841D01*
X76329720Y-105691664D01*
X76337288Y-105704290D01*
X76343582Y-105717597D01*
X76348541Y-105731457D01*
X76352118Y-105745736D01*
X76354278Y-105760297D01*
X76355000Y-105775000D01*
X76355000Y-107525000D01*
X76354278Y-107539703D01*
X76352118Y-107554264D01*
X76348541Y-107568543D01*
X76343582Y-107582403D01*
X76337288Y-107595710D01*
X76329720Y-107608336D01*
X76320952Y-107620159D01*
X76311066Y-107631066D01*
X76300159Y-107640952D01*
X76288336Y-107649720D01*
X76275710Y-107657288D01*
X76262403Y-107663582D01*
X76248543Y-107668541D01*
X76234264Y-107672118D01*
X76219703Y-107674278D01*
X76205000Y-107675000D01*
X75905000Y-107675000D01*
X75890297Y-107674278D01*
X75875736Y-107672118D01*
X75861457Y-107668541D01*
X75847597Y-107663582D01*
X75834290Y-107657288D01*
X75821664Y-107649720D01*
X75809841Y-107640952D01*
X75798934Y-107631066D01*
X75789048Y-107620159D01*
X75780280Y-107608336D01*
X75772712Y-107595710D01*
X75766418Y-107582403D01*
X75761459Y-107568543D01*
X75757882Y-107554264D01*
X75755722Y-107539703D01*
X75755000Y-107525000D01*
X75755000Y-105775000D01*
X75755722Y-105760297D01*
X75757882Y-105745736D01*
X75761459Y-105731457D01*
X75766418Y-105717597D01*
X75772712Y-105704290D01*
X75780280Y-105691664D01*
X75789048Y-105679841D01*
X75798934Y-105668934D01*
X75809841Y-105659048D01*
X75821664Y-105650280D01*
X75834290Y-105642712D01*
X75847597Y-105636418D01*
X75861457Y-105631459D01*
X75875736Y-105627882D01*
X75890297Y-105625722D01*
X75905000Y-105625000D01*
X76205000Y-105625000D01*
X76219703Y-105625722D01*
X76219703Y-105625722D01*
G37*
D14*
X76055000Y-106650000D03*
D13*
G36*
X74949703Y-105625722D02*
G01*
X74964264Y-105627882D01*
X74978543Y-105631459D01*
X74992403Y-105636418D01*
X75005710Y-105642712D01*
X75018336Y-105650280D01*
X75030159Y-105659048D01*
X75041066Y-105668934D01*
X75050952Y-105679841D01*
X75059720Y-105691664D01*
X75067288Y-105704290D01*
X75073582Y-105717597D01*
X75078541Y-105731457D01*
X75082118Y-105745736D01*
X75084278Y-105760297D01*
X75085000Y-105775000D01*
X75085000Y-107525000D01*
X75084278Y-107539703D01*
X75082118Y-107554264D01*
X75078541Y-107568543D01*
X75073582Y-107582403D01*
X75067288Y-107595710D01*
X75059720Y-107608336D01*
X75050952Y-107620159D01*
X75041066Y-107631066D01*
X75030159Y-107640952D01*
X75018336Y-107649720D01*
X75005710Y-107657288D01*
X74992403Y-107663582D01*
X74978543Y-107668541D01*
X74964264Y-107672118D01*
X74949703Y-107674278D01*
X74935000Y-107675000D01*
X74635000Y-107675000D01*
X74620297Y-107674278D01*
X74605736Y-107672118D01*
X74591457Y-107668541D01*
X74577597Y-107663582D01*
X74564290Y-107657288D01*
X74551664Y-107649720D01*
X74539841Y-107640952D01*
X74528934Y-107631066D01*
X74519048Y-107620159D01*
X74510280Y-107608336D01*
X74502712Y-107595710D01*
X74496418Y-107582403D01*
X74491459Y-107568543D01*
X74487882Y-107554264D01*
X74485722Y-107539703D01*
X74485000Y-107525000D01*
X74485000Y-105775000D01*
X74485722Y-105760297D01*
X74487882Y-105745736D01*
X74491459Y-105731457D01*
X74496418Y-105717597D01*
X74502712Y-105704290D01*
X74510280Y-105691664D01*
X74519048Y-105679841D01*
X74528934Y-105668934D01*
X74539841Y-105659048D01*
X74551664Y-105650280D01*
X74564290Y-105642712D01*
X74577597Y-105636418D01*
X74591457Y-105631459D01*
X74605736Y-105627882D01*
X74620297Y-105625722D01*
X74635000Y-105625000D01*
X74935000Y-105625000D01*
X74949703Y-105625722D01*
X74949703Y-105625722D01*
G37*
D14*
X74785000Y-106650000D03*
D13*
G36*
X74949703Y-114925722D02*
G01*
X74964264Y-114927882D01*
X74978543Y-114931459D01*
X74992403Y-114936418D01*
X75005710Y-114942712D01*
X75018336Y-114950280D01*
X75030159Y-114959048D01*
X75041066Y-114968934D01*
X75050952Y-114979841D01*
X75059720Y-114991664D01*
X75067288Y-115004290D01*
X75073582Y-115017597D01*
X75078541Y-115031457D01*
X75082118Y-115045736D01*
X75084278Y-115060297D01*
X75085000Y-115075000D01*
X75085000Y-116825000D01*
X75084278Y-116839703D01*
X75082118Y-116854264D01*
X75078541Y-116868543D01*
X75073582Y-116882403D01*
X75067288Y-116895710D01*
X75059720Y-116908336D01*
X75050952Y-116920159D01*
X75041066Y-116931066D01*
X75030159Y-116940952D01*
X75018336Y-116949720D01*
X75005710Y-116957288D01*
X74992403Y-116963582D01*
X74978543Y-116968541D01*
X74964264Y-116972118D01*
X74949703Y-116974278D01*
X74935000Y-116975000D01*
X74635000Y-116975000D01*
X74620297Y-116974278D01*
X74605736Y-116972118D01*
X74591457Y-116968541D01*
X74577597Y-116963582D01*
X74564290Y-116957288D01*
X74551664Y-116949720D01*
X74539841Y-116940952D01*
X74528934Y-116931066D01*
X74519048Y-116920159D01*
X74510280Y-116908336D01*
X74502712Y-116895710D01*
X74496418Y-116882403D01*
X74491459Y-116868543D01*
X74487882Y-116854264D01*
X74485722Y-116839703D01*
X74485000Y-116825000D01*
X74485000Y-115075000D01*
X74485722Y-115060297D01*
X74487882Y-115045736D01*
X74491459Y-115031457D01*
X74496418Y-115017597D01*
X74502712Y-115004290D01*
X74510280Y-114991664D01*
X74519048Y-114979841D01*
X74528934Y-114968934D01*
X74539841Y-114959048D01*
X74551664Y-114950280D01*
X74564290Y-114942712D01*
X74577597Y-114936418D01*
X74591457Y-114931459D01*
X74605736Y-114927882D01*
X74620297Y-114925722D01*
X74635000Y-114925000D01*
X74935000Y-114925000D01*
X74949703Y-114925722D01*
X74949703Y-114925722D01*
G37*
D14*
X74785000Y-115950000D03*
D13*
G36*
X76219703Y-114925722D02*
G01*
X76234264Y-114927882D01*
X76248543Y-114931459D01*
X76262403Y-114936418D01*
X76275710Y-114942712D01*
X76288336Y-114950280D01*
X76300159Y-114959048D01*
X76311066Y-114968934D01*
X76320952Y-114979841D01*
X76329720Y-114991664D01*
X76337288Y-115004290D01*
X76343582Y-115017597D01*
X76348541Y-115031457D01*
X76352118Y-115045736D01*
X76354278Y-115060297D01*
X76355000Y-115075000D01*
X76355000Y-116825000D01*
X76354278Y-116839703D01*
X76352118Y-116854264D01*
X76348541Y-116868543D01*
X76343582Y-116882403D01*
X76337288Y-116895710D01*
X76329720Y-116908336D01*
X76320952Y-116920159D01*
X76311066Y-116931066D01*
X76300159Y-116940952D01*
X76288336Y-116949720D01*
X76275710Y-116957288D01*
X76262403Y-116963582D01*
X76248543Y-116968541D01*
X76234264Y-116972118D01*
X76219703Y-116974278D01*
X76205000Y-116975000D01*
X75905000Y-116975000D01*
X75890297Y-116974278D01*
X75875736Y-116972118D01*
X75861457Y-116968541D01*
X75847597Y-116963582D01*
X75834290Y-116957288D01*
X75821664Y-116949720D01*
X75809841Y-116940952D01*
X75798934Y-116931066D01*
X75789048Y-116920159D01*
X75780280Y-116908336D01*
X75772712Y-116895710D01*
X75766418Y-116882403D01*
X75761459Y-116868543D01*
X75757882Y-116854264D01*
X75755722Y-116839703D01*
X75755000Y-116825000D01*
X75755000Y-115075000D01*
X75755722Y-115060297D01*
X75757882Y-115045736D01*
X75761459Y-115031457D01*
X75766418Y-115017597D01*
X75772712Y-115004290D01*
X75780280Y-114991664D01*
X75789048Y-114979841D01*
X75798934Y-114968934D01*
X75809841Y-114959048D01*
X75821664Y-114950280D01*
X75834290Y-114942712D01*
X75847597Y-114936418D01*
X75861457Y-114931459D01*
X75875736Y-114927882D01*
X75890297Y-114925722D01*
X75905000Y-114925000D01*
X76205000Y-114925000D01*
X76219703Y-114925722D01*
X76219703Y-114925722D01*
G37*
D14*
X76055000Y-115950000D03*
D13*
G36*
X77489703Y-114925722D02*
G01*
X77504264Y-114927882D01*
X77518543Y-114931459D01*
X77532403Y-114936418D01*
X77545710Y-114942712D01*
X77558336Y-114950280D01*
X77570159Y-114959048D01*
X77581066Y-114968934D01*
X77590952Y-114979841D01*
X77599720Y-114991664D01*
X77607288Y-115004290D01*
X77613582Y-115017597D01*
X77618541Y-115031457D01*
X77622118Y-115045736D01*
X77624278Y-115060297D01*
X77625000Y-115075000D01*
X77625000Y-116825000D01*
X77624278Y-116839703D01*
X77622118Y-116854264D01*
X77618541Y-116868543D01*
X77613582Y-116882403D01*
X77607288Y-116895710D01*
X77599720Y-116908336D01*
X77590952Y-116920159D01*
X77581066Y-116931066D01*
X77570159Y-116940952D01*
X77558336Y-116949720D01*
X77545710Y-116957288D01*
X77532403Y-116963582D01*
X77518543Y-116968541D01*
X77504264Y-116972118D01*
X77489703Y-116974278D01*
X77475000Y-116975000D01*
X77175000Y-116975000D01*
X77160297Y-116974278D01*
X77145736Y-116972118D01*
X77131457Y-116968541D01*
X77117597Y-116963582D01*
X77104290Y-116957288D01*
X77091664Y-116949720D01*
X77079841Y-116940952D01*
X77068934Y-116931066D01*
X77059048Y-116920159D01*
X77050280Y-116908336D01*
X77042712Y-116895710D01*
X77036418Y-116882403D01*
X77031459Y-116868543D01*
X77027882Y-116854264D01*
X77025722Y-116839703D01*
X77025000Y-116825000D01*
X77025000Y-115075000D01*
X77025722Y-115060297D01*
X77027882Y-115045736D01*
X77031459Y-115031457D01*
X77036418Y-115017597D01*
X77042712Y-115004290D01*
X77050280Y-114991664D01*
X77059048Y-114979841D01*
X77068934Y-114968934D01*
X77079841Y-114959048D01*
X77091664Y-114950280D01*
X77104290Y-114942712D01*
X77117597Y-114936418D01*
X77131457Y-114931459D01*
X77145736Y-114927882D01*
X77160297Y-114925722D01*
X77175000Y-114925000D01*
X77475000Y-114925000D01*
X77489703Y-114925722D01*
X77489703Y-114925722D01*
G37*
D14*
X77325000Y-115950000D03*
D13*
G36*
X78759703Y-114925722D02*
G01*
X78774264Y-114927882D01*
X78788543Y-114931459D01*
X78802403Y-114936418D01*
X78815710Y-114942712D01*
X78828336Y-114950280D01*
X78840159Y-114959048D01*
X78851066Y-114968934D01*
X78860952Y-114979841D01*
X78869720Y-114991664D01*
X78877288Y-115004290D01*
X78883582Y-115017597D01*
X78888541Y-115031457D01*
X78892118Y-115045736D01*
X78894278Y-115060297D01*
X78895000Y-115075000D01*
X78895000Y-116825000D01*
X78894278Y-116839703D01*
X78892118Y-116854264D01*
X78888541Y-116868543D01*
X78883582Y-116882403D01*
X78877288Y-116895710D01*
X78869720Y-116908336D01*
X78860952Y-116920159D01*
X78851066Y-116931066D01*
X78840159Y-116940952D01*
X78828336Y-116949720D01*
X78815710Y-116957288D01*
X78802403Y-116963582D01*
X78788543Y-116968541D01*
X78774264Y-116972118D01*
X78759703Y-116974278D01*
X78745000Y-116975000D01*
X78445000Y-116975000D01*
X78430297Y-116974278D01*
X78415736Y-116972118D01*
X78401457Y-116968541D01*
X78387597Y-116963582D01*
X78374290Y-116957288D01*
X78361664Y-116949720D01*
X78349841Y-116940952D01*
X78338934Y-116931066D01*
X78329048Y-116920159D01*
X78320280Y-116908336D01*
X78312712Y-116895710D01*
X78306418Y-116882403D01*
X78301459Y-116868543D01*
X78297882Y-116854264D01*
X78295722Y-116839703D01*
X78295000Y-116825000D01*
X78295000Y-115075000D01*
X78295722Y-115060297D01*
X78297882Y-115045736D01*
X78301459Y-115031457D01*
X78306418Y-115017597D01*
X78312712Y-115004290D01*
X78320280Y-114991664D01*
X78329048Y-114979841D01*
X78338934Y-114968934D01*
X78349841Y-114959048D01*
X78361664Y-114950280D01*
X78374290Y-114942712D01*
X78387597Y-114936418D01*
X78401457Y-114931459D01*
X78415736Y-114927882D01*
X78430297Y-114925722D01*
X78445000Y-114925000D01*
X78745000Y-114925000D01*
X78759703Y-114925722D01*
X78759703Y-114925722D01*
G37*
D14*
X78595000Y-115950000D03*
D13*
G36*
X80029703Y-114925722D02*
G01*
X80044264Y-114927882D01*
X80058543Y-114931459D01*
X80072403Y-114936418D01*
X80085710Y-114942712D01*
X80098336Y-114950280D01*
X80110159Y-114959048D01*
X80121066Y-114968934D01*
X80130952Y-114979841D01*
X80139720Y-114991664D01*
X80147288Y-115004290D01*
X80153582Y-115017597D01*
X80158541Y-115031457D01*
X80162118Y-115045736D01*
X80164278Y-115060297D01*
X80165000Y-115075000D01*
X80165000Y-116825000D01*
X80164278Y-116839703D01*
X80162118Y-116854264D01*
X80158541Y-116868543D01*
X80153582Y-116882403D01*
X80147288Y-116895710D01*
X80139720Y-116908336D01*
X80130952Y-116920159D01*
X80121066Y-116931066D01*
X80110159Y-116940952D01*
X80098336Y-116949720D01*
X80085710Y-116957288D01*
X80072403Y-116963582D01*
X80058543Y-116968541D01*
X80044264Y-116972118D01*
X80029703Y-116974278D01*
X80015000Y-116975000D01*
X79715000Y-116975000D01*
X79700297Y-116974278D01*
X79685736Y-116972118D01*
X79671457Y-116968541D01*
X79657597Y-116963582D01*
X79644290Y-116957288D01*
X79631664Y-116949720D01*
X79619841Y-116940952D01*
X79608934Y-116931066D01*
X79599048Y-116920159D01*
X79590280Y-116908336D01*
X79582712Y-116895710D01*
X79576418Y-116882403D01*
X79571459Y-116868543D01*
X79567882Y-116854264D01*
X79565722Y-116839703D01*
X79565000Y-116825000D01*
X79565000Y-115075000D01*
X79565722Y-115060297D01*
X79567882Y-115045736D01*
X79571459Y-115031457D01*
X79576418Y-115017597D01*
X79582712Y-115004290D01*
X79590280Y-114991664D01*
X79599048Y-114979841D01*
X79608934Y-114968934D01*
X79619841Y-114959048D01*
X79631664Y-114950280D01*
X79644290Y-114942712D01*
X79657597Y-114936418D01*
X79671457Y-114931459D01*
X79685736Y-114927882D01*
X79700297Y-114925722D01*
X79715000Y-114925000D01*
X80015000Y-114925000D01*
X80029703Y-114925722D01*
X80029703Y-114925722D01*
G37*
D14*
X79865000Y-115950000D03*
D13*
G36*
X81299703Y-114925722D02*
G01*
X81314264Y-114927882D01*
X81328543Y-114931459D01*
X81342403Y-114936418D01*
X81355710Y-114942712D01*
X81368336Y-114950280D01*
X81380159Y-114959048D01*
X81391066Y-114968934D01*
X81400952Y-114979841D01*
X81409720Y-114991664D01*
X81417288Y-115004290D01*
X81423582Y-115017597D01*
X81428541Y-115031457D01*
X81432118Y-115045736D01*
X81434278Y-115060297D01*
X81435000Y-115075000D01*
X81435000Y-116825000D01*
X81434278Y-116839703D01*
X81432118Y-116854264D01*
X81428541Y-116868543D01*
X81423582Y-116882403D01*
X81417288Y-116895710D01*
X81409720Y-116908336D01*
X81400952Y-116920159D01*
X81391066Y-116931066D01*
X81380159Y-116940952D01*
X81368336Y-116949720D01*
X81355710Y-116957288D01*
X81342403Y-116963582D01*
X81328543Y-116968541D01*
X81314264Y-116972118D01*
X81299703Y-116974278D01*
X81285000Y-116975000D01*
X80985000Y-116975000D01*
X80970297Y-116974278D01*
X80955736Y-116972118D01*
X80941457Y-116968541D01*
X80927597Y-116963582D01*
X80914290Y-116957288D01*
X80901664Y-116949720D01*
X80889841Y-116940952D01*
X80878934Y-116931066D01*
X80869048Y-116920159D01*
X80860280Y-116908336D01*
X80852712Y-116895710D01*
X80846418Y-116882403D01*
X80841459Y-116868543D01*
X80837882Y-116854264D01*
X80835722Y-116839703D01*
X80835000Y-116825000D01*
X80835000Y-115075000D01*
X80835722Y-115060297D01*
X80837882Y-115045736D01*
X80841459Y-115031457D01*
X80846418Y-115017597D01*
X80852712Y-115004290D01*
X80860280Y-114991664D01*
X80869048Y-114979841D01*
X80878934Y-114968934D01*
X80889841Y-114959048D01*
X80901664Y-114950280D01*
X80914290Y-114942712D01*
X80927597Y-114936418D01*
X80941457Y-114931459D01*
X80955736Y-114927882D01*
X80970297Y-114925722D01*
X80985000Y-114925000D01*
X81285000Y-114925000D01*
X81299703Y-114925722D01*
X81299703Y-114925722D01*
G37*
D14*
X81135000Y-115950000D03*
D13*
G36*
X82569703Y-114925722D02*
G01*
X82584264Y-114927882D01*
X82598543Y-114931459D01*
X82612403Y-114936418D01*
X82625710Y-114942712D01*
X82638336Y-114950280D01*
X82650159Y-114959048D01*
X82661066Y-114968934D01*
X82670952Y-114979841D01*
X82679720Y-114991664D01*
X82687288Y-115004290D01*
X82693582Y-115017597D01*
X82698541Y-115031457D01*
X82702118Y-115045736D01*
X82704278Y-115060297D01*
X82705000Y-115075000D01*
X82705000Y-116825000D01*
X82704278Y-116839703D01*
X82702118Y-116854264D01*
X82698541Y-116868543D01*
X82693582Y-116882403D01*
X82687288Y-116895710D01*
X82679720Y-116908336D01*
X82670952Y-116920159D01*
X82661066Y-116931066D01*
X82650159Y-116940952D01*
X82638336Y-116949720D01*
X82625710Y-116957288D01*
X82612403Y-116963582D01*
X82598543Y-116968541D01*
X82584264Y-116972118D01*
X82569703Y-116974278D01*
X82555000Y-116975000D01*
X82255000Y-116975000D01*
X82240297Y-116974278D01*
X82225736Y-116972118D01*
X82211457Y-116968541D01*
X82197597Y-116963582D01*
X82184290Y-116957288D01*
X82171664Y-116949720D01*
X82159841Y-116940952D01*
X82148934Y-116931066D01*
X82139048Y-116920159D01*
X82130280Y-116908336D01*
X82122712Y-116895710D01*
X82116418Y-116882403D01*
X82111459Y-116868543D01*
X82107882Y-116854264D01*
X82105722Y-116839703D01*
X82105000Y-116825000D01*
X82105000Y-115075000D01*
X82105722Y-115060297D01*
X82107882Y-115045736D01*
X82111459Y-115031457D01*
X82116418Y-115017597D01*
X82122712Y-115004290D01*
X82130280Y-114991664D01*
X82139048Y-114979841D01*
X82148934Y-114968934D01*
X82159841Y-114959048D01*
X82171664Y-114950280D01*
X82184290Y-114942712D01*
X82197597Y-114936418D01*
X82211457Y-114931459D01*
X82225736Y-114927882D01*
X82240297Y-114925722D01*
X82255000Y-114925000D01*
X82555000Y-114925000D01*
X82569703Y-114925722D01*
X82569703Y-114925722D01*
G37*
D14*
X82405000Y-115950000D03*
D13*
G36*
X83839703Y-114925722D02*
G01*
X83854264Y-114927882D01*
X83868543Y-114931459D01*
X83882403Y-114936418D01*
X83895710Y-114942712D01*
X83908336Y-114950280D01*
X83920159Y-114959048D01*
X83931066Y-114968934D01*
X83940952Y-114979841D01*
X83949720Y-114991664D01*
X83957288Y-115004290D01*
X83963582Y-115017597D01*
X83968541Y-115031457D01*
X83972118Y-115045736D01*
X83974278Y-115060297D01*
X83975000Y-115075000D01*
X83975000Y-116825000D01*
X83974278Y-116839703D01*
X83972118Y-116854264D01*
X83968541Y-116868543D01*
X83963582Y-116882403D01*
X83957288Y-116895710D01*
X83949720Y-116908336D01*
X83940952Y-116920159D01*
X83931066Y-116931066D01*
X83920159Y-116940952D01*
X83908336Y-116949720D01*
X83895710Y-116957288D01*
X83882403Y-116963582D01*
X83868543Y-116968541D01*
X83854264Y-116972118D01*
X83839703Y-116974278D01*
X83825000Y-116975000D01*
X83525000Y-116975000D01*
X83510297Y-116974278D01*
X83495736Y-116972118D01*
X83481457Y-116968541D01*
X83467597Y-116963582D01*
X83454290Y-116957288D01*
X83441664Y-116949720D01*
X83429841Y-116940952D01*
X83418934Y-116931066D01*
X83409048Y-116920159D01*
X83400280Y-116908336D01*
X83392712Y-116895710D01*
X83386418Y-116882403D01*
X83381459Y-116868543D01*
X83377882Y-116854264D01*
X83375722Y-116839703D01*
X83375000Y-116825000D01*
X83375000Y-115075000D01*
X83375722Y-115060297D01*
X83377882Y-115045736D01*
X83381459Y-115031457D01*
X83386418Y-115017597D01*
X83392712Y-115004290D01*
X83400280Y-114991664D01*
X83409048Y-114979841D01*
X83418934Y-114968934D01*
X83429841Y-114959048D01*
X83441664Y-114950280D01*
X83454290Y-114942712D01*
X83467597Y-114936418D01*
X83481457Y-114931459D01*
X83495736Y-114927882D01*
X83510297Y-114925722D01*
X83525000Y-114925000D01*
X83825000Y-114925000D01*
X83839703Y-114925722D01*
X83839703Y-114925722D01*
G37*
D14*
X83675000Y-115950000D03*
D13*
G36*
X85109703Y-114925722D02*
G01*
X85124264Y-114927882D01*
X85138543Y-114931459D01*
X85152403Y-114936418D01*
X85165710Y-114942712D01*
X85178336Y-114950280D01*
X85190159Y-114959048D01*
X85201066Y-114968934D01*
X85210952Y-114979841D01*
X85219720Y-114991664D01*
X85227288Y-115004290D01*
X85233582Y-115017597D01*
X85238541Y-115031457D01*
X85242118Y-115045736D01*
X85244278Y-115060297D01*
X85245000Y-115075000D01*
X85245000Y-116825000D01*
X85244278Y-116839703D01*
X85242118Y-116854264D01*
X85238541Y-116868543D01*
X85233582Y-116882403D01*
X85227288Y-116895710D01*
X85219720Y-116908336D01*
X85210952Y-116920159D01*
X85201066Y-116931066D01*
X85190159Y-116940952D01*
X85178336Y-116949720D01*
X85165710Y-116957288D01*
X85152403Y-116963582D01*
X85138543Y-116968541D01*
X85124264Y-116972118D01*
X85109703Y-116974278D01*
X85095000Y-116975000D01*
X84795000Y-116975000D01*
X84780297Y-116974278D01*
X84765736Y-116972118D01*
X84751457Y-116968541D01*
X84737597Y-116963582D01*
X84724290Y-116957288D01*
X84711664Y-116949720D01*
X84699841Y-116940952D01*
X84688934Y-116931066D01*
X84679048Y-116920159D01*
X84670280Y-116908336D01*
X84662712Y-116895710D01*
X84656418Y-116882403D01*
X84651459Y-116868543D01*
X84647882Y-116854264D01*
X84645722Y-116839703D01*
X84645000Y-116825000D01*
X84645000Y-115075000D01*
X84645722Y-115060297D01*
X84647882Y-115045736D01*
X84651459Y-115031457D01*
X84656418Y-115017597D01*
X84662712Y-115004290D01*
X84670280Y-114991664D01*
X84679048Y-114979841D01*
X84688934Y-114968934D01*
X84699841Y-114959048D01*
X84711664Y-114950280D01*
X84724290Y-114942712D01*
X84737597Y-114936418D01*
X84751457Y-114931459D01*
X84765736Y-114927882D01*
X84780297Y-114925722D01*
X84795000Y-114925000D01*
X85095000Y-114925000D01*
X85109703Y-114925722D01*
X85109703Y-114925722D01*
G37*
D14*
X84945000Y-115950000D03*
D13*
G36*
X86379703Y-114925722D02*
G01*
X86394264Y-114927882D01*
X86408543Y-114931459D01*
X86422403Y-114936418D01*
X86435710Y-114942712D01*
X86448336Y-114950280D01*
X86460159Y-114959048D01*
X86471066Y-114968934D01*
X86480952Y-114979841D01*
X86489720Y-114991664D01*
X86497288Y-115004290D01*
X86503582Y-115017597D01*
X86508541Y-115031457D01*
X86512118Y-115045736D01*
X86514278Y-115060297D01*
X86515000Y-115075000D01*
X86515000Y-116825000D01*
X86514278Y-116839703D01*
X86512118Y-116854264D01*
X86508541Y-116868543D01*
X86503582Y-116882403D01*
X86497288Y-116895710D01*
X86489720Y-116908336D01*
X86480952Y-116920159D01*
X86471066Y-116931066D01*
X86460159Y-116940952D01*
X86448336Y-116949720D01*
X86435710Y-116957288D01*
X86422403Y-116963582D01*
X86408543Y-116968541D01*
X86394264Y-116972118D01*
X86379703Y-116974278D01*
X86365000Y-116975000D01*
X86065000Y-116975000D01*
X86050297Y-116974278D01*
X86035736Y-116972118D01*
X86021457Y-116968541D01*
X86007597Y-116963582D01*
X85994290Y-116957288D01*
X85981664Y-116949720D01*
X85969841Y-116940952D01*
X85958934Y-116931066D01*
X85949048Y-116920159D01*
X85940280Y-116908336D01*
X85932712Y-116895710D01*
X85926418Y-116882403D01*
X85921459Y-116868543D01*
X85917882Y-116854264D01*
X85915722Y-116839703D01*
X85915000Y-116825000D01*
X85915000Y-115075000D01*
X85915722Y-115060297D01*
X85917882Y-115045736D01*
X85921459Y-115031457D01*
X85926418Y-115017597D01*
X85932712Y-115004290D01*
X85940280Y-114991664D01*
X85949048Y-114979841D01*
X85958934Y-114968934D01*
X85969841Y-114959048D01*
X85981664Y-114950280D01*
X85994290Y-114942712D01*
X86007597Y-114936418D01*
X86021457Y-114931459D01*
X86035736Y-114927882D01*
X86050297Y-114925722D01*
X86065000Y-114925000D01*
X86365000Y-114925000D01*
X86379703Y-114925722D01*
X86379703Y-114925722D01*
G37*
D14*
X86215000Y-115950000D03*
D15*
X79015000Y-131900500D03*
X67585000Y-131900500D03*
X67585000Y-131100400D03*
X79015000Y-131100400D03*
X79015000Y-130300300D03*
X67585000Y-130300300D03*
X67585000Y-129500200D03*
X79015000Y-129500200D03*
X79015000Y-128700100D03*
X67585000Y-128700100D03*
X67585000Y-123899500D03*
X79015000Y-123899500D03*
X79015000Y-124699600D03*
X67585000Y-124699600D03*
X67585000Y-125499700D03*
X79015000Y-125499700D03*
X79015000Y-126299800D03*
X67585000Y-126299800D03*
X67585000Y-127099900D03*
X79015000Y-127099900D03*
X67585000Y-127900000D03*
X79015000Y-127900000D03*
D16*
X69299500Y-122185000D03*
X70099600Y-122185000D03*
X70899700Y-122185000D03*
X71699800Y-122185000D03*
X72499900Y-122185000D03*
X77300500Y-122185000D03*
X76500400Y-122185000D03*
X75700300Y-122185000D03*
X74900200Y-122185000D03*
X74100100Y-122185000D03*
X73300000Y-122185000D03*
X69299500Y-133615000D03*
X70099600Y-133615000D03*
X70899700Y-133615000D03*
X71699800Y-133615000D03*
X72499900Y-133615000D03*
X77300500Y-133615000D03*
X76500400Y-133615000D03*
X75700300Y-133615000D03*
X74900200Y-133615000D03*
X74100100Y-133615000D03*
X73300000Y-133615000D03*
D17*
X78800000Y-139500000D03*
X76400000Y-137200000D03*
D18*
X96124000Y-138300000D03*
X94600000Y-138300000D03*
X96100000Y-140000000D03*
X94576000Y-140000000D03*
D13*
G36*
X77077691Y-146163553D02*
G01*
X77098926Y-146166703D01*
X77119750Y-146171919D01*
X77139962Y-146179151D01*
X77159368Y-146188330D01*
X77177781Y-146199366D01*
X77195024Y-146212154D01*
X77210930Y-146226570D01*
X77225346Y-146242476D01*
X77238134Y-146259719D01*
X77249170Y-146278132D01*
X77258349Y-146297538D01*
X77265581Y-146317750D01*
X77270797Y-146338574D01*
X77273947Y-146359809D01*
X77275000Y-146381250D01*
X77275000Y-146818750D01*
X77273947Y-146840191D01*
X77270797Y-146861426D01*
X77265581Y-146882250D01*
X77258349Y-146902462D01*
X77249170Y-146921868D01*
X77238134Y-146940281D01*
X77225346Y-146957524D01*
X77210930Y-146973430D01*
X77195024Y-146987846D01*
X77177781Y-147000634D01*
X77159368Y-147011670D01*
X77139962Y-147020849D01*
X77119750Y-147028081D01*
X77098926Y-147033297D01*
X77077691Y-147036447D01*
X77056250Y-147037500D01*
X76543750Y-147037500D01*
X76522309Y-147036447D01*
X76501074Y-147033297D01*
X76480250Y-147028081D01*
X76460038Y-147020849D01*
X76440632Y-147011670D01*
X76422219Y-147000634D01*
X76404976Y-146987846D01*
X76389070Y-146973430D01*
X76374654Y-146957524D01*
X76361866Y-146940281D01*
X76350830Y-146921868D01*
X76341651Y-146902462D01*
X76334419Y-146882250D01*
X76329203Y-146861426D01*
X76326053Y-146840191D01*
X76325000Y-146818750D01*
X76325000Y-146381250D01*
X76326053Y-146359809D01*
X76329203Y-146338574D01*
X76334419Y-146317750D01*
X76341651Y-146297538D01*
X76350830Y-146278132D01*
X76361866Y-146259719D01*
X76374654Y-146242476D01*
X76389070Y-146226570D01*
X76404976Y-146212154D01*
X76422219Y-146199366D01*
X76440632Y-146188330D01*
X76460038Y-146179151D01*
X76480250Y-146171919D01*
X76501074Y-146166703D01*
X76522309Y-146163553D01*
X76543750Y-146162500D01*
X77056250Y-146162500D01*
X77077691Y-146163553D01*
X77077691Y-146163553D01*
G37*
D19*
X76800000Y-146600000D03*
D13*
G36*
X77077691Y-147738553D02*
G01*
X77098926Y-147741703D01*
X77119750Y-147746919D01*
X77139962Y-147754151D01*
X77159368Y-147763330D01*
X77177781Y-147774366D01*
X77195024Y-147787154D01*
X77210930Y-147801570D01*
X77225346Y-147817476D01*
X77238134Y-147834719D01*
X77249170Y-147853132D01*
X77258349Y-147872538D01*
X77265581Y-147892750D01*
X77270797Y-147913574D01*
X77273947Y-147934809D01*
X77275000Y-147956250D01*
X77275000Y-148393750D01*
X77273947Y-148415191D01*
X77270797Y-148436426D01*
X77265581Y-148457250D01*
X77258349Y-148477462D01*
X77249170Y-148496868D01*
X77238134Y-148515281D01*
X77225346Y-148532524D01*
X77210930Y-148548430D01*
X77195024Y-148562846D01*
X77177781Y-148575634D01*
X77159368Y-148586670D01*
X77139962Y-148595849D01*
X77119750Y-148603081D01*
X77098926Y-148608297D01*
X77077691Y-148611447D01*
X77056250Y-148612500D01*
X76543750Y-148612500D01*
X76522309Y-148611447D01*
X76501074Y-148608297D01*
X76480250Y-148603081D01*
X76460038Y-148595849D01*
X76440632Y-148586670D01*
X76422219Y-148575634D01*
X76404976Y-148562846D01*
X76389070Y-148548430D01*
X76374654Y-148532524D01*
X76361866Y-148515281D01*
X76350830Y-148496868D01*
X76341651Y-148477462D01*
X76334419Y-148457250D01*
X76329203Y-148436426D01*
X76326053Y-148415191D01*
X76325000Y-148393750D01*
X76325000Y-147956250D01*
X76326053Y-147934809D01*
X76329203Y-147913574D01*
X76334419Y-147892750D01*
X76341651Y-147872538D01*
X76350830Y-147853132D01*
X76361866Y-147834719D01*
X76374654Y-147817476D01*
X76389070Y-147801570D01*
X76404976Y-147787154D01*
X76422219Y-147774366D01*
X76440632Y-147763330D01*
X76460038Y-147754151D01*
X76480250Y-147746919D01*
X76501074Y-147741703D01*
X76522309Y-147738553D01*
X76543750Y-147737500D01*
X77056250Y-147737500D01*
X77077691Y-147738553D01*
X77077691Y-147738553D01*
G37*
D19*
X76800000Y-148175000D03*
D13*
G36*
X67677691Y-147438553D02*
G01*
X67698926Y-147441703D01*
X67719750Y-147446919D01*
X67739962Y-147454151D01*
X67759368Y-147463330D01*
X67777781Y-147474366D01*
X67795024Y-147487154D01*
X67810930Y-147501570D01*
X67825346Y-147517476D01*
X67838134Y-147534719D01*
X67849170Y-147553132D01*
X67858349Y-147572538D01*
X67865581Y-147592750D01*
X67870797Y-147613574D01*
X67873947Y-147634809D01*
X67875000Y-147656250D01*
X67875000Y-148093750D01*
X67873947Y-148115191D01*
X67870797Y-148136426D01*
X67865581Y-148157250D01*
X67858349Y-148177462D01*
X67849170Y-148196868D01*
X67838134Y-148215281D01*
X67825346Y-148232524D01*
X67810930Y-148248430D01*
X67795024Y-148262846D01*
X67777781Y-148275634D01*
X67759368Y-148286670D01*
X67739962Y-148295849D01*
X67719750Y-148303081D01*
X67698926Y-148308297D01*
X67677691Y-148311447D01*
X67656250Y-148312500D01*
X67143750Y-148312500D01*
X67122309Y-148311447D01*
X67101074Y-148308297D01*
X67080250Y-148303081D01*
X67060038Y-148295849D01*
X67040632Y-148286670D01*
X67022219Y-148275634D01*
X67004976Y-148262846D01*
X66989070Y-148248430D01*
X66974654Y-148232524D01*
X66961866Y-148215281D01*
X66950830Y-148196868D01*
X66941651Y-148177462D01*
X66934419Y-148157250D01*
X66929203Y-148136426D01*
X66926053Y-148115191D01*
X66925000Y-148093750D01*
X66925000Y-147656250D01*
X66926053Y-147634809D01*
X66929203Y-147613574D01*
X66934419Y-147592750D01*
X66941651Y-147572538D01*
X66950830Y-147553132D01*
X66961866Y-147534719D01*
X66974654Y-147517476D01*
X66989070Y-147501570D01*
X67004976Y-147487154D01*
X67022219Y-147474366D01*
X67040632Y-147463330D01*
X67060038Y-147454151D01*
X67080250Y-147446919D01*
X67101074Y-147441703D01*
X67122309Y-147438553D01*
X67143750Y-147437500D01*
X67656250Y-147437500D01*
X67677691Y-147438553D01*
X67677691Y-147438553D01*
G37*
D19*
X67400000Y-147875000D03*
D13*
G36*
X67677691Y-145863553D02*
G01*
X67698926Y-145866703D01*
X67719750Y-145871919D01*
X67739962Y-145879151D01*
X67759368Y-145888330D01*
X67777781Y-145899366D01*
X67795024Y-145912154D01*
X67810930Y-145926570D01*
X67825346Y-145942476D01*
X67838134Y-145959719D01*
X67849170Y-145978132D01*
X67858349Y-145997538D01*
X67865581Y-146017750D01*
X67870797Y-146038574D01*
X67873947Y-146059809D01*
X67875000Y-146081250D01*
X67875000Y-146518750D01*
X67873947Y-146540191D01*
X67870797Y-146561426D01*
X67865581Y-146582250D01*
X67858349Y-146602462D01*
X67849170Y-146621868D01*
X67838134Y-146640281D01*
X67825346Y-146657524D01*
X67810930Y-146673430D01*
X67795024Y-146687846D01*
X67777781Y-146700634D01*
X67759368Y-146711670D01*
X67739962Y-146720849D01*
X67719750Y-146728081D01*
X67698926Y-146733297D01*
X67677691Y-146736447D01*
X67656250Y-146737500D01*
X67143750Y-146737500D01*
X67122309Y-146736447D01*
X67101074Y-146733297D01*
X67080250Y-146728081D01*
X67060038Y-146720849D01*
X67040632Y-146711670D01*
X67022219Y-146700634D01*
X67004976Y-146687846D01*
X66989070Y-146673430D01*
X66974654Y-146657524D01*
X66961866Y-146640281D01*
X66950830Y-146621868D01*
X66941651Y-146602462D01*
X66934419Y-146582250D01*
X66929203Y-146561426D01*
X66926053Y-146540191D01*
X66925000Y-146518750D01*
X66925000Y-146081250D01*
X66926053Y-146059809D01*
X66929203Y-146038574D01*
X66934419Y-146017750D01*
X66941651Y-145997538D01*
X66950830Y-145978132D01*
X66961866Y-145959719D01*
X66974654Y-145942476D01*
X66989070Y-145926570D01*
X67004976Y-145912154D01*
X67022219Y-145899366D01*
X67040632Y-145888330D01*
X67060038Y-145879151D01*
X67080250Y-145871919D01*
X67101074Y-145866703D01*
X67122309Y-145863553D01*
X67143750Y-145862500D01*
X67656250Y-145862500D01*
X67677691Y-145863553D01*
X67677691Y-145863553D01*
G37*
D19*
X67400000Y-146300000D03*
D13*
G36*
X60277691Y-145988553D02*
G01*
X60298926Y-145991703D01*
X60319750Y-145996919D01*
X60339962Y-146004151D01*
X60359368Y-146013330D01*
X60377781Y-146024366D01*
X60395024Y-146037154D01*
X60410930Y-146051570D01*
X60425346Y-146067476D01*
X60438134Y-146084719D01*
X60449170Y-146103132D01*
X60458349Y-146122538D01*
X60465581Y-146142750D01*
X60470797Y-146163574D01*
X60473947Y-146184809D01*
X60475000Y-146206250D01*
X60475000Y-146643750D01*
X60473947Y-146665191D01*
X60470797Y-146686426D01*
X60465581Y-146707250D01*
X60458349Y-146727462D01*
X60449170Y-146746868D01*
X60438134Y-146765281D01*
X60425346Y-146782524D01*
X60410930Y-146798430D01*
X60395024Y-146812846D01*
X60377781Y-146825634D01*
X60359368Y-146836670D01*
X60339962Y-146845849D01*
X60319750Y-146853081D01*
X60298926Y-146858297D01*
X60277691Y-146861447D01*
X60256250Y-146862500D01*
X59743750Y-146862500D01*
X59722309Y-146861447D01*
X59701074Y-146858297D01*
X59680250Y-146853081D01*
X59660038Y-146845849D01*
X59640632Y-146836670D01*
X59622219Y-146825634D01*
X59604976Y-146812846D01*
X59589070Y-146798430D01*
X59574654Y-146782524D01*
X59561866Y-146765281D01*
X59550830Y-146746868D01*
X59541651Y-146727462D01*
X59534419Y-146707250D01*
X59529203Y-146686426D01*
X59526053Y-146665191D01*
X59525000Y-146643750D01*
X59525000Y-146206250D01*
X59526053Y-146184809D01*
X59529203Y-146163574D01*
X59534419Y-146142750D01*
X59541651Y-146122538D01*
X59550830Y-146103132D01*
X59561866Y-146084719D01*
X59574654Y-146067476D01*
X59589070Y-146051570D01*
X59604976Y-146037154D01*
X59622219Y-146024366D01*
X59640632Y-146013330D01*
X59660038Y-146004151D01*
X59680250Y-145996919D01*
X59701074Y-145991703D01*
X59722309Y-145988553D01*
X59743750Y-145987500D01*
X60256250Y-145987500D01*
X60277691Y-145988553D01*
X60277691Y-145988553D01*
G37*
D19*
X60000000Y-146425000D03*
D13*
G36*
X60277691Y-147563553D02*
G01*
X60298926Y-147566703D01*
X60319750Y-147571919D01*
X60339962Y-147579151D01*
X60359368Y-147588330D01*
X60377781Y-147599366D01*
X60395024Y-147612154D01*
X60410930Y-147626570D01*
X60425346Y-147642476D01*
X60438134Y-147659719D01*
X60449170Y-147678132D01*
X60458349Y-147697538D01*
X60465581Y-147717750D01*
X60470797Y-147738574D01*
X60473947Y-147759809D01*
X60475000Y-147781250D01*
X60475000Y-148218750D01*
X60473947Y-148240191D01*
X60470797Y-148261426D01*
X60465581Y-148282250D01*
X60458349Y-148302462D01*
X60449170Y-148321868D01*
X60438134Y-148340281D01*
X60425346Y-148357524D01*
X60410930Y-148373430D01*
X60395024Y-148387846D01*
X60377781Y-148400634D01*
X60359368Y-148411670D01*
X60339962Y-148420849D01*
X60319750Y-148428081D01*
X60298926Y-148433297D01*
X60277691Y-148436447D01*
X60256250Y-148437500D01*
X59743750Y-148437500D01*
X59722309Y-148436447D01*
X59701074Y-148433297D01*
X59680250Y-148428081D01*
X59660038Y-148420849D01*
X59640632Y-148411670D01*
X59622219Y-148400634D01*
X59604976Y-148387846D01*
X59589070Y-148373430D01*
X59574654Y-148357524D01*
X59561866Y-148340281D01*
X59550830Y-148321868D01*
X59541651Y-148302462D01*
X59534419Y-148282250D01*
X59529203Y-148261426D01*
X59526053Y-148240191D01*
X59525000Y-148218750D01*
X59525000Y-147781250D01*
X59526053Y-147759809D01*
X59529203Y-147738574D01*
X59534419Y-147717750D01*
X59541651Y-147697538D01*
X59550830Y-147678132D01*
X59561866Y-147659719D01*
X59574654Y-147642476D01*
X59589070Y-147626570D01*
X59604976Y-147612154D01*
X59622219Y-147599366D01*
X59640632Y-147588330D01*
X59660038Y-147579151D01*
X59680250Y-147571919D01*
X59701074Y-147566703D01*
X59722309Y-147563553D01*
X59743750Y-147562500D01*
X60256250Y-147562500D01*
X60277691Y-147563553D01*
X60277691Y-147563553D01*
G37*
D19*
X60000000Y-148000000D03*
D13*
G36*
X63997691Y-147553553D02*
G01*
X64018926Y-147556703D01*
X64039750Y-147561919D01*
X64059962Y-147569151D01*
X64079368Y-147578330D01*
X64097781Y-147589366D01*
X64115024Y-147602154D01*
X64130930Y-147616570D01*
X64145346Y-147632476D01*
X64158134Y-147649719D01*
X64169170Y-147668132D01*
X64178349Y-147687538D01*
X64185581Y-147707750D01*
X64190797Y-147728574D01*
X64193947Y-147749809D01*
X64195000Y-147771250D01*
X64195000Y-148208750D01*
X64193947Y-148230191D01*
X64190797Y-148251426D01*
X64185581Y-148272250D01*
X64178349Y-148292462D01*
X64169170Y-148311868D01*
X64158134Y-148330281D01*
X64145346Y-148347524D01*
X64130930Y-148363430D01*
X64115024Y-148377846D01*
X64097781Y-148390634D01*
X64079368Y-148401670D01*
X64059962Y-148410849D01*
X64039750Y-148418081D01*
X64018926Y-148423297D01*
X63997691Y-148426447D01*
X63976250Y-148427500D01*
X63463750Y-148427500D01*
X63442309Y-148426447D01*
X63421074Y-148423297D01*
X63400250Y-148418081D01*
X63380038Y-148410849D01*
X63360632Y-148401670D01*
X63342219Y-148390634D01*
X63324976Y-148377846D01*
X63309070Y-148363430D01*
X63294654Y-148347524D01*
X63281866Y-148330281D01*
X63270830Y-148311868D01*
X63261651Y-148292462D01*
X63254419Y-148272250D01*
X63249203Y-148251426D01*
X63246053Y-148230191D01*
X63245000Y-148208750D01*
X63245000Y-147771250D01*
X63246053Y-147749809D01*
X63249203Y-147728574D01*
X63254419Y-147707750D01*
X63261651Y-147687538D01*
X63270830Y-147668132D01*
X63281866Y-147649719D01*
X63294654Y-147632476D01*
X63309070Y-147616570D01*
X63324976Y-147602154D01*
X63342219Y-147589366D01*
X63360632Y-147578330D01*
X63380038Y-147569151D01*
X63400250Y-147561919D01*
X63421074Y-147556703D01*
X63442309Y-147553553D01*
X63463750Y-147552500D01*
X63976250Y-147552500D01*
X63997691Y-147553553D01*
X63997691Y-147553553D01*
G37*
D19*
X63720000Y-147990000D03*
D13*
G36*
X63997691Y-145978553D02*
G01*
X64018926Y-145981703D01*
X64039750Y-145986919D01*
X64059962Y-145994151D01*
X64079368Y-146003330D01*
X64097781Y-146014366D01*
X64115024Y-146027154D01*
X64130930Y-146041570D01*
X64145346Y-146057476D01*
X64158134Y-146074719D01*
X64169170Y-146093132D01*
X64178349Y-146112538D01*
X64185581Y-146132750D01*
X64190797Y-146153574D01*
X64193947Y-146174809D01*
X64195000Y-146196250D01*
X64195000Y-146633750D01*
X64193947Y-146655191D01*
X64190797Y-146676426D01*
X64185581Y-146697250D01*
X64178349Y-146717462D01*
X64169170Y-146736868D01*
X64158134Y-146755281D01*
X64145346Y-146772524D01*
X64130930Y-146788430D01*
X64115024Y-146802846D01*
X64097781Y-146815634D01*
X64079368Y-146826670D01*
X64059962Y-146835849D01*
X64039750Y-146843081D01*
X64018926Y-146848297D01*
X63997691Y-146851447D01*
X63976250Y-146852500D01*
X63463750Y-146852500D01*
X63442309Y-146851447D01*
X63421074Y-146848297D01*
X63400250Y-146843081D01*
X63380038Y-146835849D01*
X63360632Y-146826670D01*
X63342219Y-146815634D01*
X63324976Y-146802846D01*
X63309070Y-146788430D01*
X63294654Y-146772524D01*
X63281866Y-146755281D01*
X63270830Y-146736868D01*
X63261651Y-146717462D01*
X63254419Y-146697250D01*
X63249203Y-146676426D01*
X63246053Y-146655191D01*
X63245000Y-146633750D01*
X63245000Y-146196250D01*
X63246053Y-146174809D01*
X63249203Y-146153574D01*
X63254419Y-146132750D01*
X63261651Y-146112538D01*
X63270830Y-146093132D01*
X63281866Y-146074719D01*
X63294654Y-146057476D01*
X63309070Y-146041570D01*
X63324976Y-146027154D01*
X63342219Y-146014366D01*
X63360632Y-146003330D01*
X63380038Y-145994151D01*
X63400250Y-145986919D01*
X63421074Y-145981703D01*
X63442309Y-145978553D01*
X63463750Y-145977500D01*
X63976250Y-145977500D01*
X63997691Y-145978553D01*
X63997691Y-145978553D01*
G37*
D19*
X63720000Y-146415000D03*
D13*
G36*
X78265191Y-143026053D02*
G01*
X78286426Y-143029203D01*
X78307250Y-143034419D01*
X78327462Y-143041651D01*
X78346868Y-143050830D01*
X78365281Y-143061866D01*
X78382524Y-143074654D01*
X78398430Y-143089070D01*
X78412846Y-143104976D01*
X78425634Y-143122219D01*
X78436670Y-143140632D01*
X78445849Y-143160038D01*
X78453081Y-143180250D01*
X78458297Y-143201074D01*
X78461447Y-143222309D01*
X78462500Y-143243750D01*
X78462500Y-143756250D01*
X78461447Y-143777691D01*
X78458297Y-143798926D01*
X78453081Y-143819750D01*
X78445849Y-143839962D01*
X78436670Y-143859368D01*
X78425634Y-143877781D01*
X78412846Y-143895024D01*
X78398430Y-143910930D01*
X78382524Y-143925346D01*
X78365281Y-143938134D01*
X78346868Y-143949170D01*
X78327462Y-143958349D01*
X78307250Y-143965581D01*
X78286426Y-143970797D01*
X78265191Y-143973947D01*
X78243750Y-143975000D01*
X77806250Y-143975000D01*
X77784809Y-143973947D01*
X77763574Y-143970797D01*
X77742750Y-143965581D01*
X77722538Y-143958349D01*
X77703132Y-143949170D01*
X77684719Y-143938134D01*
X77667476Y-143925346D01*
X77651570Y-143910930D01*
X77637154Y-143895024D01*
X77624366Y-143877781D01*
X77613330Y-143859368D01*
X77604151Y-143839962D01*
X77596919Y-143819750D01*
X77591703Y-143798926D01*
X77588553Y-143777691D01*
X77587500Y-143756250D01*
X77587500Y-143243750D01*
X77588553Y-143222309D01*
X77591703Y-143201074D01*
X77596919Y-143180250D01*
X77604151Y-143160038D01*
X77613330Y-143140632D01*
X77624366Y-143122219D01*
X77637154Y-143104976D01*
X77651570Y-143089070D01*
X77667476Y-143074654D01*
X77684719Y-143061866D01*
X77703132Y-143050830D01*
X77722538Y-143041651D01*
X77742750Y-143034419D01*
X77763574Y-143029203D01*
X77784809Y-143026053D01*
X77806250Y-143025000D01*
X78243750Y-143025000D01*
X78265191Y-143026053D01*
X78265191Y-143026053D01*
G37*
D19*
X78025000Y-143500000D03*
D13*
G36*
X79840191Y-143026053D02*
G01*
X79861426Y-143029203D01*
X79882250Y-143034419D01*
X79902462Y-143041651D01*
X79921868Y-143050830D01*
X79940281Y-143061866D01*
X79957524Y-143074654D01*
X79973430Y-143089070D01*
X79987846Y-143104976D01*
X80000634Y-143122219D01*
X80011670Y-143140632D01*
X80020849Y-143160038D01*
X80028081Y-143180250D01*
X80033297Y-143201074D01*
X80036447Y-143222309D01*
X80037500Y-143243750D01*
X80037500Y-143756250D01*
X80036447Y-143777691D01*
X80033297Y-143798926D01*
X80028081Y-143819750D01*
X80020849Y-143839962D01*
X80011670Y-143859368D01*
X80000634Y-143877781D01*
X79987846Y-143895024D01*
X79973430Y-143910930D01*
X79957524Y-143925346D01*
X79940281Y-143938134D01*
X79921868Y-143949170D01*
X79902462Y-143958349D01*
X79882250Y-143965581D01*
X79861426Y-143970797D01*
X79840191Y-143973947D01*
X79818750Y-143975000D01*
X79381250Y-143975000D01*
X79359809Y-143973947D01*
X79338574Y-143970797D01*
X79317750Y-143965581D01*
X79297538Y-143958349D01*
X79278132Y-143949170D01*
X79259719Y-143938134D01*
X79242476Y-143925346D01*
X79226570Y-143910930D01*
X79212154Y-143895024D01*
X79199366Y-143877781D01*
X79188330Y-143859368D01*
X79179151Y-143839962D01*
X79171919Y-143819750D01*
X79166703Y-143798926D01*
X79163553Y-143777691D01*
X79162500Y-143756250D01*
X79162500Y-143243750D01*
X79163553Y-143222309D01*
X79166703Y-143201074D01*
X79171919Y-143180250D01*
X79179151Y-143160038D01*
X79188330Y-143140632D01*
X79199366Y-143122219D01*
X79212154Y-143104976D01*
X79226570Y-143089070D01*
X79242476Y-143074654D01*
X79259719Y-143061866D01*
X79278132Y-143050830D01*
X79297538Y-143041651D01*
X79317750Y-143034419D01*
X79338574Y-143029203D01*
X79359809Y-143026053D01*
X79381250Y-143025000D01*
X79818750Y-143025000D01*
X79840191Y-143026053D01*
X79840191Y-143026053D01*
G37*
D19*
X79600000Y-143500000D03*
D13*
G36*
X79840191Y-144626053D02*
G01*
X79861426Y-144629203D01*
X79882250Y-144634419D01*
X79902462Y-144641651D01*
X79921868Y-144650830D01*
X79940281Y-144661866D01*
X79957524Y-144674654D01*
X79973430Y-144689070D01*
X79987846Y-144704976D01*
X80000634Y-144722219D01*
X80011670Y-144740632D01*
X80020849Y-144760038D01*
X80028081Y-144780250D01*
X80033297Y-144801074D01*
X80036447Y-144822309D01*
X80037500Y-144843750D01*
X80037500Y-145356250D01*
X80036447Y-145377691D01*
X80033297Y-145398926D01*
X80028081Y-145419750D01*
X80020849Y-145439962D01*
X80011670Y-145459368D01*
X80000634Y-145477781D01*
X79987846Y-145495024D01*
X79973430Y-145510930D01*
X79957524Y-145525346D01*
X79940281Y-145538134D01*
X79921868Y-145549170D01*
X79902462Y-145558349D01*
X79882250Y-145565581D01*
X79861426Y-145570797D01*
X79840191Y-145573947D01*
X79818750Y-145575000D01*
X79381250Y-145575000D01*
X79359809Y-145573947D01*
X79338574Y-145570797D01*
X79317750Y-145565581D01*
X79297538Y-145558349D01*
X79278132Y-145549170D01*
X79259719Y-145538134D01*
X79242476Y-145525346D01*
X79226570Y-145510930D01*
X79212154Y-145495024D01*
X79199366Y-145477781D01*
X79188330Y-145459368D01*
X79179151Y-145439962D01*
X79171919Y-145419750D01*
X79166703Y-145398926D01*
X79163553Y-145377691D01*
X79162500Y-145356250D01*
X79162500Y-144843750D01*
X79163553Y-144822309D01*
X79166703Y-144801074D01*
X79171919Y-144780250D01*
X79179151Y-144760038D01*
X79188330Y-144740632D01*
X79199366Y-144722219D01*
X79212154Y-144704976D01*
X79226570Y-144689070D01*
X79242476Y-144674654D01*
X79259719Y-144661866D01*
X79278132Y-144650830D01*
X79297538Y-144641651D01*
X79317750Y-144634419D01*
X79338574Y-144629203D01*
X79359809Y-144626053D01*
X79381250Y-144625000D01*
X79818750Y-144625000D01*
X79840191Y-144626053D01*
X79840191Y-144626053D01*
G37*
D19*
X79600000Y-145100000D03*
D13*
G36*
X78265191Y-144626053D02*
G01*
X78286426Y-144629203D01*
X78307250Y-144634419D01*
X78327462Y-144641651D01*
X78346868Y-144650830D01*
X78365281Y-144661866D01*
X78382524Y-144674654D01*
X78398430Y-144689070D01*
X78412846Y-144704976D01*
X78425634Y-144722219D01*
X78436670Y-144740632D01*
X78445849Y-144760038D01*
X78453081Y-144780250D01*
X78458297Y-144801074D01*
X78461447Y-144822309D01*
X78462500Y-144843750D01*
X78462500Y-145356250D01*
X78461447Y-145377691D01*
X78458297Y-145398926D01*
X78453081Y-145419750D01*
X78445849Y-145439962D01*
X78436670Y-145459368D01*
X78425634Y-145477781D01*
X78412846Y-145495024D01*
X78398430Y-145510930D01*
X78382524Y-145525346D01*
X78365281Y-145538134D01*
X78346868Y-145549170D01*
X78327462Y-145558349D01*
X78307250Y-145565581D01*
X78286426Y-145570797D01*
X78265191Y-145573947D01*
X78243750Y-145575000D01*
X77806250Y-145575000D01*
X77784809Y-145573947D01*
X77763574Y-145570797D01*
X77742750Y-145565581D01*
X77722538Y-145558349D01*
X77703132Y-145549170D01*
X77684719Y-145538134D01*
X77667476Y-145525346D01*
X77651570Y-145510930D01*
X77637154Y-145495024D01*
X77624366Y-145477781D01*
X77613330Y-145459368D01*
X77604151Y-145439962D01*
X77596919Y-145419750D01*
X77591703Y-145398926D01*
X77588553Y-145377691D01*
X77587500Y-145356250D01*
X77587500Y-144843750D01*
X77588553Y-144822309D01*
X77591703Y-144801074D01*
X77596919Y-144780250D01*
X77604151Y-144760038D01*
X77613330Y-144740632D01*
X77624366Y-144722219D01*
X77637154Y-144704976D01*
X77651570Y-144689070D01*
X77667476Y-144674654D01*
X77684719Y-144661866D01*
X77703132Y-144650830D01*
X77722538Y-144641651D01*
X77742750Y-144634419D01*
X77763574Y-144629203D01*
X77784809Y-144626053D01*
X77806250Y-144625000D01*
X78243750Y-144625000D01*
X78265191Y-144626053D01*
X78265191Y-144626053D01*
G37*
D19*
X78025000Y-145100000D03*
D13*
G36*
X63077691Y-127276053D02*
G01*
X63098926Y-127279203D01*
X63119750Y-127284419D01*
X63139962Y-127291651D01*
X63159368Y-127300830D01*
X63177781Y-127311866D01*
X63195024Y-127324654D01*
X63210930Y-127339070D01*
X63225346Y-127354976D01*
X63238134Y-127372219D01*
X63249170Y-127390632D01*
X63258349Y-127410038D01*
X63265581Y-127430250D01*
X63270797Y-127451074D01*
X63273947Y-127472309D01*
X63275000Y-127493750D01*
X63275000Y-127931250D01*
X63273947Y-127952691D01*
X63270797Y-127973926D01*
X63265581Y-127994750D01*
X63258349Y-128014962D01*
X63249170Y-128034368D01*
X63238134Y-128052781D01*
X63225346Y-128070024D01*
X63210930Y-128085930D01*
X63195024Y-128100346D01*
X63177781Y-128113134D01*
X63159368Y-128124170D01*
X63139962Y-128133349D01*
X63119750Y-128140581D01*
X63098926Y-128145797D01*
X63077691Y-128148947D01*
X63056250Y-128150000D01*
X62543750Y-128150000D01*
X62522309Y-128148947D01*
X62501074Y-128145797D01*
X62480250Y-128140581D01*
X62460038Y-128133349D01*
X62440632Y-128124170D01*
X62422219Y-128113134D01*
X62404976Y-128100346D01*
X62389070Y-128085930D01*
X62374654Y-128070024D01*
X62361866Y-128052781D01*
X62350830Y-128034368D01*
X62341651Y-128014962D01*
X62334419Y-127994750D01*
X62329203Y-127973926D01*
X62326053Y-127952691D01*
X62325000Y-127931250D01*
X62325000Y-127493750D01*
X62326053Y-127472309D01*
X62329203Y-127451074D01*
X62334419Y-127430250D01*
X62341651Y-127410038D01*
X62350830Y-127390632D01*
X62361866Y-127372219D01*
X62374654Y-127354976D01*
X62389070Y-127339070D01*
X62404976Y-127324654D01*
X62422219Y-127311866D01*
X62440632Y-127300830D01*
X62460038Y-127291651D01*
X62480250Y-127284419D01*
X62501074Y-127279203D01*
X62522309Y-127276053D01*
X62543750Y-127275000D01*
X63056250Y-127275000D01*
X63077691Y-127276053D01*
X63077691Y-127276053D01*
G37*
D19*
X62800000Y-127712500D03*
D13*
G36*
X63077691Y-128851053D02*
G01*
X63098926Y-128854203D01*
X63119750Y-128859419D01*
X63139962Y-128866651D01*
X63159368Y-128875830D01*
X63177781Y-128886866D01*
X63195024Y-128899654D01*
X63210930Y-128914070D01*
X63225346Y-128929976D01*
X63238134Y-128947219D01*
X63249170Y-128965632D01*
X63258349Y-128985038D01*
X63265581Y-129005250D01*
X63270797Y-129026074D01*
X63273947Y-129047309D01*
X63275000Y-129068750D01*
X63275000Y-129506250D01*
X63273947Y-129527691D01*
X63270797Y-129548926D01*
X63265581Y-129569750D01*
X63258349Y-129589962D01*
X63249170Y-129609368D01*
X63238134Y-129627781D01*
X63225346Y-129645024D01*
X63210930Y-129660930D01*
X63195024Y-129675346D01*
X63177781Y-129688134D01*
X63159368Y-129699170D01*
X63139962Y-129708349D01*
X63119750Y-129715581D01*
X63098926Y-129720797D01*
X63077691Y-129723947D01*
X63056250Y-129725000D01*
X62543750Y-129725000D01*
X62522309Y-129723947D01*
X62501074Y-129720797D01*
X62480250Y-129715581D01*
X62460038Y-129708349D01*
X62440632Y-129699170D01*
X62422219Y-129688134D01*
X62404976Y-129675346D01*
X62389070Y-129660930D01*
X62374654Y-129645024D01*
X62361866Y-129627781D01*
X62350830Y-129609368D01*
X62341651Y-129589962D01*
X62334419Y-129569750D01*
X62329203Y-129548926D01*
X62326053Y-129527691D01*
X62325000Y-129506250D01*
X62325000Y-129068750D01*
X62326053Y-129047309D01*
X62329203Y-129026074D01*
X62334419Y-129005250D01*
X62341651Y-128985038D01*
X62350830Y-128965632D01*
X62361866Y-128947219D01*
X62374654Y-128929976D01*
X62389070Y-128914070D01*
X62404976Y-128899654D01*
X62422219Y-128886866D01*
X62440632Y-128875830D01*
X62460038Y-128866651D01*
X62480250Y-128859419D01*
X62501074Y-128854203D01*
X62522309Y-128851053D01*
X62543750Y-128850000D01*
X63056250Y-128850000D01*
X63077691Y-128851053D01*
X63077691Y-128851053D01*
G37*
D19*
X62800000Y-129287500D03*
D13*
G36*
X63077691Y-131838553D02*
G01*
X63098926Y-131841703D01*
X63119750Y-131846919D01*
X63139962Y-131854151D01*
X63159368Y-131863330D01*
X63177781Y-131874366D01*
X63195024Y-131887154D01*
X63210930Y-131901570D01*
X63225346Y-131917476D01*
X63238134Y-131934719D01*
X63249170Y-131953132D01*
X63258349Y-131972538D01*
X63265581Y-131992750D01*
X63270797Y-132013574D01*
X63273947Y-132034809D01*
X63275000Y-132056250D01*
X63275000Y-132493750D01*
X63273947Y-132515191D01*
X63270797Y-132536426D01*
X63265581Y-132557250D01*
X63258349Y-132577462D01*
X63249170Y-132596868D01*
X63238134Y-132615281D01*
X63225346Y-132632524D01*
X63210930Y-132648430D01*
X63195024Y-132662846D01*
X63177781Y-132675634D01*
X63159368Y-132686670D01*
X63139962Y-132695849D01*
X63119750Y-132703081D01*
X63098926Y-132708297D01*
X63077691Y-132711447D01*
X63056250Y-132712500D01*
X62543750Y-132712500D01*
X62522309Y-132711447D01*
X62501074Y-132708297D01*
X62480250Y-132703081D01*
X62460038Y-132695849D01*
X62440632Y-132686670D01*
X62422219Y-132675634D01*
X62404976Y-132662846D01*
X62389070Y-132648430D01*
X62374654Y-132632524D01*
X62361866Y-132615281D01*
X62350830Y-132596868D01*
X62341651Y-132577462D01*
X62334419Y-132557250D01*
X62329203Y-132536426D01*
X62326053Y-132515191D01*
X62325000Y-132493750D01*
X62325000Y-132056250D01*
X62326053Y-132034809D01*
X62329203Y-132013574D01*
X62334419Y-131992750D01*
X62341651Y-131972538D01*
X62350830Y-131953132D01*
X62361866Y-131934719D01*
X62374654Y-131917476D01*
X62389070Y-131901570D01*
X62404976Y-131887154D01*
X62422219Y-131874366D01*
X62440632Y-131863330D01*
X62460038Y-131854151D01*
X62480250Y-131846919D01*
X62501074Y-131841703D01*
X62522309Y-131838553D01*
X62543750Y-131837500D01*
X63056250Y-131837500D01*
X63077691Y-131838553D01*
X63077691Y-131838553D01*
G37*
D19*
X62800000Y-132275000D03*
D13*
G36*
X63077691Y-130263553D02*
G01*
X63098926Y-130266703D01*
X63119750Y-130271919D01*
X63139962Y-130279151D01*
X63159368Y-130288330D01*
X63177781Y-130299366D01*
X63195024Y-130312154D01*
X63210930Y-130326570D01*
X63225346Y-130342476D01*
X63238134Y-130359719D01*
X63249170Y-130378132D01*
X63258349Y-130397538D01*
X63265581Y-130417750D01*
X63270797Y-130438574D01*
X63273947Y-130459809D01*
X63275000Y-130481250D01*
X63275000Y-130918750D01*
X63273947Y-130940191D01*
X63270797Y-130961426D01*
X63265581Y-130982250D01*
X63258349Y-131002462D01*
X63249170Y-131021868D01*
X63238134Y-131040281D01*
X63225346Y-131057524D01*
X63210930Y-131073430D01*
X63195024Y-131087846D01*
X63177781Y-131100634D01*
X63159368Y-131111670D01*
X63139962Y-131120849D01*
X63119750Y-131128081D01*
X63098926Y-131133297D01*
X63077691Y-131136447D01*
X63056250Y-131137500D01*
X62543750Y-131137500D01*
X62522309Y-131136447D01*
X62501074Y-131133297D01*
X62480250Y-131128081D01*
X62460038Y-131120849D01*
X62440632Y-131111670D01*
X62422219Y-131100634D01*
X62404976Y-131087846D01*
X62389070Y-131073430D01*
X62374654Y-131057524D01*
X62361866Y-131040281D01*
X62350830Y-131021868D01*
X62341651Y-131002462D01*
X62334419Y-130982250D01*
X62329203Y-130961426D01*
X62326053Y-130940191D01*
X62325000Y-130918750D01*
X62325000Y-130481250D01*
X62326053Y-130459809D01*
X62329203Y-130438574D01*
X62334419Y-130417750D01*
X62341651Y-130397538D01*
X62350830Y-130378132D01*
X62361866Y-130359719D01*
X62374654Y-130342476D01*
X62389070Y-130326570D01*
X62404976Y-130312154D01*
X62422219Y-130299366D01*
X62440632Y-130288330D01*
X62460038Y-130279151D01*
X62480250Y-130271919D01*
X62501074Y-130266703D01*
X62522309Y-130263553D01*
X62543750Y-130262500D01*
X63056250Y-130262500D01*
X63077691Y-130263553D01*
X63077691Y-130263553D01*
G37*
D19*
X62800000Y-130700000D03*
D13*
G36*
X88577691Y-112276053D02*
G01*
X88598926Y-112279203D01*
X88619750Y-112284419D01*
X88639962Y-112291651D01*
X88659368Y-112300830D01*
X88677781Y-112311866D01*
X88695024Y-112324654D01*
X88710930Y-112339070D01*
X88725346Y-112354976D01*
X88738134Y-112372219D01*
X88749170Y-112390632D01*
X88758349Y-112410038D01*
X88765581Y-112430250D01*
X88770797Y-112451074D01*
X88773947Y-112472309D01*
X88775000Y-112493750D01*
X88775000Y-112931250D01*
X88773947Y-112952691D01*
X88770797Y-112973926D01*
X88765581Y-112994750D01*
X88758349Y-113014962D01*
X88749170Y-113034368D01*
X88738134Y-113052781D01*
X88725346Y-113070024D01*
X88710930Y-113085930D01*
X88695024Y-113100346D01*
X88677781Y-113113134D01*
X88659368Y-113124170D01*
X88639962Y-113133349D01*
X88619750Y-113140581D01*
X88598926Y-113145797D01*
X88577691Y-113148947D01*
X88556250Y-113150000D01*
X88043750Y-113150000D01*
X88022309Y-113148947D01*
X88001074Y-113145797D01*
X87980250Y-113140581D01*
X87960038Y-113133349D01*
X87940632Y-113124170D01*
X87922219Y-113113134D01*
X87904976Y-113100346D01*
X87889070Y-113085930D01*
X87874654Y-113070024D01*
X87861866Y-113052781D01*
X87850830Y-113034368D01*
X87841651Y-113014962D01*
X87834419Y-112994750D01*
X87829203Y-112973926D01*
X87826053Y-112952691D01*
X87825000Y-112931250D01*
X87825000Y-112493750D01*
X87826053Y-112472309D01*
X87829203Y-112451074D01*
X87834419Y-112430250D01*
X87841651Y-112410038D01*
X87850830Y-112390632D01*
X87861866Y-112372219D01*
X87874654Y-112354976D01*
X87889070Y-112339070D01*
X87904976Y-112324654D01*
X87922219Y-112311866D01*
X87940632Y-112300830D01*
X87960038Y-112291651D01*
X87980250Y-112284419D01*
X88001074Y-112279203D01*
X88022309Y-112276053D01*
X88043750Y-112275000D01*
X88556250Y-112275000D01*
X88577691Y-112276053D01*
X88577691Y-112276053D01*
G37*
D19*
X88300000Y-112712500D03*
D13*
G36*
X88577691Y-113851053D02*
G01*
X88598926Y-113854203D01*
X88619750Y-113859419D01*
X88639962Y-113866651D01*
X88659368Y-113875830D01*
X88677781Y-113886866D01*
X88695024Y-113899654D01*
X88710930Y-113914070D01*
X88725346Y-113929976D01*
X88738134Y-113947219D01*
X88749170Y-113965632D01*
X88758349Y-113985038D01*
X88765581Y-114005250D01*
X88770797Y-114026074D01*
X88773947Y-114047309D01*
X88775000Y-114068750D01*
X88775000Y-114506250D01*
X88773947Y-114527691D01*
X88770797Y-114548926D01*
X88765581Y-114569750D01*
X88758349Y-114589962D01*
X88749170Y-114609368D01*
X88738134Y-114627781D01*
X88725346Y-114645024D01*
X88710930Y-114660930D01*
X88695024Y-114675346D01*
X88677781Y-114688134D01*
X88659368Y-114699170D01*
X88639962Y-114708349D01*
X88619750Y-114715581D01*
X88598926Y-114720797D01*
X88577691Y-114723947D01*
X88556250Y-114725000D01*
X88043750Y-114725000D01*
X88022309Y-114723947D01*
X88001074Y-114720797D01*
X87980250Y-114715581D01*
X87960038Y-114708349D01*
X87940632Y-114699170D01*
X87922219Y-114688134D01*
X87904976Y-114675346D01*
X87889070Y-114660930D01*
X87874654Y-114645024D01*
X87861866Y-114627781D01*
X87850830Y-114609368D01*
X87841651Y-114589962D01*
X87834419Y-114569750D01*
X87829203Y-114548926D01*
X87826053Y-114527691D01*
X87825000Y-114506250D01*
X87825000Y-114068750D01*
X87826053Y-114047309D01*
X87829203Y-114026074D01*
X87834419Y-114005250D01*
X87841651Y-113985038D01*
X87850830Y-113965632D01*
X87861866Y-113947219D01*
X87874654Y-113929976D01*
X87889070Y-113914070D01*
X87904976Y-113899654D01*
X87922219Y-113886866D01*
X87940632Y-113875830D01*
X87960038Y-113866651D01*
X87980250Y-113859419D01*
X88001074Y-113854203D01*
X88022309Y-113851053D01*
X88043750Y-113850000D01*
X88556250Y-113850000D01*
X88577691Y-113851053D01*
X88577691Y-113851053D01*
G37*
D19*
X88300000Y-114287500D03*
D13*
G36*
X71550191Y-147436053D02*
G01*
X71571426Y-147439203D01*
X71592250Y-147444419D01*
X71612462Y-147451651D01*
X71631868Y-147460830D01*
X71650281Y-147471866D01*
X71667524Y-147484654D01*
X71683430Y-147499070D01*
X71697846Y-147514976D01*
X71710634Y-147532219D01*
X71721670Y-147550632D01*
X71730849Y-147570038D01*
X71738081Y-147590250D01*
X71743297Y-147611074D01*
X71746447Y-147632309D01*
X71747500Y-147653750D01*
X71747500Y-148166250D01*
X71746447Y-148187691D01*
X71743297Y-148208926D01*
X71738081Y-148229750D01*
X71730849Y-148249962D01*
X71721670Y-148269368D01*
X71710634Y-148287781D01*
X71697846Y-148305024D01*
X71683430Y-148320930D01*
X71667524Y-148335346D01*
X71650281Y-148348134D01*
X71631868Y-148359170D01*
X71612462Y-148368349D01*
X71592250Y-148375581D01*
X71571426Y-148380797D01*
X71550191Y-148383947D01*
X71528750Y-148385000D01*
X71091250Y-148385000D01*
X71069809Y-148383947D01*
X71048574Y-148380797D01*
X71027750Y-148375581D01*
X71007538Y-148368349D01*
X70988132Y-148359170D01*
X70969719Y-148348134D01*
X70952476Y-148335346D01*
X70936570Y-148320930D01*
X70922154Y-148305024D01*
X70909366Y-148287781D01*
X70898330Y-148269368D01*
X70889151Y-148249962D01*
X70881919Y-148229750D01*
X70876703Y-148208926D01*
X70873553Y-148187691D01*
X70872500Y-148166250D01*
X70872500Y-147653750D01*
X70873553Y-147632309D01*
X70876703Y-147611074D01*
X70881919Y-147590250D01*
X70889151Y-147570038D01*
X70898330Y-147550632D01*
X70909366Y-147532219D01*
X70922154Y-147514976D01*
X70936570Y-147499070D01*
X70952476Y-147484654D01*
X70969719Y-147471866D01*
X70988132Y-147460830D01*
X71007538Y-147451651D01*
X71027750Y-147444419D01*
X71048574Y-147439203D01*
X71069809Y-147436053D01*
X71091250Y-147435000D01*
X71528750Y-147435000D01*
X71550191Y-147436053D01*
X71550191Y-147436053D01*
G37*
D19*
X71310000Y-147910000D03*
D13*
G36*
X69975191Y-147436053D02*
G01*
X69996426Y-147439203D01*
X70017250Y-147444419D01*
X70037462Y-147451651D01*
X70056868Y-147460830D01*
X70075281Y-147471866D01*
X70092524Y-147484654D01*
X70108430Y-147499070D01*
X70122846Y-147514976D01*
X70135634Y-147532219D01*
X70146670Y-147550632D01*
X70155849Y-147570038D01*
X70163081Y-147590250D01*
X70168297Y-147611074D01*
X70171447Y-147632309D01*
X70172500Y-147653750D01*
X70172500Y-148166250D01*
X70171447Y-148187691D01*
X70168297Y-148208926D01*
X70163081Y-148229750D01*
X70155849Y-148249962D01*
X70146670Y-148269368D01*
X70135634Y-148287781D01*
X70122846Y-148305024D01*
X70108430Y-148320930D01*
X70092524Y-148335346D01*
X70075281Y-148348134D01*
X70056868Y-148359170D01*
X70037462Y-148368349D01*
X70017250Y-148375581D01*
X69996426Y-148380797D01*
X69975191Y-148383947D01*
X69953750Y-148385000D01*
X69516250Y-148385000D01*
X69494809Y-148383947D01*
X69473574Y-148380797D01*
X69452750Y-148375581D01*
X69432538Y-148368349D01*
X69413132Y-148359170D01*
X69394719Y-148348134D01*
X69377476Y-148335346D01*
X69361570Y-148320930D01*
X69347154Y-148305024D01*
X69334366Y-148287781D01*
X69323330Y-148269368D01*
X69314151Y-148249962D01*
X69306919Y-148229750D01*
X69301703Y-148208926D01*
X69298553Y-148187691D01*
X69297500Y-148166250D01*
X69297500Y-147653750D01*
X69298553Y-147632309D01*
X69301703Y-147611074D01*
X69306919Y-147590250D01*
X69314151Y-147570038D01*
X69323330Y-147550632D01*
X69334366Y-147532219D01*
X69347154Y-147514976D01*
X69361570Y-147499070D01*
X69377476Y-147484654D01*
X69394719Y-147471866D01*
X69413132Y-147460830D01*
X69432538Y-147451651D01*
X69452750Y-147444419D01*
X69473574Y-147439203D01*
X69494809Y-147436053D01*
X69516250Y-147435000D01*
X69953750Y-147435000D01*
X69975191Y-147436053D01*
X69975191Y-147436053D01*
G37*
D19*
X69735000Y-147910000D03*
D13*
G36*
X81477691Y-144776053D02*
G01*
X81498926Y-144779203D01*
X81519750Y-144784419D01*
X81539962Y-144791651D01*
X81559368Y-144800830D01*
X81577781Y-144811866D01*
X81595024Y-144824654D01*
X81610930Y-144839070D01*
X81625346Y-144854976D01*
X81638134Y-144872219D01*
X81649170Y-144890632D01*
X81658349Y-144910038D01*
X81665581Y-144930250D01*
X81670797Y-144951074D01*
X81673947Y-144972309D01*
X81675000Y-144993750D01*
X81675000Y-145431250D01*
X81673947Y-145452691D01*
X81670797Y-145473926D01*
X81665581Y-145494750D01*
X81658349Y-145514962D01*
X81649170Y-145534368D01*
X81638134Y-145552781D01*
X81625346Y-145570024D01*
X81610930Y-145585930D01*
X81595024Y-145600346D01*
X81577781Y-145613134D01*
X81559368Y-145624170D01*
X81539962Y-145633349D01*
X81519750Y-145640581D01*
X81498926Y-145645797D01*
X81477691Y-145648947D01*
X81456250Y-145650000D01*
X80943750Y-145650000D01*
X80922309Y-145648947D01*
X80901074Y-145645797D01*
X80880250Y-145640581D01*
X80860038Y-145633349D01*
X80840632Y-145624170D01*
X80822219Y-145613134D01*
X80804976Y-145600346D01*
X80789070Y-145585930D01*
X80774654Y-145570024D01*
X80761866Y-145552781D01*
X80750830Y-145534368D01*
X80741651Y-145514962D01*
X80734419Y-145494750D01*
X80729203Y-145473926D01*
X80726053Y-145452691D01*
X80725000Y-145431250D01*
X80725000Y-144993750D01*
X80726053Y-144972309D01*
X80729203Y-144951074D01*
X80734419Y-144930250D01*
X80741651Y-144910038D01*
X80750830Y-144890632D01*
X80761866Y-144872219D01*
X80774654Y-144854976D01*
X80789070Y-144839070D01*
X80804976Y-144824654D01*
X80822219Y-144811866D01*
X80840632Y-144800830D01*
X80860038Y-144791651D01*
X80880250Y-144784419D01*
X80901074Y-144779203D01*
X80922309Y-144776053D01*
X80943750Y-144775000D01*
X81456250Y-144775000D01*
X81477691Y-144776053D01*
X81477691Y-144776053D01*
G37*
D19*
X81200000Y-145212500D03*
D13*
G36*
X81477691Y-146351053D02*
G01*
X81498926Y-146354203D01*
X81519750Y-146359419D01*
X81539962Y-146366651D01*
X81559368Y-146375830D01*
X81577781Y-146386866D01*
X81595024Y-146399654D01*
X81610930Y-146414070D01*
X81625346Y-146429976D01*
X81638134Y-146447219D01*
X81649170Y-146465632D01*
X81658349Y-146485038D01*
X81665581Y-146505250D01*
X81670797Y-146526074D01*
X81673947Y-146547309D01*
X81675000Y-146568750D01*
X81675000Y-147006250D01*
X81673947Y-147027691D01*
X81670797Y-147048926D01*
X81665581Y-147069750D01*
X81658349Y-147089962D01*
X81649170Y-147109368D01*
X81638134Y-147127781D01*
X81625346Y-147145024D01*
X81610930Y-147160930D01*
X81595024Y-147175346D01*
X81577781Y-147188134D01*
X81559368Y-147199170D01*
X81539962Y-147208349D01*
X81519750Y-147215581D01*
X81498926Y-147220797D01*
X81477691Y-147223947D01*
X81456250Y-147225000D01*
X80943750Y-147225000D01*
X80922309Y-147223947D01*
X80901074Y-147220797D01*
X80880250Y-147215581D01*
X80860038Y-147208349D01*
X80840632Y-147199170D01*
X80822219Y-147188134D01*
X80804976Y-147175346D01*
X80789070Y-147160930D01*
X80774654Y-147145024D01*
X80761866Y-147127781D01*
X80750830Y-147109368D01*
X80741651Y-147089962D01*
X80734419Y-147069750D01*
X80729203Y-147048926D01*
X80726053Y-147027691D01*
X80725000Y-147006250D01*
X80725000Y-146568750D01*
X80726053Y-146547309D01*
X80729203Y-146526074D01*
X80734419Y-146505250D01*
X80741651Y-146485038D01*
X80750830Y-146465632D01*
X80761866Y-146447219D01*
X80774654Y-146429976D01*
X80789070Y-146414070D01*
X80804976Y-146399654D01*
X80822219Y-146386866D01*
X80840632Y-146375830D01*
X80860038Y-146366651D01*
X80880250Y-146359419D01*
X80901074Y-146354203D01*
X80922309Y-146351053D01*
X80943750Y-146350000D01*
X81456250Y-146350000D01*
X81477691Y-146351053D01*
X81477691Y-146351053D01*
G37*
D19*
X81200000Y-146787500D03*
D13*
G36*
X94752691Y-141226053D02*
G01*
X94773926Y-141229203D01*
X94794750Y-141234419D01*
X94814962Y-141241651D01*
X94834368Y-141250830D01*
X94852781Y-141261866D01*
X94870024Y-141274654D01*
X94885930Y-141289070D01*
X94900346Y-141304976D01*
X94913134Y-141322219D01*
X94924170Y-141340632D01*
X94933349Y-141360038D01*
X94940581Y-141380250D01*
X94945797Y-141401074D01*
X94948947Y-141422309D01*
X94950000Y-141443750D01*
X94950000Y-141956250D01*
X94948947Y-141977691D01*
X94945797Y-141998926D01*
X94940581Y-142019750D01*
X94933349Y-142039962D01*
X94924170Y-142059368D01*
X94913134Y-142077781D01*
X94900346Y-142095024D01*
X94885930Y-142110930D01*
X94870024Y-142125346D01*
X94852781Y-142138134D01*
X94834368Y-142149170D01*
X94814962Y-142158349D01*
X94794750Y-142165581D01*
X94773926Y-142170797D01*
X94752691Y-142173947D01*
X94731250Y-142175000D01*
X94293750Y-142175000D01*
X94272309Y-142173947D01*
X94251074Y-142170797D01*
X94230250Y-142165581D01*
X94210038Y-142158349D01*
X94190632Y-142149170D01*
X94172219Y-142138134D01*
X94154976Y-142125346D01*
X94139070Y-142110930D01*
X94124654Y-142095024D01*
X94111866Y-142077781D01*
X94100830Y-142059368D01*
X94091651Y-142039962D01*
X94084419Y-142019750D01*
X94079203Y-141998926D01*
X94076053Y-141977691D01*
X94075000Y-141956250D01*
X94075000Y-141443750D01*
X94076053Y-141422309D01*
X94079203Y-141401074D01*
X94084419Y-141380250D01*
X94091651Y-141360038D01*
X94100830Y-141340632D01*
X94111866Y-141322219D01*
X94124654Y-141304976D01*
X94139070Y-141289070D01*
X94154976Y-141274654D01*
X94172219Y-141261866D01*
X94190632Y-141250830D01*
X94210038Y-141241651D01*
X94230250Y-141234419D01*
X94251074Y-141229203D01*
X94272309Y-141226053D01*
X94293750Y-141225000D01*
X94731250Y-141225000D01*
X94752691Y-141226053D01*
X94752691Y-141226053D01*
G37*
D19*
X94512500Y-141700000D03*
D13*
G36*
X96327691Y-141226053D02*
G01*
X96348926Y-141229203D01*
X96369750Y-141234419D01*
X96389962Y-141241651D01*
X96409368Y-141250830D01*
X96427781Y-141261866D01*
X96445024Y-141274654D01*
X96460930Y-141289070D01*
X96475346Y-141304976D01*
X96488134Y-141322219D01*
X96499170Y-141340632D01*
X96508349Y-141360038D01*
X96515581Y-141380250D01*
X96520797Y-141401074D01*
X96523947Y-141422309D01*
X96525000Y-141443750D01*
X96525000Y-141956250D01*
X96523947Y-141977691D01*
X96520797Y-141998926D01*
X96515581Y-142019750D01*
X96508349Y-142039962D01*
X96499170Y-142059368D01*
X96488134Y-142077781D01*
X96475346Y-142095024D01*
X96460930Y-142110930D01*
X96445024Y-142125346D01*
X96427781Y-142138134D01*
X96409368Y-142149170D01*
X96389962Y-142158349D01*
X96369750Y-142165581D01*
X96348926Y-142170797D01*
X96327691Y-142173947D01*
X96306250Y-142175000D01*
X95868750Y-142175000D01*
X95847309Y-142173947D01*
X95826074Y-142170797D01*
X95805250Y-142165581D01*
X95785038Y-142158349D01*
X95765632Y-142149170D01*
X95747219Y-142138134D01*
X95729976Y-142125346D01*
X95714070Y-142110930D01*
X95699654Y-142095024D01*
X95686866Y-142077781D01*
X95675830Y-142059368D01*
X95666651Y-142039962D01*
X95659419Y-142019750D01*
X95654203Y-141998926D01*
X95651053Y-141977691D01*
X95650000Y-141956250D01*
X95650000Y-141443750D01*
X95651053Y-141422309D01*
X95654203Y-141401074D01*
X95659419Y-141380250D01*
X95666651Y-141360038D01*
X95675830Y-141340632D01*
X95686866Y-141322219D01*
X95699654Y-141304976D01*
X95714070Y-141289070D01*
X95729976Y-141274654D01*
X95747219Y-141261866D01*
X95765632Y-141250830D01*
X95785038Y-141241651D01*
X95805250Y-141234419D01*
X95826074Y-141229203D01*
X95847309Y-141226053D01*
X95868750Y-141225000D01*
X96306250Y-141225000D01*
X96327691Y-141226053D01*
X96327691Y-141226053D01*
G37*
D19*
X96087500Y-141700000D03*
D13*
G36*
X81477691Y-141463553D02*
G01*
X81498926Y-141466703D01*
X81519750Y-141471919D01*
X81539962Y-141479151D01*
X81559368Y-141488330D01*
X81577781Y-141499366D01*
X81595024Y-141512154D01*
X81610930Y-141526570D01*
X81625346Y-141542476D01*
X81638134Y-141559719D01*
X81649170Y-141578132D01*
X81658349Y-141597538D01*
X81665581Y-141617750D01*
X81670797Y-141638574D01*
X81673947Y-141659809D01*
X81675000Y-141681250D01*
X81675000Y-142118750D01*
X81673947Y-142140191D01*
X81670797Y-142161426D01*
X81665581Y-142182250D01*
X81658349Y-142202462D01*
X81649170Y-142221868D01*
X81638134Y-142240281D01*
X81625346Y-142257524D01*
X81610930Y-142273430D01*
X81595024Y-142287846D01*
X81577781Y-142300634D01*
X81559368Y-142311670D01*
X81539962Y-142320849D01*
X81519750Y-142328081D01*
X81498926Y-142333297D01*
X81477691Y-142336447D01*
X81456250Y-142337500D01*
X80943750Y-142337500D01*
X80922309Y-142336447D01*
X80901074Y-142333297D01*
X80880250Y-142328081D01*
X80860038Y-142320849D01*
X80840632Y-142311670D01*
X80822219Y-142300634D01*
X80804976Y-142287846D01*
X80789070Y-142273430D01*
X80774654Y-142257524D01*
X80761866Y-142240281D01*
X80750830Y-142221868D01*
X80741651Y-142202462D01*
X80734419Y-142182250D01*
X80729203Y-142161426D01*
X80726053Y-142140191D01*
X80725000Y-142118750D01*
X80725000Y-141681250D01*
X80726053Y-141659809D01*
X80729203Y-141638574D01*
X80734419Y-141617750D01*
X80741651Y-141597538D01*
X80750830Y-141578132D01*
X80761866Y-141559719D01*
X80774654Y-141542476D01*
X80789070Y-141526570D01*
X80804976Y-141512154D01*
X80822219Y-141499366D01*
X80840632Y-141488330D01*
X80860038Y-141479151D01*
X80880250Y-141471919D01*
X80901074Y-141466703D01*
X80922309Y-141463553D01*
X80943750Y-141462500D01*
X81456250Y-141462500D01*
X81477691Y-141463553D01*
X81477691Y-141463553D01*
G37*
D19*
X81200000Y-141900000D03*
D13*
G36*
X81477691Y-143038553D02*
G01*
X81498926Y-143041703D01*
X81519750Y-143046919D01*
X81539962Y-143054151D01*
X81559368Y-143063330D01*
X81577781Y-143074366D01*
X81595024Y-143087154D01*
X81610930Y-143101570D01*
X81625346Y-143117476D01*
X81638134Y-143134719D01*
X81649170Y-143153132D01*
X81658349Y-143172538D01*
X81665581Y-143192750D01*
X81670797Y-143213574D01*
X81673947Y-143234809D01*
X81675000Y-143256250D01*
X81675000Y-143693750D01*
X81673947Y-143715191D01*
X81670797Y-143736426D01*
X81665581Y-143757250D01*
X81658349Y-143777462D01*
X81649170Y-143796868D01*
X81638134Y-143815281D01*
X81625346Y-143832524D01*
X81610930Y-143848430D01*
X81595024Y-143862846D01*
X81577781Y-143875634D01*
X81559368Y-143886670D01*
X81539962Y-143895849D01*
X81519750Y-143903081D01*
X81498926Y-143908297D01*
X81477691Y-143911447D01*
X81456250Y-143912500D01*
X80943750Y-143912500D01*
X80922309Y-143911447D01*
X80901074Y-143908297D01*
X80880250Y-143903081D01*
X80860038Y-143895849D01*
X80840632Y-143886670D01*
X80822219Y-143875634D01*
X80804976Y-143862846D01*
X80789070Y-143848430D01*
X80774654Y-143832524D01*
X80761866Y-143815281D01*
X80750830Y-143796868D01*
X80741651Y-143777462D01*
X80734419Y-143757250D01*
X80729203Y-143736426D01*
X80726053Y-143715191D01*
X80725000Y-143693750D01*
X80725000Y-143256250D01*
X80726053Y-143234809D01*
X80729203Y-143213574D01*
X80734419Y-143192750D01*
X80741651Y-143172538D01*
X80750830Y-143153132D01*
X80761866Y-143134719D01*
X80774654Y-143117476D01*
X80789070Y-143101570D01*
X80804976Y-143087154D01*
X80822219Y-143074366D01*
X80840632Y-143063330D01*
X80860038Y-143054151D01*
X80880250Y-143046919D01*
X80901074Y-143041703D01*
X80922309Y-143038553D01*
X80943750Y-143037500D01*
X81456250Y-143037500D01*
X81477691Y-143038553D01*
X81477691Y-143038553D01*
G37*
D19*
X81200000Y-143475000D03*
D20*
X59100000Y-134700000D03*
X59100000Y-125200000D03*
D13*
G36*
X92357642Y-139901174D02*
G01*
X92381303Y-139904684D01*
X92404507Y-139910496D01*
X92427029Y-139918554D01*
X92448653Y-139928782D01*
X92469170Y-139941079D01*
X92488383Y-139955329D01*
X92506107Y-139971393D01*
X92522171Y-139989117D01*
X92536421Y-140008330D01*
X92548718Y-140028847D01*
X92558946Y-140050471D01*
X92567004Y-140072993D01*
X92572816Y-140096197D01*
X92576326Y-140119858D01*
X92577500Y-140143750D01*
X92577500Y-141056250D01*
X92576326Y-141080142D01*
X92572816Y-141103803D01*
X92567004Y-141127007D01*
X92558946Y-141149529D01*
X92548718Y-141171153D01*
X92536421Y-141191670D01*
X92522171Y-141210883D01*
X92506107Y-141228607D01*
X92488383Y-141244671D01*
X92469170Y-141258921D01*
X92448653Y-141271218D01*
X92427029Y-141281446D01*
X92404507Y-141289504D01*
X92381303Y-141295316D01*
X92357642Y-141298826D01*
X92333750Y-141300000D01*
X91846250Y-141300000D01*
X91822358Y-141298826D01*
X91798697Y-141295316D01*
X91775493Y-141289504D01*
X91752971Y-141281446D01*
X91731347Y-141271218D01*
X91710830Y-141258921D01*
X91691617Y-141244671D01*
X91673893Y-141228607D01*
X91657829Y-141210883D01*
X91643579Y-141191670D01*
X91631282Y-141171153D01*
X91621054Y-141149529D01*
X91612996Y-141127007D01*
X91607184Y-141103803D01*
X91603674Y-141080142D01*
X91602500Y-141056250D01*
X91602500Y-140143750D01*
X91603674Y-140119858D01*
X91607184Y-140096197D01*
X91612996Y-140072993D01*
X91621054Y-140050471D01*
X91631282Y-140028847D01*
X91643579Y-140008330D01*
X91657829Y-139989117D01*
X91673893Y-139971393D01*
X91691617Y-139955329D01*
X91710830Y-139941079D01*
X91731347Y-139928782D01*
X91752971Y-139918554D01*
X91775493Y-139910496D01*
X91798697Y-139904684D01*
X91822358Y-139901174D01*
X91846250Y-139900000D01*
X92333750Y-139900000D01*
X92357642Y-139901174D01*
X92357642Y-139901174D01*
G37*
D21*
X92090000Y-140600000D03*
D13*
G36*
X90482642Y-139901174D02*
G01*
X90506303Y-139904684D01*
X90529507Y-139910496D01*
X90552029Y-139918554D01*
X90573653Y-139928782D01*
X90594170Y-139941079D01*
X90613383Y-139955329D01*
X90631107Y-139971393D01*
X90647171Y-139989117D01*
X90661421Y-140008330D01*
X90673718Y-140028847D01*
X90683946Y-140050471D01*
X90692004Y-140072993D01*
X90697816Y-140096197D01*
X90701326Y-140119858D01*
X90702500Y-140143750D01*
X90702500Y-141056250D01*
X90701326Y-141080142D01*
X90697816Y-141103803D01*
X90692004Y-141127007D01*
X90683946Y-141149529D01*
X90673718Y-141171153D01*
X90661421Y-141191670D01*
X90647171Y-141210883D01*
X90631107Y-141228607D01*
X90613383Y-141244671D01*
X90594170Y-141258921D01*
X90573653Y-141271218D01*
X90552029Y-141281446D01*
X90529507Y-141289504D01*
X90506303Y-141295316D01*
X90482642Y-141298826D01*
X90458750Y-141300000D01*
X89971250Y-141300000D01*
X89947358Y-141298826D01*
X89923697Y-141295316D01*
X89900493Y-141289504D01*
X89877971Y-141281446D01*
X89856347Y-141271218D01*
X89835830Y-141258921D01*
X89816617Y-141244671D01*
X89798893Y-141228607D01*
X89782829Y-141210883D01*
X89768579Y-141191670D01*
X89756282Y-141171153D01*
X89746054Y-141149529D01*
X89737996Y-141127007D01*
X89732184Y-141103803D01*
X89728674Y-141080142D01*
X89727500Y-141056250D01*
X89727500Y-140143750D01*
X89728674Y-140119858D01*
X89732184Y-140096197D01*
X89737996Y-140072993D01*
X89746054Y-140050471D01*
X89756282Y-140028847D01*
X89768579Y-140008330D01*
X89782829Y-139989117D01*
X89798893Y-139971393D01*
X89816617Y-139955329D01*
X89835830Y-139941079D01*
X89856347Y-139928782D01*
X89877971Y-139918554D01*
X89900493Y-139910496D01*
X89923697Y-139904684D01*
X89947358Y-139901174D01*
X89971250Y-139900000D01*
X90458750Y-139900000D01*
X90482642Y-139901174D01*
X90482642Y-139901174D01*
G37*
D21*
X90215000Y-140600000D03*
D13*
G36*
X82665191Y-126726053D02*
G01*
X82686426Y-126729203D01*
X82707250Y-126734419D01*
X82727462Y-126741651D01*
X82746868Y-126750830D01*
X82765281Y-126761866D01*
X82782524Y-126774654D01*
X82798430Y-126789070D01*
X82812846Y-126804976D01*
X82825634Y-126822219D01*
X82836670Y-126840632D01*
X82845849Y-126860038D01*
X82853081Y-126880250D01*
X82858297Y-126901074D01*
X82861447Y-126922309D01*
X82862500Y-126943750D01*
X82862500Y-127456250D01*
X82861447Y-127477691D01*
X82858297Y-127498926D01*
X82853081Y-127519750D01*
X82845849Y-127539962D01*
X82836670Y-127559368D01*
X82825634Y-127577781D01*
X82812846Y-127595024D01*
X82798430Y-127610930D01*
X82782524Y-127625346D01*
X82765281Y-127638134D01*
X82746868Y-127649170D01*
X82727462Y-127658349D01*
X82707250Y-127665581D01*
X82686426Y-127670797D01*
X82665191Y-127673947D01*
X82643750Y-127675000D01*
X82206250Y-127675000D01*
X82184809Y-127673947D01*
X82163574Y-127670797D01*
X82142750Y-127665581D01*
X82122538Y-127658349D01*
X82103132Y-127649170D01*
X82084719Y-127638134D01*
X82067476Y-127625346D01*
X82051570Y-127610930D01*
X82037154Y-127595024D01*
X82024366Y-127577781D01*
X82013330Y-127559368D01*
X82004151Y-127539962D01*
X81996919Y-127519750D01*
X81991703Y-127498926D01*
X81988553Y-127477691D01*
X81987500Y-127456250D01*
X81987500Y-126943750D01*
X81988553Y-126922309D01*
X81991703Y-126901074D01*
X81996919Y-126880250D01*
X82004151Y-126860038D01*
X82013330Y-126840632D01*
X82024366Y-126822219D01*
X82037154Y-126804976D01*
X82051570Y-126789070D01*
X82067476Y-126774654D01*
X82084719Y-126761866D01*
X82103132Y-126750830D01*
X82122538Y-126741651D01*
X82142750Y-126734419D01*
X82163574Y-126729203D01*
X82184809Y-126726053D01*
X82206250Y-126725000D01*
X82643750Y-126725000D01*
X82665191Y-126726053D01*
X82665191Y-126726053D01*
G37*
D19*
X82425000Y-127200000D03*
D13*
G36*
X84240191Y-126726053D02*
G01*
X84261426Y-126729203D01*
X84282250Y-126734419D01*
X84302462Y-126741651D01*
X84321868Y-126750830D01*
X84340281Y-126761866D01*
X84357524Y-126774654D01*
X84373430Y-126789070D01*
X84387846Y-126804976D01*
X84400634Y-126822219D01*
X84411670Y-126840632D01*
X84420849Y-126860038D01*
X84428081Y-126880250D01*
X84433297Y-126901074D01*
X84436447Y-126922309D01*
X84437500Y-126943750D01*
X84437500Y-127456250D01*
X84436447Y-127477691D01*
X84433297Y-127498926D01*
X84428081Y-127519750D01*
X84420849Y-127539962D01*
X84411670Y-127559368D01*
X84400634Y-127577781D01*
X84387846Y-127595024D01*
X84373430Y-127610930D01*
X84357524Y-127625346D01*
X84340281Y-127638134D01*
X84321868Y-127649170D01*
X84302462Y-127658349D01*
X84282250Y-127665581D01*
X84261426Y-127670797D01*
X84240191Y-127673947D01*
X84218750Y-127675000D01*
X83781250Y-127675000D01*
X83759809Y-127673947D01*
X83738574Y-127670797D01*
X83717750Y-127665581D01*
X83697538Y-127658349D01*
X83678132Y-127649170D01*
X83659719Y-127638134D01*
X83642476Y-127625346D01*
X83626570Y-127610930D01*
X83612154Y-127595024D01*
X83599366Y-127577781D01*
X83588330Y-127559368D01*
X83579151Y-127539962D01*
X83571919Y-127519750D01*
X83566703Y-127498926D01*
X83563553Y-127477691D01*
X83562500Y-127456250D01*
X83562500Y-126943750D01*
X83563553Y-126922309D01*
X83566703Y-126901074D01*
X83571919Y-126880250D01*
X83579151Y-126860038D01*
X83588330Y-126840632D01*
X83599366Y-126822219D01*
X83612154Y-126804976D01*
X83626570Y-126789070D01*
X83642476Y-126774654D01*
X83659719Y-126761866D01*
X83678132Y-126750830D01*
X83697538Y-126741651D01*
X83717750Y-126734419D01*
X83738574Y-126729203D01*
X83759809Y-126726053D01*
X83781250Y-126725000D01*
X84218750Y-126725000D01*
X84240191Y-126726053D01*
X84240191Y-126726053D01*
G37*
D19*
X84000000Y-127200000D03*
D13*
G36*
X65577691Y-126276053D02*
G01*
X65598926Y-126279203D01*
X65619750Y-126284419D01*
X65639962Y-126291651D01*
X65659368Y-126300830D01*
X65677781Y-126311866D01*
X65695024Y-126324654D01*
X65710930Y-126339070D01*
X65725346Y-126354976D01*
X65738134Y-126372219D01*
X65749170Y-126390632D01*
X65758349Y-126410038D01*
X65765581Y-126430250D01*
X65770797Y-126451074D01*
X65773947Y-126472309D01*
X65775000Y-126493750D01*
X65775000Y-126931250D01*
X65773947Y-126952691D01*
X65770797Y-126973926D01*
X65765581Y-126994750D01*
X65758349Y-127014962D01*
X65749170Y-127034368D01*
X65738134Y-127052781D01*
X65725346Y-127070024D01*
X65710930Y-127085930D01*
X65695024Y-127100346D01*
X65677781Y-127113134D01*
X65659368Y-127124170D01*
X65639962Y-127133349D01*
X65619750Y-127140581D01*
X65598926Y-127145797D01*
X65577691Y-127148947D01*
X65556250Y-127150000D01*
X65043750Y-127150000D01*
X65022309Y-127148947D01*
X65001074Y-127145797D01*
X64980250Y-127140581D01*
X64960038Y-127133349D01*
X64940632Y-127124170D01*
X64922219Y-127113134D01*
X64904976Y-127100346D01*
X64889070Y-127085930D01*
X64874654Y-127070024D01*
X64861866Y-127052781D01*
X64850830Y-127034368D01*
X64841651Y-127014962D01*
X64834419Y-126994750D01*
X64829203Y-126973926D01*
X64826053Y-126952691D01*
X64825000Y-126931250D01*
X64825000Y-126493750D01*
X64826053Y-126472309D01*
X64829203Y-126451074D01*
X64834419Y-126430250D01*
X64841651Y-126410038D01*
X64850830Y-126390632D01*
X64861866Y-126372219D01*
X64874654Y-126354976D01*
X64889070Y-126339070D01*
X64904976Y-126324654D01*
X64922219Y-126311866D01*
X64940632Y-126300830D01*
X64960038Y-126291651D01*
X64980250Y-126284419D01*
X65001074Y-126279203D01*
X65022309Y-126276053D01*
X65043750Y-126275000D01*
X65556250Y-126275000D01*
X65577691Y-126276053D01*
X65577691Y-126276053D01*
G37*
D19*
X65300000Y-126712500D03*
D13*
G36*
X65577691Y-127851053D02*
G01*
X65598926Y-127854203D01*
X65619750Y-127859419D01*
X65639962Y-127866651D01*
X65659368Y-127875830D01*
X65677781Y-127886866D01*
X65695024Y-127899654D01*
X65710930Y-127914070D01*
X65725346Y-127929976D01*
X65738134Y-127947219D01*
X65749170Y-127965632D01*
X65758349Y-127985038D01*
X65765581Y-128005250D01*
X65770797Y-128026074D01*
X65773947Y-128047309D01*
X65775000Y-128068750D01*
X65775000Y-128506250D01*
X65773947Y-128527691D01*
X65770797Y-128548926D01*
X65765581Y-128569750D01*
X65758349Y-128589962D01*
X65749170Y-128609368D01*
X65738134Y-128627781D01*
X65725346Y-128645024D01*
X65710930Y-128660930D01*
X65695024Y-128675346D01*
X65677781Y-128688134D01*
X65659368Y-128699170D01*
X65639962Y-128708349D01*
X65619750Y-128715581D01*
X65598926Y-128720797D01*
X65577691Y-128723947D01*
X65556250Y-128725000D01*
X65043750Y-128725000D01*
X65022309Y-128723947D01*
X65001074Y-128720797D01*
X64980250Y-128715581D01*
X64960038Y-128708349D01*
X64940632Y-128699170D01*
X64922219Y-128688134D01*
X64904976Y-128675346D01*
X64889070Y-128660930D01*
X64874654Y-128645024D01*
X64861866Y-128627781D01*
X64850830Y-128609368D01*
X64841651Y-128589962D01*
X64834419Y-128569750D01*
X64829203Y-128548926D01*
X64826053Y-128527691D01*
X64825000Y-128506250D01*
X64825000Y-128068750D01*
X64826053Y-128047309D01*
X64829203Y-128026074D01*
X64834419Y-128005250D01*
X64841651Y-127985038D01*
X64850830Y-127965632D01*
X64861866Y-127947219D01*
X64874654Y-127929976D01*
X64889070Y-127914070D01*
X64904976Y-127899654D01*
X64922219Y-127886866D01*
X64940632Y-127875830D01*
X64960038Y-127866651D01*
X64980250Y-127859419D01*
X65001074Y-127854203D01*
X65022309Y-127851053D01*
X65043750Y-127850000D01*
X65556250Y-127850000D01*
X65577691Y-127851053D01*
X65577691Y-127851053D01*
G37*
D19*
X65300000Y-128287500D03*
D13*
G36*
X55677691Y-110263553D02*
G01*
X55698926Y-110266703D01*
X55719750Y-110271919D01*
X55739962Y-110279151D01*
X55759368Y-110288330D01*
X55777781Y-110299366D01*
X55795024Y-110312154D01*
X55810930Y-110326570D01*
X55825346Y-110342476D01*
X55838134Y-110359719D01*
X55849170Y-110378132D01*
X55858349Y-110397538D01*
X55865581Y-110417750D01*
X55870797Y-110438574D01*
X55873947Y-110459809D01*
X55875000Y-110481250D01*
X55875000Y-110918750D01*
X55873947Y-110940191D01*
X55870797Y-110961426D01*
X55865581Y-110982250D01*
X55858349Y-111002462D01*
X55849170Y-111021868D01*
X55838134Y-111040281D01*
X55825346Y-111057524D01*
X55810930Y-111073430D01*
X55795024Y-111087846D01*
X55777781Y-111100634D01*
X55759368Y-111111670D01*
X55739962Y-111120849D01*
X55719750Y-111128081D01*
X55698926Y-111133297D01*
X55677691Y-111136447D01*
X55656250Y-111137500D01*
X55143750Y-111137500D01*
X55122309Y-111136447D01*
X55101074Y-111133297D01*
X55080250Y-111128081D01*
X55060038Y-111120849D01*
X55040632Y-111111670D01*
X55022219Y-111100634D01*
X55004976Y-111087846D01*
X54989070Y-111073430D01*
X54974654Y-111057524D01*
X54961866Y-111040281D01*
X54950830Y-111021868D01*
X54941651Y-111002462D01*
X54934419Y-110982250D01*
X54929203Y-110961426D01*
X54926053Y-110940191D01*
X54925000Y-110918750D01*
X54925000Y-110481250D01*
X54926053Y-110459809D01*
X54929203Y-110438574D01*
X54934419Y-110417750D01*
X54941651Y-110397538D01*
X54950830Y-110378132D01*
X54961866Y-110359719D01*
X54974654Y-110342476D01*
X54989070Y-110326570D01*
X55004976Y-110312154D01*
X55022219Y-110299366D01*
X55040632Y-110288330D01*
X55060038Y-110279151D01*
X55080250Y-110271919D01*
X55101074Y-110266703D01*
X55122309Y-110263553D01*
X55143750Y-110262500D01*
X55656250Y-110262500D01*
X55677691Y-110263553D01*
X55677691Y-110263553D01*
G37*
D19*
X55400000Y-110700000D03*
D13*
G36*
X55677691Y-111838553D02*
G01*
X55698926Y-111841703D01*
X55719750Y-111846919D01*
X55739962Y-111854151D01*
X55759368Y-111863330D01*
X55777781Y-111874366D01*
X55795024Y-111887154D01*
X55810930Y-111901570D01*
X55825346Y-111917476D01*
X55838134Y-111934719D01*
X55849170Y-111953132D01*
X55858349Y-111972538D01*
X55865581Y-111992750D01*
X55870797Y-112013574D01*
X55873947Y-112034809D01*
X55875000Y-112056250D01*
X55875000Y-112493750D01*
X55873947Y-112515191D01*
X55870797Y-112536426D01*
X55865581Y-112557250D01*
X55858349Y-112577462D01*
X55849170Y-112596868D01*
X55838134Y-112615281D01*
X55825346Y-112632524D01*
X55810930Y-112648430D01*
X55795024Y-112662846D01*
X55777781Y-112675634D01*
X55759368Y-112686670D01*
X55739962Y-112695849D01*
X55719750Y-112703081D01*
X55698926Y-112708297D01*
X55677691Y-112711447D01*
X55656250Y-112712500D01*
X55143750Y-112712500D01*
X55122309Y-112711447D01*
X55101074Y-112708297D01*
X55080250Y-112703081D01*
X55060038Y-112695849D01*
X55040632Y-112686670D01*
X55022219Y-112675634D01*
X55004976Y-112662846D01*
X54989070Y-112648430D01*
X54974654Y-112632524D01*
X54961866Y-112615281D01*
X54950830Y-112596868D01*
X54941651Y-112577462D01*
X54934419Y-112557250D01*
X54929203Y-112536426D01*
X54926053Y-112515191D01*
X54925000Y-112493750D01*
X54925000Y-112056250D01*
X54926053Y-112034809D01*
X54929203Y-112013574D01*
X54934419Y-111992750D01*
X54941651Y-111972538D01*
X54950830Y-111953132D01*
X54961866Y-111934719D01*
X54974654Y-111917476D01*
X54989070Y-111901570D01*
X55004976Y-111887154D01*
X55022219Y-111874366D01*
X55040632Y-111863330D01*
X55060038Y-111854151D01*
X55080250Y-111846919D01*
X55101074Y-111841703D01*
X55122309Y-111838553D01*
X55143750Y-111837500D01*
X55656250Y-111837500D01*
X55677691Y-111838553D01*
X55677691Y-111838553D01*
G37*
D19*
X55400000Y-112275000D03*
D13*
G36*
X82515191Y-135626053D02*
G01*
X82536426Y-135629203D01*
X82557250Y-135634419D01*
X82577462Y-135641651D01*
X82596868Y-135650830D01*
X82615281Y-135661866D01*
X82632524Y-135674654D01*
X82648430Y-135689070D01*
X82662846Y-135704976D01*
X82675634Y-135722219D01*
X82686670Y-135740632D01*
X82695849Y-135760038D01*
X82703081Y-135780250D01*
X82708297Y-135801074D01*
X82711447Y-135822309D01*
X82712500Y-135843750D01*
X82712500Y-136356250D01*
X82711447Y-136377691D01*
X82708297Y-136398926D01*
X82703081Y-136419750D01*
X82695849Y-136439962D01*
X82686670Y-136459368D01*
X82675634Y-136477781D01*
X82662846Y-136495024D01*
X82648430Y-136510930D01*
X82632524Y-136525346D01*
X82615281Y-136538134D01*
X82596868Y-136549170D01*
X82577462Y-136558349D01*
X82557250Y-136565581D01*
X82536426Y-136570797D01*
X82515191Y-136573947D01*
X82493750Y-136575000D01*
X82056250Y-136575000D01*
X82034809Y-136573947D01*
X82013574Y-136570797D01*
X81992750Y-136565581D01*
X81972538Y-136558349D01*
X81953132Y-136549170D01*
X81934719Y-136538134D01*
X81917476Y-136525346D01*
X81901570Y-136510930D01*
X81887154Y-136495024D01*
X81874366Y-136477781D01*
X81863330Y-136459368D01*
X81854151Y-136439962D01*
X81846919Y-136419750D01*
X81841703Y-136398926D01*
X81838553Y-136377691D01*
X81837500Y-136356250D01*
X81837500Y-135843750D01*
X81838553Y-135822309D01*
X81841703Y-135801074D01*
X81846919Y-135780250D01*
X81854151Y-135760038D01*
X81863330Y-135740632D01*
X81874366Y-135722219D01*
X81887154Y-135704976D01*
X81901570Y-135689070D01*
X81917476Y-135674654D01*
X81934719Y-135661866D01*
X81953132Y-135650830D01*
X81972538Y-135641651D01*
X81992750Y-135634419D01*
X82013574Y-135629203D01*
X82034809Y-135626053D01*
X82056250Y-135625000D01*
X82493750Y-135625000D01*
X82515191Y-135626053D01*
X82515191Y-135626053D01*
G37*
D19*
X82275000Y-136100000D03*
D13*
G36*
X80940191Y-135626053D02*
G01*
X80961426Y-135629203D01*
X80982250Y-135634419D01*
X81002462Y-135641651D01*
X81021868Y-135650830D01*
X81040281Y-135661866D01*
X81057524Y-135674654D01*
X81073430Y-135689070D01*
X81087846Y-135704976D01*
X81100634Y-135722219D01*
X81111670Y-135740632D01*
X81120849Y-135760038D01*
X81128081Y-135780250D01*
X81133297Y-135801074D01*
X81136447Y-135822309D01*
X81137500Y-135843750D01*
X81137500Y-136356250D01*
X81136447Y-136377691D01*
X81133297Y-136398926D01*
X81128081Y-136419750D01*
X81120849Y-136439962D01*
X81111670Y-136459368D01*
X81100634Y-136477781D01*
X81087846Y-136495024D01*
X81073430Y-136510930D01*
X81057524Y-136525346D01*
X81040281Y-136538134D01*
X81021868Y-136549170D01*
X81002462Y-136558349D01*
X80982250Y-136565581D01*
X80961426Y-136570797D01*
X80940191Y-136573947D01*
X80918750Y-136575000D01*
X80481250Y-136575000D01*
X80459809Y-136573947D01*
X80438574Y-136570797D01*
X80417750Y-136565581D01*
X80397538Y-136558349D01*
X80378132Y-136549170D01*
X80359719Y-136538134D01*
X80342476Y-136525346D01*
X80326570Y-136510930D01*
X80312154Y-136495024D01*
X80299366Y-136477781D01*
X80288330Y-136459368D01*
X80279151Y-136439962D01*
X80271919Y-136419750D01*
X80266703Y-136398926D01*
X80263553Y-136377691D01*
X80262500Y-136356250D01*
X80262500Y-135843750D01*
X80263553Y-135822309D01*
X80266703Y-135801074D01*
X80271919Y-135780250D01*
X80279151Y-135760038D01*
X80288330Y-135740632D01*
X80299366Y-135722219D01*
X80312154Y-135704976D01*
X80326570Y-135689070D01*
X80342476Y-135674654D01*
X80359719Y-135661866D01*
X80378132Y-135650830D01*
X80397538Y-135641651D01*
X80417750Y-135634419D01*
X80438574Y-135629203D01*
X80459809Y-135626053D01*
X80481250Y-135625000D01*
X80918750Y-135625000D01*
X80940191Y-135626053D01*
X80940191Y-135626053D01*
G37*
D19*
X80700000Y-136100000D03*
D22*
X62500000Y-149400000D03*
D23*
X61800000Y-149700000D03*
X63200000Y-149700000D03*
X59500000Y-149700000D03*
X58100000Y-149700000D03*
D22*
X58800000Y-149400000D03*
D23*
X76600000Y-149800000D03*
X75200000Y-149800000D03*
D22*
X75900000Y-149500000D03*
X66300000Y-149400000D03*
D23*
X65600000Y-149700000D03*
X67000000Y-149700000D03*
D13*
G36*
X71302691Y-118256053D02*
G01*
X71323926Y-118259203D01*
X71344750Y-118264419D01*
X71364962Y-118271651D01*
X71384368Y-118280830D01*
X71402781Y-118291866D01*
X71420024Y-118304654D01*
X71435930Y-118319070D01*
X71450346Y-118334976D01*
X71463134Y-118352219D01*
X71474170Y-118370632D01*
X71483349Y-118390038D01*
X71490581Y-118410250D01*
X71495797Y-118431074D01*
X71498947Y-118452309D01*
X71500000Y-118473750D01*
X71500000Y-118986250D01*
X71498947Y-119007691D01*
X71495797Y-119028926D01*
X71490581Y-119049750D01*
X71483349Y-119069962D01*
X71474170Y-119089368D01*
X71463134Y-119107781D01*
X71450346Y-119125024D01*
X71435930Y-119140930D01*
X71420024Y-119155346D01*
X71402781Y-119168134D01*
X71384368Y-119179170D01*
X71364962Y-119188349D01*
X71344750Y-119195581D01*
X71323926Y-119200797D01*
X71302691Y-119203947D01*
X71281250Y-119205000D01*
X70843750Y-119205000D01*
X70822309Y-119203947D01*
X70801074Y-119200797D01*
X70780250Y-119195581D01*
X70760038Y-119188349D01*
X70740632Y-119179170D01*
X70722219Y-119168134D01*
X70704976Y-119155346D01*
X70689070Y-119140930D01*
X70674654Y-119125024D01*
X70661866Y-119107781D01*
X70650830Y-119089368D01*
X70641651Y-119069962D01*
X70634419Y-119049750D01*
X70629203Y-119028926D01*
X70626053Y-119007691D01*
X70625000Y-118986250D01*
X70625000Y-118473750D01*
X70626053Y-118452309D01*
X70629203Y-118431074D01*
X70634419Y-118410250D01*
X70641651Y-118390038D01*
X70650830Y-118370632D01*
X70661866Y-118352219D01*
X70674654Y-118334976D01*
X70689070Y-118319070D01*
X70704976Y-118304654D01*
X70722219Y-118291866D01*
X70740632Y-118280830D01*
X70760038Y-118271651D01*
X70780250Y-118264419D01*
X70801074Y-118259203D01*
X70822309Y-118256053D01*
X70843750Y-118255000D01*
X71281250Y-118255000D01*
X71302691Y-118256053D01*
X71302691Y-118256053D01*
G37*
D19*
X71062500Y-118730000D03*
D13*
G36*
X72877691Y-118256053D02*
G01*
X72898926Y-118259203D01*
X72919750Y-118264419D01*
X72939962Y-118271651D01*
X72959368Y-118280830D01*
X72977781Y-118291866D01*
X72995024Y-118304654D01*
X73010930Y-118319070D01*
X73025346Y-118334976D01*
X73038134Y-118352219D01*
X73049170Y-118370632D01*
X73058349Y-118390038D01*
X73065581Y-118410250D01*
X73070797Y-118431074D01*
X73073947Y-118452309D01*
X73075000Y-118473750D01*
X73075000Y-118986250D01*
X73073947Y-119007691D01*
X73070797Y-119028926D01*
X73065581Y-119049750D01*
X73058349Y-119069962D01*
X73049170Y-119089368D01*
X73038134Y-119107781D01*
X73025346Y-119125024D01*
X73010930Y-119140930D01*
X72995024Y-119155346D01*
X72977781Y-119168134D01*
X72959368Y-119179170D01*
X72939962Y-119188349D01*
X72919750Y-119195581D01*
X72898926Y-119200797D01*
X72877691Y-119203947D01*
X72856250Y-119205000D01*
X72418750Y-119205000D01*
X72397309Y-119203947D01*
X72376074Y-119200797D01*
X72355250Y-119195581D01*
X72335038Y-119188349D01*
X72315632Y-119179170D01*
X72297219Y-119168134D01*
X72279976Y-119155346D01*
X72264070Y-119140930D01*
X72249654Y-119125024D01*
X72236866Y-119107781D01*
X72225830Y-119089368D01*
X72216651Y-119069962D01*
X72209419Y-119049750D01*
X72204203Y-119028926D01*
X72201053Y-119007691D01*
X72200000Y-118986250D01*
X72200000Y-118473750D01*
X72201053Y-118452309D01*
X72204203Y-118431074D01*
X72209419Y-118410250D01*
X72216651Y-118390038D01*
X72225830Y-118370632D01*
X72236866Y-118352219D01*
X72249654Y-118334976D01*
X72264070Y-118319070D01*
X72279976Y-118304654D01*
X72297219Y-118291866D01*
X72315632Y-118280830D01*
X72335038Y-118271651D01*
X72355250Y-118264419D01*
X72376074Y-118259203D01*
X72397309Y-118256053D01*
X72418750Y-118255000D01*
X72856250Y-118255000D01*
X72877691Y-118256053D01*
X72877691Y-118256053D01*
G37*
D19*
X72637500Y-118730000D03*
D24*
X71385000Y-116034301D03*
X70115000Y-116034301D03*
X68845000Y-116034301D03*
X67575000Y-116034301D03*
X66305000Y-116034301D03*
X65035000Y-116034301D03*
X63765000Y-116034301D03*
X62495000Y-116034301D03*
X61225000Y-116034301D03*
X59955000Y-116034301D03*
X58685000Y-116034301D03*
X57415000Y-116034301D03*
X57415000Y-106565699D03*
X58685000Y-106565699D03*
X59955000Y-106565699D03*
X61225000Y-106565699D03*
X62495000Y-106565699D03*
X63765000Y-106565699D03*
X65035000Y-106565699D03*
X66305000Y-106565699D03*
X67575000Y-106565699D03*
X68845000Y-106565699D03*
X70115000Y-106565699D03*
X71385000Y-106565699D03*
M02*
