M48
; DRILL file {KiCad (5.1.4)-1} date 06/11/2020 15:37:29
; FORMAT={-:-/ absolute / inch / decimal}
; #@! TF.CreationDate,2020-11-06T15:37:29+01:00
; #@! TF.GenerationSoftware,Kicad,Pcbnew,(5.1.4)-1
FMAT,2
INCH
T1C0.0157
T2C0.0380
T3C0.0420
T4C0.0860
T5C0.1250
T6C0.0925
%
G90
G05
T1
X1.811Y-3.8189
X1.811Y-3.937
X1.811Y-4.0551
X1.811Y-4.1732
X1.811Y-4.2913
X1.811Y-4.4094
X1.811Y-4.5276
X1.811Y-4.6457
X1.811Y-4.7638
X1.811Y-4.8819
X1.811Y-5.4724
X1.811Y-5.5906
X1.811Y-5.7087
X1.811Y-5.8268
X1.9291Y-4.0551
X1.9291Y-4.1732
X1.9291Y-4.2913
X1.9291Y-4.4094
X1.9291Y-4.5276
X1.9291Y-4.6457
X1.9291Y-4.7638
X1.9291Y-4.8819
X1.9291Y-5.4724
X1.9291Y-5.5906
X1.9291Y-5.7087
X1.9291Y-5.8268
X2.0472Y-3.8189
X2.0472Y-3.937
X2.0472Y-4.0551
X2.0472Y-4.1732
X2.0472Y-4.2913
X2.0472Y-4.4094
X2.0472Y-4.5276
X2.0472Y-4.8819
X2.0472Y-5.0
X2.0472Y-5.3543
X2.0472Y-5.4724
X2.0472Y-5.5906
X2.0472Y-5.7087
X2.0472Y-5.8268
X2.1654Y-3.8189
X2.1654Y-3.937
X2.1654Y-4.0551
X2.1654Y-4.1732
X2.1654Y-4.2913
X2.1654Y-4.5276
X2.1654Y-4.8819
X2.1654Y-5.0
X2.1654Y-5.1181
X2.1654Y-5.2362
X2.1654Y-5.3543
X2.1654Y-5.4724
X2.1654Y-5.5906
X2.1654Y-5.7087
X2.1654Y-5.8268
X2.2362Y-5.8937
X2.2835Y-3.8189
X2.2835Y-3.937
X2.2835Y-4.0551
X2.2835Y-4.2913
X2.2835Y-4.4094
X2.2835Y-4.7638
X2.2835Y-5.4724
X2.2835Y-5.5906
X2.2835Y-5.7087
X2.2835Y-5.8268
X2.3177Y-4.7374
X2.3953Y-5.7165
X2.4016Y-4.2913
X2.4016Y-4.4094
X2.4016Y-5.4724
X2.4016Y-5.5906
X2.4134Y-4.7229
X2.4134Y-4.6366
X2.4213Y-4.7717
X2.465Y-4.6366
X2.465Y-4.7429
X2.4843Y-4.9567
X2.4882Y-4.8268
X2.5126Y-4.7629
X2.515Y-4.6366
X2.5197Y-4.4094
X2.5197Y-5.1181
X2.5197Y-5.2362
X2.5197Y-5.3543
X2.5197Y-5.4724
X2.5197Y-5.5906
X2.5197Y-5.7087
X2.5252Y-4.2823
X2.5346Y-5.8945
X2.5575Y-4.8146
X2.563Y-4.6366
X2.5748Y-4.8701
X2.5827Y-4.9134
X2.6146Y-4.6366
X2.6154Y-4.2941
X2.6378Y-5.2362
X2.6378Y-5.3543
X2.6378Y-5.4724
X2.6378Y-5.5906
X2.6626Y-4.6366
X2.6742Y-5.4242
X2.6742Y-5.7116
X2.6969Y-4.1331
X2.711Y-4.6366
X2.7272Y-4.9213
X2.7283Y-5.5039
X2.7283Y-5.6732
X2.7362Y-5.748
X2.739Y-5.161
X2.7559Y-4.2913
X2.7559Y-4.8819
X2.7559Y-5.0
X2.7559Y-5.1181
X2.7559Y-5.3543
X2.7709Y-5.1906
X2.7766Y-5.6348
X2.7835Y-4.1045
X2.8071Y-5.4606
X2.8104Y-4.6333
X2.8104Y-5.0356
X2.8273Y-5.7821
X2.8543Y-5.815
X2.8701Y-4.0759
X2.8724Y-5.6917
X2.874Y-4.1339
X2.874Y-4.2894
X2.874Y-4.8819
X2.874Y-5.0
X2.874Y-5.1181
X2.874Y-5.3543
X2.874Y-5.6524
X2.876Y-4.5913
X2.8976Y-5.4724
X2.9059Y-5.8945
X2.9157Y-5.6925
X2.9165Y-5.6524
X2.9213Y-5.8228
X2.9315Y-4.6402
X2.9321Y-5.3455
X2.9433Y-5.0787
X2.9528Y-4.2717
X2.9724Y-5.7925
X2.9921Y-4.0551
X2.9921Y-4.8819
X2.9921Y-5.0
X2.9921Y-5.1181
X2.9943Y-4.1041
X2.9953Y-3.8949
X3.0063Y-5.5614
X3.0118Y-5.4724
X3.0443Y-4.1156
X3.0709Y-4.2717
X3.0709Y-5.8661
X3.0949Y-4.113
X3.1004Y-5.5591
X3.1102Y-4.7165
X3.1102Y-4.811
X3.1102Y-5.315
X3.1102Y-5.4331
X3.1437Y-4.126
X3.189Y-4.2717
X3.189Y-5.8661
X3.2283Y-4.3701
X3.2283Y-4.4882
X3.2283Y-5.1575
X3.2283Y-5.4331
X3.262Y-5.6517
X3.2638Y-5.7165
X3.2677Y-5.0591
X3.2786Y-4.3035
X3.2976Y-5.4134
X3.3071Y-4.2717
X3.3071Y-4.4094
X3.3071Y-5.2362
X3.3071Y-5.3543
X3.3366Y-4.9449
X3.3661Y-5.0965
X3.3697Y-4.3291
X3.4055Y-5.126
X3.4252Y-3.8189
X3.4252Y-4.2913
X3.4252Y-4.4094
X3.4252Y-4.8819
X3.4252Y-5.2362
X3.4252Y-5.3543
X3.4252Y-5.4724
X3.4252Y-5.5906
X3.4252Y-5.8268
X3.5433Y-3.8189
X3.5433Y-3.937
X3.5433Y-4.0551
X3.5433Y-4.1732
X3.5433Y-4.2913
X3.5433Y-4.4094
X3.5433Y-4.5276
X3.5433Y-4.8819
X3.5433Y-5.0
X3.5433Y-5.1181
X3.5433Y-5.2362
X3.5433Y-5.3543
X3.5433Y-5.4724
X3.5433Y-5.5906
X3.5433Y-5.8268
X3.622Y-5.5906
X3.6614Y-3.8189
X3.6614Y-3.937
X3.6614Y-4.0551
X3.6614Y-4.1732
X3.6614Y-4.2913
X3.6614Y-4.4094
X3.6614Y-4.5276
X3.6614Y-4.8819
X3.6614Y-5.0
X3.6614Y-5.3543
X3.6614Y-5.4724
X3.6614Y-5.8268
X3.7795Y-4.0551
X3.7795Y-4.1732
X3.7795Y-4.2913
X3.7795Y-4.4094
X3.7795Y-4.5276
X3.7795Y-4.6457
X3.7795Y-4.7638
X3.7795Y-4.8819
X3.7795Y-5.7087
X3.8583Y-3.8189
X3.8976Y-3.937
X3.8976Y-4.0551
X3.8976Y-4.1732
X3.8976Y-4.2913
X3.8976Y-4.4094
X3.8976Y-4.5276
X3.8976Y-4.6457
X3.8976Y-4.7638
X3.8976Y-4.8819
X3.8976Y-5.4724
X3.8976Y-5.5906
X3.8976Y-5.7087
X3.8976Y-5.8268
T2
X3.5132Y-5.6575
X3.5132Y-5.7365
X3.6112Y-5.6575
X3.6112Y-5.7365
T3
X2.6382Y-4.4028
X2.7382Y-4.4028
X2.8382Y-4.4028
X2.9382Y-4.4028
X3.0382Y-4.4028
X3.1382Y-4.4028
X2.3585Y-3.8074
X2.3585Y-3.9764
X2.4435Y-3.8074
X2.4435Y-3.9764
X2.5285Y-3.8074
X2.5285Y-3.9764
X2.6135Y-3.8074
X2.6135Y-3.9764
X2.6985Y-3.8074
X2.6985Y-3.9764
X2.7835Y-3.8074
X2.7835Y-3.9764
X2.8685Y-3.8074
X2.8685Y-3.9764
X2.9535Y-3.8074
X2.9535Y-3.9764
X3.0385Y-3.8074
X3.0385Y-3.9764
X3.1235Y-3.8074
X3.1235Y-3.9764
X3.2085Y-3.8074
X3.2085Y-3.9764
X3.2935Y-3.8074
X3.2935Y-3.9764
T4
X3.3252Y-5.8435
X3.7992Y-5.8435
T5
X1.9045Y-3.8919
X3.7475Y-3.8919
T6
X3.5433Y-4.7047
X2.1417Y-4.7047
T0
M30
