G04 #@! TF.GenerationSoftware,KiCad,Pcbnew,(5.1.4)-1*
G04 #@! TF.CreationDate,2020-11-06T15:37:27+01:00*
G04 #@! TF.ProjectId,usb_to_gpib,7573625f-746f-45f6-9770-69622e6b6963,RevB*
G04 #@! TF.SameCoordinates,Original*
G04 #@! TF.FileFunction,Soldermask,Bot*
G04 #@! TF.FilePolarity,Negative*
%FSLAX46Y46*%
G04 Gerber Fmt 4.6, Leading zero omitted, Abs format (unit mm)*
G04 Created by KiCad (PCBNEW (5.1.4)-1) date 2020-11-06 15:37:27*
%MOMM*%
%LPD*%
G04 APERTURE LIST*
%ADD10O,5.508000X3.108000*%
%ADD11O,3.108000X5.508000*%
%ADD12C,4.008120*%
%ADD13O,2.308000X2.009140*%
%ADD14C,3.708400*%
%ADD15O,2.032000X2.908000*%
%ADD16O,2.032000X2.808000*%
%ADD17C,2.032000*%
%ADD18R,2.032000X2.032000*%
G04 APERTURE END LIST*
D10*
X90000000Y-119500000D03*
D11*
X54400000Y-119500000D03*
D12*
X96500000Y-148425400D03*
X84460400Y-148425400D03*
D13*
X89235600Y-143701000D03*
X91724800Y-143701000D03*
X91724800Y-145707600D03*
X89235600Y-145707600D03*
D14*
X48373400Y-98853700D03*
X95185600Y-98853700D03*
D15*
X83654000Y-96707400D03*
X81495000Y-96707400D03*
X79336000Y-96707400D03*
X77177000Y-96707400D03*
X83654000Y-101000000D03*
X81495000Y-101000000D03*
X79336000Y-101000000D03*
X77177000Y-101000000D03*
D16*
X59905000Y-96707400D03*
D15*
X62064000Y-96707400D03*
X64223000Y-96707400D03*
X66382000Y-96707400D03*
X59905000Y-101000000D03*
X62064000Y-101000000D03*
X64223000Y-101000000D03*
X66382000Y-101000000D03*
X75018000Y-96707400D03*
X68541000Y-96707400D03*
X70700000Y-96707400D03*
X72859000Y-96707400D03*
X70700000Y-101000000D03*
X68541000Y-101000000D03*
X75018000Y-101000000D03*
X72859000Y-101000000D03*
D17*
X79710000Y-111830000D03*
X77170000Y-111830000D03*
X74630000Y-111830000D03*
X72090000Y-111830000D03*
X69550000Y-111830000D03*
D18*
X67010000Y-111830000D03*
M02*
