G04 #@! TF.GenerationSoftware,KiCad,Pcbnew,(5.1.4)-1*
G04 #@! TF.CreationDate,2020-11-06T15:37:27+01:00*
G04 #@! TF.ProjectId,usb_to_gpib,7573625f-746f-45f6-9770-69622e6b6963,RevB*
G04 #@! TF.SameCoordinates,Original*
G04 #@! TF.FileFunction,Legend,Top*
G04 #@! TF.FilePolarity,Positive*
%FSLAX46Y46*%
G04 Gerber Fmt 4.6, Leading zero omitted, Abs format (unit mm)*
G04 Created by KiCad (PCBNEW (5.1.4)-1) date 2020-11-06 15:37:27*
%MOMM*%
%LPD*%
G04 APERTURE LIST*
%ADD10C,0.152400*%
%ADD11C,0.127000*%
%ADD12C,0.101600*%
%ADD13C,0.150000*%
%ADD14C,0.190500*%
%ADD15C,0.149860*%
%ADD16C,0.200660*%
%ADD17C,0.120000*%
%ADD18C,0.203200*%
%ADD19C,0.304800*%
%ADD20C,0.381000*%
%ADD21C,0.002540*%
%ADD22C,0.200000*%
%ADD23C,0.250000*%
%ADD24C,0.114300*%
%ADD25C,0.050000*%
G04 APERTURE END LIST*
D10*
X48933333Y-143690000D02*
X48866666Y-143647142D01*
X48766666Y-143647142D01*
X48666666Y-143690000D01*
X48600000Y-143775714D01*
X48566666Y-143861428D01*
X48533333Y-144032857D01*
X48533333Y-144161428D01*
X48566666Y-144332857D01*
X48600000Y-144418571D01*
X48666666Y-144504285D01*
X48766666Y-144547142D01*
X48833333Y-144547142D01*
X48933333Y-144504285D01*
X48966666Y-144461428D01*
X48966666Y-144161428D01*
X48833333Y-144161428D01*
X49266666Y-144547142D02*
X49266666Y-143647142D01*
X49533333Y-143647142D01*
X49600000Y-143690000D01*
X49633333Y-143732857D01*
X49666666Y-143818571D01*
X49666666Y-143947142D01*
X49633333Y-144032857D01*
X49600000Y-144075714D01*
X49533333Y-144118571D01*
X49266666Y-144118571D01*
X49966666Y-144547142D02*
X49966666Y-143647142D01*
X50533333Y-144075714D02*
X50633333Y-144118571D01*
X50666666Y-144161428D01*
X50700000Y-144247142D01*
X50700000Y-144375714D01*
X50666666Y-144461428D01*
X50633333Y-144504285D01*
X50566666Y-144547142D01*
X50300000Y-144547142D01*
X50300000Y-143647142D01*
X50533333Y-143647142D01*
X50600000Y-143690000D01*
X50633333Y-143732857D01*
X50666666Y-143818571D01*
X50666666Y-143904285D01*
X50633333Y-143990000D01*
X50600000Y-144032857D01*
X50533333Y-144075714D01*
X50300000Y-144075714D01*
X51000000Y-143647142D02*
X51000000Y-144375714D01*
X51033333Y-144461428D01*
X51066666Y-144504285D01*
X51133333Y-144547142D01*
X51266666Y-144547142D01*
X51333333Y-144504285D01*
X51366666Y-144461428D01*
X51400000Y-144375714D01*
X51400000Y-143647142D01*
X51700000Y-144504285D02*
X51800000Y-144547142D01*
X51966666Y-144547142D01*
X52033333Y-144504285D01*
X52066666Y-144461428D01*
X52100000Y-144375714D01*
X52100000Y-144290000D01*
X52066666Y-144204285D01*
X52033333Y-144161428D01*
X51966666Y-144118571D01*
X51833333Y-144075714D01*
X51766666Y-144032857D01*
X51733333Y-143990000D01*
X51700000Y-143904285D01*
X51700000Y-143818571D01*
X51733333Y-143732857D01*
X51766666Y-143690000D01*
X51833333Y-143647142D01*
X52000000Y-143647142D01*
X52100000Y-143690000D01*
X52633333Y-144075714D02*
X52733333Y-144118571D01*
X52766666Y-144161428D01*
X52800000Y-144247142D01*
X52800000Y-144375714D01*
X52766666Y-144461428D01*
X52733333Y-144504285D01*
X52666666Y-144547142D01*
X52400000Y-144547142D01*
X52400000Y-143647142D01*
X52633333Y-143647142D01*
X52700000Y-143690000D01*
X52733333Y-143732857D01*
X52766666Y-143818571D01*
X52766666Y-143904285D01*
X52733333Y-143990000D01*
X52700000Y-144032857D01*
X52633333Y-144075714D01*
X52400000Y-144075714D01*
X53600000Y-144290000D02*
X53933333Y-144290000D01*
X53533333Y-144547142D02*
X53766666Y-143647142D01*
X54000000Y-144547142D01*
X54533333Y-144547142D02*
X54533333Y-143647142D01*
X54533333Y-144504285D02*
X54466666Y-144547142D01*
X54333333Y-144547142D01*
X54266666Y-144504285D01*
X54233333Y-144461428D01*
X54200000Y-144375714D01*
X54200000Y-144118571D01*
X54233333Y-144032857D01*
X54266666Y-143990000D01*
X54333333Y-143947142D01*
X54466666Y-143947142D01*
X54533333Y-143990000D01*
X55166666Y-144547142D02*
X55166666Y-144075714D01*
X55133333Y-143990000D01*
X55066666Y-143947142D01*
X54933333Y-143947142D01*
X54866666Y-143990000D01*
X55166666Y-144504285D02*
X55100000Y-144547142D01*
X54933333Y-144547142D01*
X54866666Y-144504285D01*
X54833333Y-144418571D01*
X54833333Y-144332857D01*
X54866666Y-144247142D01*
X54933333Y-144204285D01*
X55100000Y-144204285D01*
X55166666Y-144161428D01*
X55500000Y-143947142D02*
X55500000Y-144847142D01*
X55500000Y-143990000D02*
X55566666Y-143947142D01*
X55700000Y-143947142D01*
X55766666Y-143990000D01*
X55800000Y-144032857D01*
X55833333Y-144118571D01*
X55833333Y-144375714D01*
X55800000Y-144461428D01*
X55766666Y-144504285D01*
X55700000Y-144547142D01*
X55566666Y-144547142D01*
X55500000Y-144504285D01*
X56033333Y-143947142D02*
X56300000Y-143947142D01*
X56133333Y-143647142D02*
X56133333Y-144418571D01*
X56166666Y-144504285D01*
X56233333Y-144547142D01*
X56300000Y-144547142D01*
X56800000Y-144504285D02*
X56733333Y-144547142D01*
X56600000Y-144547142D01*
X56533333Y-144504285D01*
X56500000Y-144418571D01*
X56500000Y-144075714D01*
X56533333Y-143990000D01*
X56600000Y-143947142D01*
X56733333Y-143947142D01*
X56800000Y-143990000D01*
X56833333Y-144075714D01*
X56833333Y-144161428D01*
X56500000Y-144247142D01*
X57133333Y-144547142D02*
X57133333Y-143947142D01*
X57133333Y-144118571D02*
X57166666Y-144032857D01*
X57200000Y-143990000D01*
X57266666Y-143947142D01*
X57333333Y-143947142D01*
D11*
X77292857Y-136751428D02*
X77635714Y-136751428D01*
X77464285Y-137351428D02*
X77464285Y-136751428D01*
X77778571Y-136751428D02*
X78178571Y-137351428D01*
X78178571Y-136751428D02*
X77778571Y-137351428D01*
D12*
X65025333Y-148344714D02*
X64856000Y-147981857D01*
X64735047Y-148344714D02*
X64735047Y-147582714D01*
X64928571Y-147582714D01*
X64976952Y-147619000D01*
X65001142Y-147655285D01*
X65025333Y-147727857D01*
X65025333Y-147836714D01*
X65001142Y-147909285D01*
X64976952Y-147945571D01*
X64928571Y-147981857D01*
X64735047Y-147981857D01*
X65194666Y-147582714D02*
X65533333Y-148344714D01*
X65533333Y-147582714D02*
X65194666Y-148344714D01*
D10*
X77366666Y-149616666D02*
X77766666Y-149616666D01*
X77566666Y-150316666D02*
X77566666Y-149616666D01*
X77933333Y-149616666D02*
X78400000Y-150316666D01*
X78400000Y-149616666D02*
X77933333Y-150316666D01*
D13*
X79900000Y-139771428D02*
X79700000Y-139485714D01*
X79557142Y-139771428D02*
X79557142Y-139171428D01*
X79785714Y-139171428D01*
X79842857Y-139200000D01*
X79871428Y-139228571D01*
X79900000Y-139285714D01*
X79900000Y-139371428D01*
X79871428Y-139428571D01*
X79842857Y-139457142D01*
X79785714Y-139485714D01*
X79557142Y-139485714D01*
X80100000Y-139171428D02*
X80500000Y-139771428D01*
X80500000Y-139171428D02*
X80100000Y-139771428D01*
X79071428Y-142571428D02*
X79071428Y-141971428D01*
X79214285Y-141971428D01*
X79300000Y-142000000D01*
X79357142Y-142057142D01*
X79385714Y-142114285D01*
X79414285Y-142228571D01*
X79414285Y-142314285D01*
X79385714Y-142428571D01*
X79357142Y-142485714D01*
X79300000Y-142542857D01*
X79214285Y-142571428D01*
X79071428Y-142571428D01*
X79671428Y-142342857D02*
X80128571Y-142342857D01*
X79371428Y-146571428D02*
X79371428Y-145971428D01*
X79514285Y-145971428D01*
X79600000Y-146000000D01*
X79657142Y-146057142D01*
X79685714Y-146114285D01*
X79714285Y-146228571D01*
X79714285Y-146314285D01*
X79685714Y-146428571D01*
X79657142Y-146485714D01*
X79600000Y-146542857D01*
X79514285Y-146571428D01*
X79371428Y-146571428D01*
X79971428Y-146342857D02*
X80428571Y-146342857D01*
X80200000Y-146571428D02*
X80200000Y-146114285D01*
D14*
X63784428Y-143927428D02*
X64038428Y-143927428D01*
X64147285Y-144459619D02*
X63784428Y-144459619D01*
X63784428Y-143443619D01*
X64147285Y-143443619D01*
X64473857Y-144459619D02*
X64473857Y-143782285D01*
X64473857Y-143975809D02*
X64510142Y-143879047D01*
X64546428Y-143830666D01*
X64619000Y-143782285D01*
X64691571Y-143782285D01*
X64945571Y-144459619D02*
X64945571Y-143782285D01*
X64945571Y-143975809D02*
X64981857Y-143879047D01*
X65018142Y-143830666D01*
X65090714Y-143782285D01*
X65163285Y-143782285D01*
X65526142Y-144459619D02*
X65453571Y-144411238D01*
X65417285Y-144362857D01*
X65381000Y-144266095D01*
X65381000Y-143975809D01*
X65417285Y-143879047D01*
X65453571Y-143830666D01*
X65526142Y-143782285D01*
X65635000Y-143782285D01*
X65707571Y-143830666D01*
X65743857Y-143879047D01*
X65780142Y-143975809D01*
X65780142Y-144266095D01*
X65743857Y-144362857D01*
X65707571Y-144411238D01*
X65635000Y-144459619D01*
X65526142Y-144459619D01*
X66106714Y-144459619D02*
X66106714Y-143782285D01*
X66106714Y-143975809D02*
X66143000Y-143879047D01*
X66179285Y-143830666D01*
X66251857Y-143782285D01*
X66324428Y-143782285D01*
X58494142Y-144459619D02*
X58494142Y-143443619D01*
X58784428Y-143443619D01*
X58857000Y-143492000D01*
X58893285Y-143540380D01*
X58929571Y-143637142D01*
X58929571Y-143782285D01*
X58893285Y-143879047D01*
X58857000Y-143927428D01*
X58784428Y-143975809D01*
X58494142Y-143975809D01*
X59365000Y-144459619D02*
X59292428Y-144411238D01*
X59256142Y-144362857D01*
X59219857Y-144266095D01*
X59219857Y-143975809D01*
X59256142Y-143879047D01*
X59292428Y-143830666D01*
X59365000Y-143782285D01*
X59473857Y-143782285D01*
X59546428Y-143830666D01*
X59582714Y-143879047D01*
X59619000Y-143975809D01*
X59619000Y-144266095D01*
X59582714Y-144362857D01*
X59546428Y-144411238D01*
X59473857Y-144459619D01*
X59365000Y-144459619D01*
X59873000Y-143782285D02*
X60018142Y-144459619D01*
X60163285Y-143975809D01*
X60308428Y-144459619D01*
X60453571Y-143782285D01*
X61034142Y-144411238D02*
X60961571Y-144459619D01*
X60816428Y-144459619D01*
X60743857Y-144411238D01*
X60707571Y-144314476D01*
X60707571Y-143927428D01*
X60743857Y-143830666D01*
X60816428Y-143782285D01*
X60961571Y-143782285D01*
X61034142Y-143830666D01*
X61070428Y-143927428D01*
X61070428Y-144024190D01*
X60707571Y-144120952D01*
X61397000Y-144459619D02*
X61397000Y-143782285D01*
X61397000Y-143975809D02*
X61433285Y-143879047D01*
X61469571Y-143830666D01*
X61542142Y-143782285D01*
X61614714Y-143782285D01*
X49579000Y-146709619D02*
X49325000Y-146225809D01*
X49143571Y-146709619D02*
X49143571Y-145693619D01*
X49433857Y-145693619D01*
X49506428Y-145742000D01*
X49542714Y-145790380D01*
X49579000Y-145887142D01*
X49579000Y-146032285D01*
X49542714Y-146129047D01*
X49506428Y-146177428D01*
X49433857Y-146225809D01*
X49143571Y-146225809D01*
X50195857Y-146661238D02*
X50123285Y-146709619D01*
X49978142Y-146709619D01*
X49905571Y-146661238D01*
X49869285Y-146564476D01*
X49869285Y-146177428D01*
X49905571Y-146080666D01*
X49978142Y-146032285D01*
X50123285Y-146032285D01*
X50195857Y-146080666D01*
X50232142Y-146177428D01*
X50232142Y-146274190D01*
X49869285Y-146370952D01*
X50486142Y-146032285D02*
X50667571Y-146709619D01*
X50849000Y-146032285D01*
X52082714Y-145693619D02*
X51719857Y-145693619D01*
X51683571Y-146177428D01*
X51719857Y-146129047D01*
X51792428Y-146080666D01*
X51973857Y-146080666D01*
X52046428Y-146129047D01*
X52082714Y-146177428D01*
X52119000Y-146274190D01*
X52119000Y-146516095D01*
X52082714Y-146612857D01*
X52046428Y-146661238D01*
X51973857Y-146709619D01*
X51792428Y-146709619D01*
X51719857Y-146661238D01*
X51683571Y-146612857D01*
X53171285Y-145693619D02*
X53316428Y-145693619D01*
X53389000Y-145742000D01*
X53461571Y-145838761D01*
X53497857Y-146032285D01*
X53497857Y-146370952D01*
X53461571Y-146564476D01*
X53389000Y-146661238D01*
X53316428Y-146709619D01*
X53171285Y-146709619D01*
X53098714Y-146661238D01*
X53026142Y-146564476D01*
X52989857Y-146370952D01*
X52989857Y-146032285D01*
X53026142Y-145838761D01*
X53098714Y-145742000D01*
X53171285Y-145693619D01*
X53788142Y-146661238D02*
X53897000Y-146709619D01*
X54078428Y-146709619D01*
X54151000Y-146661238D01*
X54187285Y-146612857D01*
X54223571Y-146516095D01*
X54223571Y-146419333D01*
X54187285Y-146322571D01*
X54151000Y-146274190D01*
X54078428Y-146225809D01*
X53933285Y-146177428D01*
X53860714Y-146129047D01*
X53824428Y-146080666D01*
X53788142Y-145983904D01*
X53788142Y-145887142D01*
X53824428Y-145790380D01*
X53860714Y-145742000D01*
X53933285Y-145693619D01*
X54114714Y-145693619D01*
X54223571Y-145742000D01*
X54550142Y-146709619D02*
X54550142Y-145693619D01*
X54550142Y-146177428D02*
X54985571Y-146177428D01*
X54985571Y-146709619D02*
X54985571Y-145693619D01*
X55275857Y-145693619D02*
X55457285Y-146709619D01*
X55602428Y-145983904D01*
X55747571Y-146709619D01*
X55929000Y-145693619D01*
D15*
X75938400Y-146614600D02*
X75938400Y-141636200D01*
X75938400Y-141636200D02*
X70960000Y-141636200D01*
D16*
X75440560Y-146116760D02*
X75440560Y-145867840D01*
X75191640Y-146116760D02*
X75440560Y-146116760D01*
X75440560Y-142134040D02*
X75191640Y-142134040D01*
X75440560Y-142382960D02*
X75440560Y-142134040D01*
X71457840Y-142134040D02*
X71457840Y-142382960D01*
X71706760Y-142134040D02*
X71457840Y-142134040D01*
X71457840Y-146116760D02*
X71706760Y-146116760D01*
X71457840Y-145867840D02*
X71457840Y-146116760D01*
D15*
X70960000Y-146116760D02*
X71457840Y-146614600D01*
X70960000Y-146116760D02*
X70960000Y-141636200D01*
X71457840Y-146614600D02*
X75938400Y-146614600D01*
D17*
X74430000Y-107580000D02*
X73990000Y-108490000D01*
X86990000Y-108570000D02*
X86170000Y-107710000D01*
X73990000Y-111300000D02*
X73990000Y-115160000D01*
X73990000Y-115160000D02*
X74225000Y-115160000D01*
X73990000Y-111300000D02*
X73990000Y-108490000D01*
X87010000Y-111300000D02*
X87010000Y-115160000D01*
X87010000Y-115160000D02*
X86775000Y-115160000D01*
X87010000Y-111300000D02*
X87010000Y-108640000D01*
X87010000Y-107440000D02*
X86775000Y-107440000D01*
X86775000Y-107440000D02*
X86775000Y-105625000D01*
D18*
X79525000Y-133350000D02*
G75*
G03X79525000Y-133350000I-635000J0D01*
G01*
X77745000Y-131710000D02*
G75*
G03X77745000Y-131710000I-635000J0D01*
G01*
D19*
X78303800Y-132421200D02*
X77821200Y-132903800D01*
X77821200Y-132903800D02*
X68296200Y-132903800D01*
X78303800Y-132421200D02*
X78303800Y-122896200D01*
X68296200Y-122896200D02*
X78303800Y-122896200D01*
X68296200Y-132903800D02*
X68296200Y-122896200D01*
D20*
X84460400Y-142710400D02*
X84460400Y-148425400D01*
X96500000Y-142710400D02*
X84460400Y-142710400D01*
X96500000Y-148425400D02*
X96500000Y-142710400D01*
X84460400Y-151752800D02*
X96500000Y-151752800D01*
X82707800Y-148425400D02*
X84460400Y-150178000D01*
X84460400Y-146672800D02*
X82707800Y-148425400D01*
X98252600Y-148425400D02*
X96500000Y-150178000D01*
X96500000Y-146672800D02*
X98252600Y-148425400D01*
X84460400Y-148450800D02*
X84460400Y-151752800D01*
X96500000Y-148450800D02*
X96500000Y-151752800D01*
D21*
G36*
X50651260Y-143748980D02*
G01*
X50674120Y-143736280D01*
X50727460Y-143703260D01*
X50801120Y-143655000D01*
X50890020Y-143596580D01*
X50976380Y-143535620D01*
X51050040Y-143487360D01*
X51100840Y-143454340D01*
X51121160Y-143444180D01*
X51133860Y-143446720D01*
X51174500Y-143467040D01*
X51235460Y-143500060D01*
X51271020Y-143517840D01*
X51326900Y-143540700D01*
X51354840Y-143545780D01*
X51359920Y-143538160D01*
X51380240Y-143497520D01*
X51410720Y-143423860D01*
X51453900Y-143327340D01*
X51502160Y-143213040D01*
X51552960Y-143091120D01*
X51606300Y-142969200D01*
X51654560Y-142849820D01*
X51697740Y-142743140D01*
X51733300Y-142656780D01*
X51756160Y-142595820D01*
X51763780Y-142570420D01*
X51761240Y-142565340D01*
X51733300Y-142537400D01*
X51685040Y-142501840D01*
X51580900Y-142415480D01*
X51476760Y-142285940D01*
X51413260Y-142138620D01*
X51390400Y-141973520D01*
X51408180Y-141823660D01*
X51469140Y-141678880D01*
X51570740Y-141546800D01*
X51695200Y-141450280D01*
X51837440Y-141386780D01*
X52000000Y-141366460D01*
X52154940Y-141384240D01*
X52302260Y-141442660D01*
X52434340Y-141544260D01*
X52490220Y-141607760D01*
X52566420Y-141739840D01*
X52609600Y-141882080D01*
X52614680Y-141917640D01*
X52607060Y-142075120D01*
X52561340Y-142224980D01*
X52480060Y-142357060D01*
X52365760Y-142468820D01*
X52350520Y-142478980D01*
X52297180Y-142517080D01*
X52261620Y-142545020D01*
X52233680Y-142567880D01*
X52431800Y-143047940D01*
X52464820Y-143124140D01*
X52518160Y-143253680D01*
X52566420Y-143367980D01*
X52607060Y-143456880D01*
X52632460Y-143517840D01*
X52645160Y-143540700D01*
X52645160Y-143543240D01*
X52662940Y-143545780D01*
X52698500Y-143533080D01*
X52767080Y-143500060D01*
X52810260Y-143477200D01*
X52861060Y-143451800D01*
X52883920Y-143444180D01*
X52904240Y-143454340D01*
X52952500Y-143484820D01*
X53023620Y-143533080D01*
X53109980Y-143591500D01*
X53191260Y-143647380D01*
X53264920Y-143695640D01*
X53320800Y-143731200D01*
X53346200Y-143746440D01*
X53351280Y-143746440D01*
X53374140Y-143733740D01*
X53417320Y-143695640D01*
X53483360Y-143634680D01*
X53574800Y-143543240D01*
X53590040Y-143530540D01*
X53666240Y-143451800D01*
X53727200Y-143388300D01*
X53767840Y-143342580D01*
X53783080Y-143319720D01*
X53770380Y-143294320D01*
X53734820Y-143240980D01*
X53686560Y-143164780D01*
X53625600Y-143075880D01*
X53465580Y-142844740D01*
X53554480Y-142626300D01*
X53579880Y-142560260D01*
X53615440Y-142478980D01*
X53640840Y-142423100D01*
X53653540Y-142397700D01*
X53676400Y-142387540D01*
X53734820Y-142374840D01*
X53821180Y-142357060D01*
X53925320Y-142336740D01*
X54024380Y-142318960D01*
X54110740Y-142301180D01*
X54176780Y-142288480D01*
X54204720Y-142283400D01*
X54212340Y-142280860D01*
X54217420Y-142265620D01*
X54219960Y-142235140D01*
X54222500Y-142181800D01*
X54225040Y-142097980D01*
X54225040Y-141973520D01*
X54225040Y-141960820D01*
X54222500Y-141843980D01*
X54222500Y-141750000D01*
X54217420Y-141691580D01*
X54214880Y-141666180D01*
X54186940Y-141661100D01*
X54123440Y-141645860D01*
X54034540Y-141630620D01*
X53930400Y-141610300D01*
X53922780Y-141607760D01*
X53818640Y-141587440D01*
X53729740Y-141569660D01*
X53668780Y-141554420D01*
X53640840Y-141546800D01*
X53635760Y-141539180D01*
X53615440Y-141498540D01*
X53584960Y-141432500D01*
X53549400Y-141353760D01*
X53516380Y-141269940D01*
X53485900Y-141196280D01*
X53465580Y-141140400D01*
X53460500Y-141115000D01*
X53475740Y-141089600D01*
X53511300Y-141036260D01*
X53562100Y-140960060D01*
X53625600Y-140871160D01*
X53628140Y-140863540D01*
X53689100Y-140774640D01*
X53739900Y-140698440D01*
X53770380Y-140645100D01*
X53783080Y-140622240D01*
X53783080Y-140619700D01*
X53762760Y-140594300D01*
X53717040Y-140543500D01*
X53653540Y-140474920D01*
X53574800Y-140396180D01*
X53549400Y-140370780D01*
X53463040Y-140286960D01*
X53404620Y-140231080D01*
X53366520Y-140203140D01*
X53348740Y-140195520D01*
X53320800Y-140213300D01*
X53264920Y-140248860D01*
X53188720Y-140302200D01*
X53097280Y-140363160D01*
X53092200Y-140365700D01*
X53003300Y-140426660D01*
X52929640Y-140477460D01*
X52876300Y-140513020D01*
X52853440Y-140525720D01*
X52848360Y-140525720D01*
X52812800Y-140515560D01*
X52749300Y-140492700D01*
X52673100Y-140462220D01*
X52589280Y-140429200D01*
X52515620Y-140398720D01*
X52459740Y-140373320D01*
X52431800Y-140358080D01*
X52431800Y-140355540D01*
X52421640Y-140325060D01*
X52406400Y-140259020D01*
X52388620Y-140167580D01*
X52368300Y-140058360D01*
X52363220Y-140040580D01*
X52342900Y-139933900D01*
X52327660Y-139847540D01*
X52314960Y-139786580D01*
X52307340Y-139761180D01*
X52292100Y-139758640D01*
X52241300Y-139753560D01*
X52162560Y-139751020D01*
X52066040Y-139751020D01*
X51966980Y-139751020D01*
X51867920Y-139753560D01*
X51784100Y-139756100D01*
X51725680Y-139761180D01*
X51700280Y-139766260D01*
X51697740Y-139766260D01*
X51690120Y-139799280D01*
X51674880Y-139865320D01*
X51657100Y-139959300D01*
X51634240Y-140068520D01*
X51631700Y-140086300D01*
X51611380Y-140192980D01*
X51593600Y-140279340D01*
X51580900Y-140340300D01*
X51573280Y-140363160D01*
X51565660Y-140368240D01*
X51519940Y-140386020D01*
X51448820Y-140416500D01*
X51362460Y-140452060D01*
X51159260Y-140533340D01*
X50907800Y-140363160D01*
X50884940Y-140347920D01*
X50796040Y-140286960D01*
X50722380Y-140236160D01*
X50671580Y-140203140D01*
X50648720Y-140192980D01*
X50623320Y-140215840D01*
X50572520Y-140261560D01*
X50506480Y-140327600D01*
X50427740Y-140406340D01*
X50369320Y-140462220D01*
X50300740Y-140533340D01*
X50255020Y-140581600D01*
X50232160Y-140612080D01*
X50224540Y-140629860D01*
X50227080Y-140642560D01*
X50242320Y-140667960D01*
X50277880Y-140721300D01*
X50331220Y-140797500D01*
X50392180Y-140886400D01*
X50440440Y-140960060D01*
X50496320Y-141043880D01*
X50531880Y-141104840D01*
X50542040Y-141132780D01*
X50539500Y-141145480D01*
X50521720Y-141193740D01*
X50493780Y-141267400D01*
X50455680Y-141356300D01*
X50369320Y-141554420D01*
X50239780Y-141579820D01*
X50161040Y-141592520D01*
X50049280Y-141615380D01*
X49945140Y-141635700D01*
X49780040Y-141666180D01*
X49774960Y-142268160D01*
X49800360Y-142278320D01*
X49825760Y-142285940D01*
X49886720Y-142298640D01*
X49973080Y-142316420D01*
X50074680Y-142336740D01*
X50161040Y-142351980D01*
X50249940Y-142369760D01*
X50313440Y-142382460D01*
X50341380Y-142387540D01*
X50349000Y-142397700D01*
X50369320Y-142438340D01*
X50402340Y-142506920D01*
X50435360Y-142588200D01*
X50470920Y-142672020D01*
X50501400Y-142750760D01*
X50524260Y-142809180D01*
X50531880Y-142842200D01*
X50519180Y-142865060D01*
X50486160Y-142915860D01*
X50437900Y-142989520D01*
X50379480Y-143075880D01*
X50318520Y-143164780D01*
X50267720Y-143238440D01*
X50234700Y-143291780D01*
X50219460Y-143317180D01*
X50227080Y-143334960D01*
X50260100Y-143375600D01*
X50326140Y-143444180D01*
X50425200Y-143540700D01*
X50440440Y-143555940D01*
X50519180Y-143632140D01*
X50585220Y-143693100D01*
X50630940Y-143733740D01*
X50651260Y-143748980D01*
X50651260Y-143748980D01*
G37*
X50651260Y-143748980D02*
X50674120Y-143736280D01*
X50727460Y-143703260D01*
X50801120Y-143655000D01*
X50890020Y-143596580D01*
X50976380Y-143535620D01*
X51050040Y-143487360D01*
X51100840Y-143454340D01*
X51121160Y-143444180D01*
X51133860Y-143446720D01*
X51174500Y-143467040D01*
X51235460Y-143500060D01*
X51271020Y-143517840D01*
X51326900Y-143540700D01*
X51354840Y-143545780D01*
X51359920Y-143538160D01*
X51380240Y-143497520D01*
X51410720Y-143423860D01*
X51453900Y-143327340D01*
X51502160Y-143213040D01*
X51552960Y-143091120D01*
X51606300Y-142969200D01*
X51654560Y-142849820D01*
X51697740Y-142743140D01*
X51733300Y-142656780D01*
X51756160Y-142595820D01*
X51763780Y-142570420D01*
X51761240Y-142565340D01*
X51733300Y-142537400D01*
X51685040Y-142501840D01*
X51580900Y-142415480D01*
X51476760Y-142285940D01*
X51413260Y-142138620D01*
X51390400Y-141973520D01*
X51408180Y-141823660D01*
X51469140Y-141678880D01*
X51570740Y-141546800D01*
X51695200Y-141450280D01*
X51837440Y-141386780D01*
X52000000Y-141366460D01*
X52154940Y-141384240D01*
X52302260Y-141442660D01*
X52434340Y-141544260D01*
X52490220Y-141607760D01*
X52566420Y-141739840D01*
X52609600Y-141882080D01*
X52614680Y-141917640D01*
X52607060Y-142075120D01*
X52561340Y-142224980D01*
X52480060Y-142357060D01*
X52365760Y-142468820D01*
X52350520Y-142478980D01*
X52297180Y-142517080D01*
X52261620Y-142545020D01*
X52233680Y-142567880D01*
X52431800Y-143047940D01*
X52464820Y-143124140D01*
X52518160Y-143253680D01*
X52566420Y-143367980D01*
X52607060Y-143456880D01*
X52632460Y-143517840D01*
X52645160Y-143540700D01*
X52645160Y-143543240D01*
X52662940Y-143545780D01*
X52698500Y-143533080D01*
X52767080Y-143500060D01*
X52810260Y-143477200D01*
X52861060Y-143451800D01*
X52883920Y-143444180D01*
X52904240Y-143454340D01*
X52952500Y-143484820D01*
X53023620Y-143533080D01*
X53109980Y-143591500D01*
X53191260Y-143647380D01*
X53264920Y-143695640D01*
X53320800Y-143731200D01*
X53346200Y-143746440D01*
X53351280Y-143746440D01*
X53374140Y-143733740D01*
X53417320Y-143695640D01*
X53483360Y-143634680D01*
X53574800Y-143543240D01*
X53590040Y-143530540D01*
X53666240Y-143451800D01*
X53727200Y-143388300D01*
X53767840Y-143342580D01*
X53783080Y-143319720D01*
X53770380Y-143294320D01*
X53734820Y-143240980D01*
X53686560Y-143164780D01*
X53625600Y-143075880D01*
X53465580Y-142844740D01*
X53554480Y-142626300D01*
X53579880Y-142560260D01*
X53615440Y-142478980D01*
X53640840Y-142423100D01*
X53653540Y-142397700D01*
X53676400Y-142387540D01*
X53734820Y-142374840D01*
X53821180Y-142357060D01*
X53925320Y-142336740D01*
X54024380Y-142318960D01*
X54110740Y-142301180D01*
X54176780Y-142288480D01*
X54204720Y-142283400D01*
X54212340Y-142280860D01*
X54217420Y-142265620D01*
X54219960Y-142235140D01*
X54222500Y-142181800D01*
X54225040Y-142097980D01*
X54225040Y-141973520D01*
X54225040Y-141960820D01*
X54222500Y-141843980D01*
X54222500Y-141750000D01*
X54217420Y-141691580D01*
X54214880Y-141666180D01*
X54186940Y-141661100D01*
X54123440Y-141645860D01*
X54034540Y-141630620D01*
X53930400Y-141610300D01*
X53922780Y-141607760D01*
X53818640Y-141587440D01*
X53729740Y-141569660D01*
X53668780Y-141554420D01*
X53640840Y-141546800D01*
X53635760Y-141539180D01*
X53615440Y-141498540D01*
X53584960Y-141432500D01*
X53549400Y-141353760D01*
X53516380Y-141269940D01*
X53485900Y-141196280D01*
X53465580Y-141140400D01*
X53460500Y-141115000D01*
X53475740Y-141089600D01*
X53511300Y-141036260D01*
X53562100Y-140960060D01*
X53625600Y-140871160D01*
X53628140Y-140863540D01*
X53689100Y-140774640D01*
X53739900Y-140698440D01*
X53770380Y-140645100D01*
X53783080Y-140622240D01*
X53783080Y-140619700D01*
X53762760Y-140594300D01*
X53717040Y-140543500D01*
X53653540Y-140474920D01*
X53574800Y-140396180D01*
X53549400Y-140370780D01*
X53463040Y-140286960D01*
X53404620Y-140231080D01*
X53366520Y-140203140D01*
X53348740Y-140195520D01*
X53320800Y-140213300D01*
X53264920Y-140248860D01*
X53188720Y-140302200D01*
X53097280Y-140363160D01*
X53092200Y-140365700D01*
X53003300Y-140426660D01*
X52929640Y-140477460D01*
X52876300Y-140513020D01*
X52853440Y-140525720D01*
X52848360Y-140525720D01*
X52812800Y-140515560D01*
X52749300Y-140492700D01*
X52673100Y-140462220D01*
X52589280Y-140429200D01*
X52515620Y-140398720D01*
X52459740Y-140373320D01*
X52431800Y-140358080D01*
X52431800Y-140355540D01*
X52421640Y-140325060D01*
X52406400Y-140259020D01*
X52388620Y-140167580D01*
X52368300Y-140058360D01*
X52363220Y-140040580D01*
X52342900Y-139933900D01*
X52327660Y-139847540D01*
X52314960Y-139786580D01*
X52307340Y-139761180D01*
X52292100Y-139758640D01*
X52241300Y-139753560D01*
X52162560Y-139751020D01*
X52066040Y-139751020D01*
X51966980Y-139751020D01*
X51867920Y-139753560D01*
X51784100Y-139756100D01*
X51725680Y-139761180D01*
X51700280Y-139766260D01*
X51697740Y-139766260D01*
X51690120Y-139799280D01*
X51674880Y-139865320D01*
X51657100Y-139959300D01*
X51634240Y-140068520D01*
X51631700Y-140086300D01*
X51611380Y-140192980D01*
X51593600Y-140279340D01*
X51580900Y-140340300D01*
X51573280Y-140363160D01*
X51565660Y-140368240D01*
X51519940Y-140386020D01*
X51448820Y-140416500D01*
X51362460Y-140452060D01*
X51159260Y-140533340D01*
X50907800Y-140363160D01*
X50884940Y-140347920D01*
X50796040Y-140286960D01*
X50722380Y-140236160D01*
X50671580Y-140203140D01*
X50648720Y-140192980D01*
X50623320Y-140215840D01*
X50572520Y-140261560D01*
X50506480Y-140327600D01*
X50427740Y-140406340D01*
X50369320Y-140462220D01*
X50300740Y-140533340D01*
X50255020Y-140581600D01*
X50232160Y-140612080D01*
X50224540Y-140629860D01*
X50227080Y-140642560D01*
X50242320Y-140667960D01*
X50277880Y-140721300D01*
X50331220Y-140797500D01*
X50392180Y-140886400D01*
X50440440Y-140960060D01*
X50496320Y-141043880D01*
X50531880Y-141104840D01*
X50542040Y-141132780D01*
X50539500Y-141145480D01*
X50521720Y-141193740D01*
X50493780Y-141267400D01*
X50455680Y-141356300D01*
X50369320Y-141554420D01*
X50239780Y-141579820D01*
X50161040Y-141592520D01*
X50049280Y-141615380D01*
X49945140Y-141635700D01*
X49780040Y-141666180D01*
X49774960Y-142268160D01*
X49800360Y-142278320D01*
X49825760Y-142285940D01*
X49886720Y-142298640D01*
X49973080Y-142316420D01*
X50074680Y-142336740D01*
X50161040Y-142351980D01*
X50249940Y-142369760D01*
X50313440Y-142382460D01*
X50341380Y-142387540D01*
X50349000Y-142397700D01*
X50369320Y-142438340D01*
X50402340Y-142506920D01*
X50435360Y-142588200D01*
X50470920Y-142672020D01*
X50501400Y-142750760D01*
X50524260Y-142809180D01*
X50531880Y-142842200D01*
X50519180Y-142865060D01*
X50486160Y-142915860D01*
X50437900Y-142989520D01*
X50379480Y-143075880D01*
X50318520Y-143164780D01*
X50267720Y-143238440D01*
X50234700Y-143291780D01*
X50219460Y-143317180D01*
X50227080Y-143334960D01*
X50260100Y-143375600D01*
X50326140Y-143444180D01*
X50425200Y-143540700D01*
X50440440Y-143555940D01*
X50519180Y-143632140D01*
X50585220Y-143693100D01*
X50630940Y-143733740D01*
X50651260Y-143748980D01*
D20*
X99084500Y-88312700D02*
X44474500Y-88312700D01*
X44474500Y-104695700D02*
X44474500Y-88312700D01*
X99084500Y-104695700D02*
X44474500Y-104695700D01*
X99084500Y-88312700D02*
X99084500Y-104695700D01*
D19*
X68280000Y-113100000D02*
X68280000Y-110560000D01*
X80980000Y-113100000D02*
X65740000Y-113100000D01*
X80980000Y-110560000D02*
X80980000Y-113100000D01*
X65740000Y-110560000D02*
X80980000Y-110560000D01*
X65740000Y-113100000D02*
X65740000Y-110560000D01*
D11*
X94219000Y-138935000D02*
X94219000Y-137665000D01*
X96505000Y-138935000D02*
X94219000Y-138935000D01*
X96505000Y-137665000D02*
X96505000Y-138935000D01*
X94219000Y-137665000D02*
X96505000Y-137665000D01*
X94195000Y-140635000D02*
X94195000Y-139365000D01*
X96481000Y-140635000D02*
X94195000Y-140635000D01*
X96481000Y-139365000D02*
X96481000Y-140635000D01*
X94195000Y-139365000D02*
X96481000Y-139365000D01*
D17*
X77310000Y-147224721D02*
X77310000Y-147550279D01*
X76290000Y-147224721D02*
X76290000Y-147550279D01*
X66890000Y-146924721D02*
X66890000Y-147250279D01*
X67910000Y-146924721D02*
X67910000Y-147250279D01*
X60510000Y-147049721D02*
X60510000Y-147375279D01*
X59490000Y-147049721D02*
X59490000Y-147375279D01*
X63210000Y-147039721D02*
X63210000Y-147365279D01*
X64230000Y-147039721D02*
X64230000Y-147365279D01*
X78975279Y-142990000D02*
X78649721Y-142990000D01*
X78975279Y-144010000D02*
X78649721Y-144010000D01*
X78975279Y-145610000D02*
X78649721Y-145610000D01*
X78975279Y-144590000D02*
X78649721Y-144590000D01*
X63310000Y-128337221D02*
X63310000Y-128662779D01*
X62290000Y-128337221D02*
X62290000Y-128662779D01*
X62290000Y-131324721D02*
X62290000Y-131650279D01*
X63310000Y-131324721D02*
X63310000Y-131650279D01*
X88810000Y-113662779D02*
X88810000Y-113337221D01*
X87790000Y-113662779D02*
X87790000Y-113337221D01*
X70685279Y-148420000D02*
X70359721Y-148420000D01*
X70685279Y-147400000D02*
X70359721Y-147400000D01*
X81710000Y-145837221D02*
X81710000Y-146162779D01*
X80690000Y-145837221D02*
X80690000Y-146162779D01*
X95137221Y-141190000D02*
X95462779Y-141190000D01*
X95137221Y-142210000D02*
X95462779Y-142210000D01*
X81710000Y-142850279D02*
X81710000Y-142524721D01*
X80690000Y-142850279D02*
X80690000Y-142524721D01*
D22*
X56550000Y-135750000D02*
X57700000Y-135750000D01*
X56550000Y-124150000D02*
X56550000Y-135750000D01*
X57700000Y-124150000D02*
X56550000Y-124150000D01*
X61650000Y-135750000D02*
X60500000Y-135750000D01*
X61650000Y-124150000D02*
X61650000Y-135750000D01*
X60500000Y-124150000D02*
X61650000Y-124150000D01*
D17*
X90893922Y-141310000D02*
X91411078Y-141310000D01*
X90893922Y-139890000D02*
X91411078Y-139890000D01*
X83375279Y-126690000D02*
X83049721Y-126690000D01*
X83375279Y-127710000D02*
X83049721Y-127710000D01*
X65810000Y-127337221D02*
X65810000Y-127662779D01*
X64790000Y-127337221D02*
X64790000Y-127662779D01*
X55910000Y-111650279D02*
X55910000Y-111324721D01*
X54890000Y-111650279D02*
X54890000Y-111324721D01*
X81324721Y-136610000D02*
X81650279Y-136610000D01*
X81324721Y-135590000D02*
X81650279Y-135590000D01*
D22*
X63050001Y-150299999D02*
G75*
G02X61950000Y-150300000I-550001J300000D01*
G01*
X59350001Y-150299999D02*
G75*
G02X58250000Y-150300000I-550001J300000D01*
G01*
X76450001Y-150399999D02*
G75*
G02X75350000Y-150400000I-550001J300000D01*
G01*
X66850001Y-150299999D02*
G75*
G02X65750000Y-150300000I-550001J300000D01*
G01*
D17*
X72012779Y-118220000D02*
X71687221Y-118220000D01*
X72012779Y-119240000D02*
X71687221Y-119240000D01*
D10*
X66495500Y-117225299D02*
X66495500Y-117479299D01*
X66114500Y-117225299D02*
X66495500Y-117225299D01*
X66114500Y-117479299D02*
X66114500Y-117225299D01*
X66495500Y-117479299D02*
X66114500Y-117479299D01*
X60145500Y-105374701D02*
X60145500Y-105120701D01*
X59764500Y-105374701D02*
X60145500Y-105374701D01*
X59764500Y-105120701D02*
X59764500Y-105374701D01*
X60145500Y-105120701D02*
X59764500Y-105120701D01*
X71996740Y-115224300D02*
X72324800Y-115224300D01*
X56803260Y-107375700D02*
X56475200Y-107375700D01*
X70530000Y-107510000D02*
X72340000Y-109730000D01*
X72324800Y-115224300D02*
X72340000Y-109730000D01*
X56475200Y-115224300D02*
X56803260Y-115224300D01*
X56475200Y-107375700D02*
X56475200Y-115224300D01*
D13*
X88666666Y-116752380D02*
X88333333Y-116276190D01*
X88095238Y-116752380D02*
X88095238Y-115752380D01*
X88476190Y-115752380D01*
X88571428Y-115800000D01*
X88619047Y-115847619D01*
X88666666Y-115942857D01*
X88666666Y-116085714D01*
X88619047Y-116180952D01*
X88571428Y-116228571D01*
X88476190Y-116276190D01*
X88095238Y-116276190D01*
X89095238Y-116228571D02*
X89428571Y-116228571D01*
X89571428Y-116752380D02*
X89095238Y-116752380D01*
X89095238Y-115752380D01*
X89571428Y-115752380D01*
X90333333Y-116228571D02*
X90000000Y-116228571D01*
X90000000Y-116752380D02*
X90000000Y-115752380D01*
X90476190Y-115752380D01*
X91000000Y-115752380D02*
X91000000Y-115990476D01*
X90761904Y-115895238D02*
X91000000Y-115990476D01*
X91238095Y-115895238D01*
X90857142Y-116180952D02*
X91000000Y-115990476D01*
X91142857Y-116180952D01*
X91761904Y-115752380D02*
X91761904Y-115990476D01*
X91523809Y-115895238D02*
X91761904Y-115990476D01*
X92000000Y-115895238D01*
X91619047Y-116180952D02*
X91761904Y-115990476D01*
X91904761Y-116180952D01*
X53066666Y-116752380D02*
X52733333Y-116276190D01*
X52495238Y-116752380D02*
X52495238Y-115752380D01*
X52876190Y-115752380D01*
X52971428Y-115800000D01*
X53019047Y-115847619D01*
X53066666Y-115942857D01*
X53066666Y-116085714D01*
X53019047Y-116180952D01*
X52971428Y-116228571D01*
X52876190Y-116276190D01*
X52495238Y-116276190D01*
X53495238Y-116228571D02*
X53828571Y-116228571D01*
X53971428Y-116752380D02*
X53495238Y-116752380D01*
X53495238Y-115752380D01*
X53971428Y-115752380D01*
X54733333Y-116228571D02*
X54400000Y-116228571D01*
X54400000Y-116752380D02*
X54400000Y-115752380D01*
X54876190Y-115752380D01*
X55400000Y-115752380D02*
X55400000Y-115990476D01*
X55161904Y-115895238D02*
X55400000Y-115990476D01*
X55638095Y-115895238D01*
X55257142Y-116180952D02*
X55400000Y-115990476D01*
X55542857Y-116180952D01*
X56161904Y-115752380D02*
X56161904Y-115990476D01*
X55923809Y-115895238D02*
X56161904Y-115990476D01*
X56400000Y-115895238D01*
X56019047Y-116180952D02*
X56161904Y-115990476D01*
X56304761Y-116180952D01*
X70042857Y-146171428D02*
X70042857Y-146657142D01*
X70071428Y-146714285D01*
X70100000Y-146742857D01*
X70157142Y-146771428D01*
X70271428Y-146771428D01*
X70328571Y-146742857D01*
X70357142Y-146714285D01*
X70385714Y-146657142D01*
X70385714Y-146171428D01*
X70928571Y-146371428D02*
X70928571Y-146771428D01*
X70785714Y-146142857D02*
X70642857Y-146571428D01*
X71014285Y-146571428D01*
X87238095Y-107452380D02*
X87238095Y-108261904D01*
X87285714Y-108357142D01*
X87333333Y-108404761D01*
X87428571Y-108452380D01*
X87619047Y-108452380D01*
X87714285Y-108404761D01*
X87761904Y-108357142D01*
X87809523Y-108261904D01*
X87809523Y-107452380D01*
X88238095Y-107547619D02*
X88285714Y-107500000D01*
X88380952Y-107452380D01*
X88619047Y-107452380D01*
X88714285Y-107500000D01*
X88761904Y-107547619D01*
X88809523Y-107642857D01*
X88809523Y-107738095D01*
X88761904Y-107880952D01*
X88190476Y-108452380D01*
X88809523Y-108452380D01*
D18*
X67225904Y-133665428D02*
X67225904Y-134899142D01*
X67274285Y-135044285D01*
X67322666Y-135116857D01*
X67419428Y-135189428D01*
X67612952Y-135189428D01*
X67709714Y-135116857D01*
X67758095Y-135044285D01*
X67806476Y-134899142D01*
X67806476Y-133665428D01*
X68822476Y-135189428D02*
X68241904Y-135189428D01*
X68532190Y-135189428D02*
X68532190Y-133665428D01*
X68435428Y-133883142D01*
X68338666Y-134028285D01*
X68241904Y-134100857D01*
D14*
X70060285Y-131611523D02*
X70060285Y-130341523D01*
X70350571Y-130341523D01*
X70423142Y-130402000D01*
X70459428Y-130462476D01*
X70495714Y-130583428D01*
X70495714Y-130764857D01*
X70459428Y-130885809D01*
X70423142Y-130946285D01*
X70350571Y-131006761D01*
X70060285Y-131006761D01*
X70822285Y-131611523D02*
X70822285Y-130341523D01*
X71620571Y-131490571D02*
X71584285Y-131551047D01*
X71475428Y-131611523D01*
X71402857Y-131611523D01*
X71294000Y-131551047D01*
X71221428Y-131430095D01*
X71185142Y-131309142D01*
X71148857Y-131067238D01*
X71148857Y-130885809D01*
X71185142Y-130643904D01*
X71221428Y-130522952D01*
X71294000Y-130402000D01*
X71402857Y-130341523D01*
X71475428Y-130341523D01*
X71584285Y-130402000D01*
X71620571Y-130462476D01*
X72346285Y-131611523D02*
X71910857Y-131611523D01*
X72128571Y-131611523D02*
X72128571Y-130341523D01*
X72056000Y-130522952D01*
X71983428Y-130643904D01*
X71910857Y-130704380D01*
X72781714Y-130885809D02*
X72709142Y-130825333D01*
X72672857Y-130764857D01*
X72636571Y-130643904D01*
X72636571Y-130583428D01*
X72672857Y-130462476D01*
X72709142Y-130402000D01*
X72781714Y-130341523D01*
X72926857Y-130341523D01*
X72999428Y-130402000D01*
X73035714Y-130462476D01*
X73072000Y-130583428D01*
X73072000Y-130643904D01*
X73035714Y-130764857D01*
X72999428Y-130825333D01*
X72926857Y-130885809D01*
X72781714Y-130885809D01*
X72709142Y-130946285D01*
X72672857Y-131006761D01*
X72636571Y-131127714D01*
X72636571Y-131369619D01*
X72672857Y-131490571D01*
X72709142Y-131551047D01*
X72781714Y-131611523D01*
X72926857Y-131611523D01*
X72999428Y-131551047D01*
X73035714Y-131490571D01*
X73072000Y-131369619D01*
X73072000Y-131127714D01*
X73035714Y-131006761D01*
X72999428Y-130946285D01*
X72926857Y-130885809D01*
X73652571Y-130946285D02*
X73398571Y-130946285D01*
X73398571Y-131611523D02*
X73398571Y-130341523D01*
X73761428Y-130341523D01*
X74378285Y-130764857D02*
X74378285Y-131611523D01*
X74196857Y-130281047D02*
X74015428Y-131188190D01*
X74487142Y-131188190D01*
X75140285Y-130341523D02*
X74777428Y-130341523D01*
X74741142Y-130946285D01*
X74777428Y-130885809D01*
X74850000Y-130825333D01*
X75031428Y-130825333D01*
X75104000Y-130885809D01*
X75140285Y-130946285D01*
X75176571Y-131067238D01*
X75176571Y-131369619D01*
X75140285Y-131490571D01*
X75104000Y-131551047D01*
X75031428Y-131611523D01*
X74850000Y-131611523D01*
X74777428Y-131551047D01*
X74741142Y-131490571D01*
X75466857Y-130462476D02*
X75503142Y-130402000D01*
X75575714Y-130341523D01*
X75757142Y-130341523D01*
X75829714Y-130402000D01*
X75866000Y-130462476D01*
X75902285Y-130583428D01*
X75902285Y-130704380D01*
X75866000Y-130885809D01*
X75430571Y-131611523D01*
X75902285Y-131611523D01*
X76374000Y-130341523D02*
X76446571Y-130341523D01*
X76519142Y-130402000D01*
X76555428Y-130462476D01*
X76591714Y-130583428D01*
X76628000Y-130825333D01*
X76628000Y-131127714D01*
X76591714Y-131369619D01*
X76555428Y-131490571D01*
X76519142Y-131551047D01*
X76446571Y-131611523D01*
X76374000Y-131611523D01*
X76301428Y-131551047D01*
X76265142Y-131490571D01*
X76228857Y-131369619D01*
X76192571Y-131127714D01*
X76192571Y-130825333D01*
X76228857Y-130583428D01*
X76265142Y-130462476D01*
X76301428Y-130402000D01*
X76374000Y-130341523D01*
D23*
X87916666Y-141267780D02*
X87916666Y-141982066D01*
X87869047Y-142124923D01*
X87773809Y-142220161D01*
X87630952Y-142267780D01*
X87535714Y-142267780D01*
X88916666Y-142267780D02*
X88345238Y-142267780D01*
X88630952Y-142267780D02*
X88630952Y-141267780D01*
X88535714Y-141410638D01*
X88440476Y-141505876D01*
X88345238Y-141553495D01*
D19*
X49625142Y-106689428D02*
X49625142Y-105165428D01*
X50205714Y-105165428D01*
X50350857Y-105238000D01*
X50423428Y-105310571D01*
X50496000Y-105455714D01*
X50496000Y-105673428D01*
X50423428Y-105818571D01*
X50350857Y-105891142D01*
X50205714Y-105963714D01*
X49625142Y-105963714D01*
X51947428Y-106689428D02*
X51076571Y-106689428D01*
X51512000Y-106689428D02*
X51512000Y-105165428D01*
X51366857Y-105383142D01*
X51221714Y-105528285D01*
X51076571Y-105600857D01*
D22*
X72609523Y-114261904D02*
X72609523Y-113461904D01*
X72914285Y-113461904D01*
X72990476Y-113500000D01*
X73028571Y-113538095D01*
X73066666Y-113614285D01*
X73066666Y-113728571D01*
X73028571Y-113804761D01*
X72990476Y-113842857D01*
X72914285Y-113880952D01*
X72609523Y-113880952D01*
X73371428Y-113538095D02*
X73409523Y-113500000D01*
X73485714Y-113461904D01*
X73676190Y-113461904D01*
X73752380Y-113500000D01*
X73790476Y-113538095D01*
X73828571Y-113614285D01*
X73828571Y-113690476D01*
X73790476Y-113804761D01*
X73333333Y-114261904D01*
X73828571Y-114261904D01*
D24*
X97130000Y-138584285D02*
X97101428Y-138612857D01*
X97015714Y-138641428D01*
X96958571Y-138641428D01*
X96872857Y-138612857D01*
X96815714Y-138555714D01*
X96787142Y-138498571D01*
X96758571Y-138384285D01*
X96758571Y-138298571D01*
X96787142Y-138184285D01*
X96815714Y-138127142D01*
X96872857Y-138070000D01*
X96958571Y-138041428D01*
X97015714Y-138041428D01*
X97101428Y-138070000D01*
X97130000Y-138098571D01*
X97330000Y-138041428D02*
X97730000Y-138041428D01*
X97472857Y-138641428D01*
X97110000Y-140204285D02*
X97081428Y-140232857D01*
X96995714Y-140261428D01*
X96938571Y-140261428D01*
X96852857Y-140232857D01*
X96795714Y-140175714D01*
X96767142Y-140118571D01*
X96738571Y-140004285D01*
X96738571Y-139918571D01*
X96767142Y-139804285D01*
X96795714Y-139747142D01*
X96852857Y-139690000D01*
X96938571Y-139661428D01*
X96995714Y-139661428D01*
X97081428Y-139690000D01*
X97110000Y-139718571D01*
X97624285Y-139661428D02*
X97510000Y-139661428D01*
X97452857Y-139690000D01*
X97424285Y-139718571D01*
X97367142Y-139804285D01*
X97338571Y-139918571D01*
X97338571Y-140147142D01*
X97367142Y-140204285D01*
X97395714Y-140232857D01*
X97452857Y-140261428D01*
X97567142Y-140261428D01*
X97624285Y-140232857D01*
X97652857Y-140204285D01*
X97681428Y-140147142D01*
X97681428Y-140004285D01*
X97652857Y-139947142D01*
X97624285Y-139918571D01*
X97567142Y-139890000D01*
X97452857Y-139890000D01*
X97395714Y-139918571D01*
X97367142Y-139947142D01*
X97338571Y-140004285D01*
D13*
X78130000Y-147981428D02*
X77930000Y-147695714D01*
X77787142Y-147981428D02*
X77787142Y-147381428D01*
X78015714Y-147381428D01*
X78072857Y-147410000D01*
X78101428Y-147438571D01*
X78130000Y-147495714D01*
X78130000Y-147581428D01*
X78101428Y-147638571D01*
X78072857Y-147667142D01*
X78015714Y-147695714D01*
X77787142Y-147695714D01*
X78330000Y-147381428D02*
X78701428Y-147381428D01*
X78501428Y-147610000D01*
X78587142Y-147610000D01*
X78644285Y-147638571D01*
X78672857Y-147667142D01*
X78701428Y-147724285D01*
X78701428Y-147867142D01*
X78672857Y-147924285D01*
X78644285Y-147952857D01*
X78587142Y-147981428D01*
X78415714Y-147981428D01*
X78358571Y-147952857D01*
X78330000Y-147924285D01*
X68660000Y-146901428D02*
X68460000Y-146615714D01*
X68317142Y-146901428D02*
X68317142Y-146301428D01*
X68545714Y-146301428D01*
X68602857Y-146330000D01*
X68631428Y-146358571D01*
X68660000Y-146415714D01*
X68660000Y-146501428D01*
X68631428Y-146558571D01*
X68602857Y-146587142D01*
X68545714Y-146615714D01*
X68317142Y-146615714D01*
X69174285Y-146501428D02*
X69174285Y-146901428D01*
X69031428Y-146272857D02*
X68888571Y-146701428D01*
X69260000Y-146701428D01*
X58400000Y-147271428D02*
X58200000Y-146985714D01*
X58057142Y-147271428D02*
X58057142Y-146671428D01*
X58285714Y-146671428D01*
X58342857Y-146700000D01*
X58371428Y-146728571D01*
X58400000Y-146785714D01*
X58400000Y-146871428D01*
X58371428Y-146928571D01*
X58342857Y-146957142D01*
X58285714Y-146985714D01*
X58057142Y-146985714D01*
X58628571Y-146728571D02*
X58657142Y-146700000D01*
X58714285Y-146671428D01*
X58857142Y-146671428D01*
X58914285Y-146700000D01*
X58942857Y-146728571D01*
X58971428Y-146785714D01*
X58971428Y-146842857D01*
X58942857Y-146928571D01*
X58600000Y-147271428D01*
X58971428Y-147271428D01*
X64970000Y-147281428D02*
X64770000Y-146995714D01*
X64627142Y-147281428D02*
X64627142Y-146681428D01*
X64855714Y-146681428D01*
X64912857Y-146710000D01*
X64941428Y-146738571D01*
X64970000Y-146795714D01*
X64970000Y-146881428D01*
X64941428Y-146938571D01*
X64912857Y-146967142D01*
X64855714Y-146995714D01*
X64627142Y-146995714D01*
X65541428Y-147281428D02*
X65198571Y-147281428D01*
X65370000Y-147281428D02*
X65370000Y-146681428D01*
X65312857Y-146767142D01*
X65255714Y-146824285D01*
X65198571Y-146852857D01*
X77900000Y-142571428D02*
X77700000Y-142285714D01*
X77557142Y-142571428D02*
X77557142Y-141971428D01*
X77785714Y-141971428D01*
X77842857Y-142000000D01*
X77871428Y-142028571D01*
X77900000Y-142085714D01*
X77900000Y-142171428D01*
X77871428Y-142228571D01*
X77842857Y-142257142D01*
X77785714Y-142285714D01*
X77557142Y-142285714D01*
X78442857Y-141971428D02*
X78157142Y-141971428D01*
X78128571Y-142257142D01*
X78157142Y-142228571D01*
X78214285Y-142200000D01*
X78357142Y-142200000D01*
X78414285Y-142228571D01*
X78442857Y-142257142D01*
X78471428Y-142314285D01*
X78471428Y-142457142D01*
X78442857Y-142514285D01*
X78414285Y-142542857D01*
X78357142Y-142571428D01*
X78214285Y-142571428D01*
X78157142Y-142542857D01*
X78128571Y-142514285D01*
X78400000Y-146601428D02*
X78200000Y-146315714D01*
X78057142Y-146601428D02*
X78057142Y-146001428D01*
X78285714Y-146001428D01*
X78342857Y-146030000D01*
X78371428Y-146058571D01*
X78400000Y-146115714D01*
X78400000Y-146201428D01*
X78371428Y-146258571D01*
X78342857Y-146287142D01*
X78285714Y-146315714D01*
X78057142Y-146315714D01*
X78914285Y-146001428D02*
X78800000Y-146001428D01*
X78742857Y-146030000D01*
X78714285Y-146058571D01*
X78657142Y-146144285D01*
X78628571Y-146258571D01*
X78628571Y-146487142D01*
X78657142Y-146544285D01*
X78685714Y-146572857D01*
X78742857Y-146601428D01*
X78857142Y-146601428D01*
X78914285Y-146572857D01*
X78942857Y-146544285D01*
X78971428Y-146487142D01*
X78971428Y-146344285D01*
X78942857Y-146287142D01*
X78914285Y-146258571D01*
X78857142Y-146230000D01*
X78742857Y-146230000D01*
X78685714Y-146258571D01*
X78657142Y-146287142D01*
X78628571Y-146344285D01*
X62700000Y-126914285D02*
X62671428Y-126942857D01*
X62585714Y-126971428D01*
X62528571Y-126971428D01*
X62442857Y-126942857D01*
X62385714Y-126885714D01*
X62357142Y-126828571D01*
X62328571Y-126714285D01*
X62328571Y-126628571D01*
X62357142Y-126514285D01*
X62385714Y-126457142D01*
X62442857Y-126400000D01*
X62528571Y-126371428D01*
X62585714Y-126371428D01*
X62671428Y-126400000D01*
X62700000Y-126428571D01*
X62928571Y-126428571D02*
X62957142Y-126400000D01*
X63014285Y-126371428D01*
X63157142Y-126371428D01*
X63214285Y-126400000D01*
X63242857Y-126428571D01*
X63271428Y-126485714D01*
X63271428Y-126542857D01*
X63242857Y-126628571D01*
X62900000Y-126971428D01*
X63271428Y-126971428D01*
X62700000Y-133834285D02*
X62671428Y-133862857D01*
X62585714Y-133891428D01*
X62528571Y-133891428D01*
X62442857Y-133862857D01*
X62385714Y-133805714D01*
X62357142Y-133748571D01*
X62328571Y-133634285D01*
X62328571Y-133548571D01*
X62357142Y-133434285D01*
X62385714Y-133377142D01*
X62442857Y-133320000D01*
X62528571Y-133291428D01*
X62585714Y-133291428D01*
X62671428Y-133320000D01*
X62700000Y-133348571D01*
X62900000Y-133291428D02*
X63271428Y-133291428D01*
X63071428Y-133520000D01*
X63157142Y-133520000D01*
X63214285Y-133548571D01*
X63242857Y-133577142D01*
X63271428Y-133634285D01*
X63271428Y-133777142D01*
X63242857Y-133834285D01*
X63214285Y-133862857D01*
X63157142Y-133891428D01*
X62985714Y-133891428D01*
X62928571Y-133862857D01*
X62900000Y-133834285D01*
X89510000Y-113754285D02*
X89481428Y-113782857D01*
X89395714Y-113811428D01*
X89338571Y-113811428D01*
X89252857Y-113782857D01*
X89195714Y-113725714D01*
X89167142Y-113668571D01*
X89138571Y-113554285D01*
X89138571Y-113468571D01*
X89167142Y-113354285D01*
X89195714Y-113297142D01*
X89252857Y-113240000D01*
X89338571Y-113211428D01*
X89395714Y-113211428D01*
X89481428Y-113240000D01*
X89510000Y-113268571D01*
X90052857Y-113211428D02*
X89767142Y-113211428D01*
X89738571Y-113497142D01*
X89767142Y-113468571D01*
X89824285Y-113440000D01*
X89967142Y-113440000D01*
X90024285Y-113468571D01*
X90052857Y-113497142D01*
X90081428Y-113554285D01*
X90081428Y-113697142D01*
X90052857Y-113754285D01*
X90024285Y-113782857D01*
X89967142Y-113811428D01*
X89824285Y-113811428D01*
X89767142Y-113782857D01*
X89738571Y-113754285D01*
X70390000Y-149274285D02*
X70361428Y-149302857D01*
X70275714Y-149331428D01*
X70218571Y-149331428D01*
X70132857Y-149302857D01*
X70075714Y-149245714D01*
X70047142Y-149188571D01*
X70018571Y-149074285D01*
X70018571Y-148988571D01*
X70047142Y-148874285D01*
X70075714Y-148817142D01*
X70132857Y-148760000D01*
X70218571Y-148731428D01*
X70275714Y-148731428D01*
X70361428Y-148760000D01*
X70390000Y-148788571D01*
X70732857Y-148988571D02*
X70675714Y-148960000D01*
X70647142Y-148931428D01*
X70618571Y-148874285D01*
X70618571Y-148845714D01*
X70647142Y-148788571D01*
X70675714Y-148760000D01*
X70732857Y-148731428D01*
X70847142Y-148731428D01*
X70904285Y-148760000D01*
X70932857Y-148788571D01*
X70961428Y-148845714D01*
X70961428Y-148874285D01*
X70932857Y-148931428D01*
X70904285Y-148960000D01*
X70847142Y-148988571D01*
X70732857Y-148988571D01*
X70675714Y-149017142D01*
X70647142Y-149045714D01*
X70618571Y-149102857D01*
X70618571Y-149217142D01*
X70647142Y-149274285D01*
X70675714Y-149302857D01*
X70732857Y-149331428D01*
X70847142Y-149331428D01*
X70904285Y-149302857D01*
X70932857Y-149274285D01*
X70961428Y-149217142D01*
X70961428Y-149102857D01*
X70932857Y-149045714D01*
X70904285Y-149017142D01*
X70847142Y-148988571D01*
X80824285Y-148214285D02*
X80795714Y-148242857D01*
X80710000Y-148271428D01*
X80652857Y-148271428D01*
X80567142Y-148242857D01*
X80510000Y-148185714D01*
X80481428Y-148128571D01*
X80452857Y-148014285D01*
X80452857Y-147928571D01*
X80481428Y-147814285D01*
X80510000Y-147757142D01*
X80567142Y-147700000D01*
X80652857Y-147671428D01*
X80710000Y-147671428D01*
X80795714Y-147700000D01*
X80824285Y-147728571D01*
X81395714Y-148271428D02*
X81052857Y-148271428D01*
X81224285Y-148271428D02*
X81224285Y-147671428D01*
X81167142Y-147757142D01*
X81110000Y-147814285D01*
X81052857Y-147842857D01*
X81767142Y-147671428D02*
X81824285Y-147671428D01*
X81881428Y-147700000D01*
X81910000Y-147728571D01*
X81938571Y-147785714D01*
X81967142Y-147900000D01*
X81967142Y-148042857D01*
X81938571Y-148157142D01*
X81910000Y-148214285D01*
X81881428Y-148242857D01*
X81824285Y-148271428D01*
X81767142Y-148271428D01*
X81710000Y-148242857D01*
X81681428Y-148214285D01*
X81652857Y-148157142D01*
X81624285Y-148042857D01*
X81624285Y-147900000D01*
X81652857Y-147785714D01*
X81681428Y-147728571D01*
X81710000Y-147700000D01*
X81767142Y-147671428D01*
X97274285Y-142014285D02*
X97245714Y-142042857D01*
X97160000Y-142071428D01*
X97102857Y-142071428D01*
X97017142Y-142042857D01*
X96960000Y-141985714D01*
X96931428Y-141928571D01*
X96902857Y-141814285D01*
X96902857Y-141728571D01*
X96931428Y-141614285D01*
X96960000Y-141557142D01*
X97017142Y-141500000D01*
X97102857Y-141471428D01*
X97160000Y-141471428D01*
X97245714Y-141500000D01*
X97274285Y-141528571D01*
X97845714Y-142071428D02*
X97502857Y-142071428D01*
X97674285Y-142071428D02*
X97674285Y-141471428D01*
X97617142Y-141557142D01*
X97560000Y-141614285D01*
X97502857Y-141642857D01*
X98417142Y-142071428D02*
X98074285Y-142071428D01*
X98245714Y-142071428D02*
X98245714Y-141471428D01*
X98188571Y-141557142D01*
X98131428Y-141614285D01*
X98074285Y-141642857D01*
X80834285Y-141084285D02*
X80805714Y-141112857D01*
X80720000Y-141141428D01*
X80662857Y-141141428D01*
X80577142Y-141112857D01*
X80520000Y-141055714D01*
X80491428Y-140998571D01*
X80462857Y-140884285D01*
X80462857Y-140798571D01*
X80491428Y-140684285D01*
X80520000Y-140627142D01*
X80577142Y-140570000D01*
X80662857Y-140541428D01*
X80720000Y-140541428D01*
X80805714Y-140570000D01*
X80834285Y-140598571D01*
X81405714Y-141141428D02*
X81062857Y-141141428D01*
X81234285Y-141141428D02*
X81234285Y-140541428D01*
X81177142Y-140627142D01*
X81120000Y-140684285D01*
X81062857Y-140712857D01*
X81634285Y-140598571D02*
X81662857Y-140570000D01*
X81720000Y-140541428D01*
X81862857Y-140541428D01*
X81920000Y-140570000D01*
X81948571Y-140598571D01*
X81977142Y-140655714D01*
X81977142Y-140712857D01*
X81948571Y-140798571D01*
X81605714Y-141141428D01*
X81977142Y-141141428D01*
X54830476Y-130452380D02*
X55497142Y-131452380D01*
X55497142Y-130452380D02*
X54830476Y-131452380D01*
X56401904Y-131452380D02*
X55830476Y-131452380D01*
X56116190Y-131452380D02*
X56116190Y-130452380D01*
X56020952Y-130595238D01*
X55925714Y-130690476D01*
X55830476Y-130738095D01*
X91008014Y-139371428D02*
X90722299Y-139371428D01*
X90722299Y-138771428D01*
X91522299Y-139371428D02*
X91179442Y-139371428D01*
X91350871Y-139371428D02*
X91350871Y-138771428D01*
X91293728Y-138857142D01*
X91236585Y-138914285D01*
X91179442Y-138942857D01*
X83900000Y-128714285D02*
X83871428Y-128742857D01*
X83785714Y-128771428D01*
X83728571Y-128771428D01*
X83642857Y-128742857D01*
X83585714Y-128685714D01*
X83557142Y-128628571D01*
X83528571Y-128514285D01*
X83528571Y-128428571D01*
X83557142Y-128314285D01*
X83585714Y-128257142D01*
X83642857Y-128200000D01*
X83728571Y-128171428D01*
X83785714Y-128171428D01*
X83871428Y-128200000D01*
X83900000Y-128228571D01*
X84414285Y-128371428D02*
X84414285Y-128771428D01*
X84271428Y-128142857D02*
X84128571Y-128571428D01*
X84500000Y-128571428D01*
X64760000Y-125634285D02*
X64731428Y-125662857D01*
X64645714Y-125691428D01*
X64588571Y-125691428D01*
X64502857Y-125662857D01*
X64445714Y-125605714D01*
X64417142Y-125548571D01*
X64388571Y-125434285D01*
X64388571Y-125348571D01*
X64417142Y-125234285D01*
X64445714Y-125177142D01*
X64502857Y-125120000D01*
X64588571Y-125091428D01*
X64645714Y-125091428D01*
X64731428Y-125120000D01*
X64760000Y-125148571D01*
X65331428Y-125691428D02*
X64988571Y-125691428D01*
X65160000Y-125691428D02*
X65160000Y-125091428D01*
X65102857Y-125177142D01*
X65045714Y-125234285D01*
X64988571Y-125262857D01*
X53800000Y-111721785D02*
X53771428Y-111750357D01*
X53685714Y-111778928D01*
X53628571Y-111778928D01*
X53542857Y-111750357D01*
X53485714Y-111693214D01*
X53457142Y-111636071D01*
X53428571Y-111521785D01*
X53428571Y-111436071D01*
X53457142Y-111321785D01*
X53485714Y-111264642D01*
X53542857Y-111207500D01*
X53628571Y-111178928D01*
X53685714Y-111178928D01*
X53771428Y-111207500D01*
X53800000Y-111236071D01*
X54085714Y-111778928D02*
X54200000Y-111778928D01*
X54257142Y-111750357D01*
X54285714Y-111721785D01*
X54342857Y-111636071D01*
X54371428Y-111521785D01*
X54371428Y-111293214D01*
X54342857Y-111236071D01*
X54314285Y-111207500D01*
X54257142Y-111178928D01*
X54142857Y-111178928D01*
X54085714Y-111207500D01*
X54057142Y-111236071D01*
X54028571Y-111293214D01*
X54028571Y-111436071D01*
X54057142Y-111493214D01*
X54085714Y-111521785D01*
X54142857Y-111550357D01*
X54257142Y-111550357D01*
X54314285Y-111521785D01*
X54342857Y-111493214D01*
X54371428Y-111436071D01*
X81425000Y-134771428D02*
X81225000Y-134485714D01*
X81082142Y-134771428D02*
X81082142Y-134171428D01*
X81310714Y-134171428D01*
X81367857Y-134200000D01*
X81396428Y-134228571D01*
X81425000Y-134285714D01*
X81425000Y-134371428D01*
X81396428Y-134428571D01*
X81367857Y-134457142D01*
X81310714Y-134485714D01*
X81082142Y-134485714D01*
X81625000Y-134171428D02*
X82025000Y-134171428D01*
X81767857Y-134771428D01*
X62047142Y-148791428D02*
X62047142Y-148191428D01*
X62190000Y-148191428D01*
X62275714Y-148220000D01*
X62332857Y-148277142D01*
X62361428Y-148334285D01*
X62390000Y-148448571D01*
X62390000Y-148534285D01*
X62361428Y-148648571D01*
X62332857Y-148705714D01*
X62275714Y-148762857D01*
X62190000Y-148791428D01*
X62047142Y-148791428D01*
X62961428Y-148791428D02*
X62618571Y-148791428D01*
X62790000Y-148791428D02*
X62790000Y-148191428D01*
X62732857Y-148277142D01*
X62675714Y-148334285D01*
X62618571Y-148362857D01*
D25*
X60781142Y-149034285D02*
X61146857Y-149034285D01*
X60964000Y-149217142D02*
X60964000Y-148851428D01*
D13*
X58307142Y-148771428D02*
X58307142Y-148171428D01*
X58450000Y-148171428D01*
X58535714Y-148200000D01*
X58592857Y-148257142D01*
X58621428Y-148314285D01*
X58650000Y-148428571D01*
X58650000Y-148514285D01*
X58621428Y-148628571D01*
X58592857Y-148685714D01*
X58535714Y-148742857D01*
X58450000Y-148771428D01*
X58307142Y-148771428D01*
X58878571Y-148228571D02*
X58907142Y-148200000D01*
X58964285Y-148171428D01*
X59107142Y-148171428D01*
X59164285Y-148200000D01*
X59192857Y-148228571D01*
X59221428Y-148285714D01*
X59221428Y-148342857D01*
X59192857Y-148428571D01*
X58850000Y-148771428D01*
X59221428Y-148771428D01*
D25*
X57117142Y-149034285D02*
X57482857Y-149034285D01*
X57300000Y-149217142D02*
X57300000Y-148851428D01*
D13*
X74307142Y-149081428D02*
X74307142Y-148481428D01*
X74450000Y-148481428D01*
X74535714Y-148510000D01*
X74592857Y-148567142D01*
X74621428Y-148624285D01*
X74650000Y-148738571D01*
X74650000Y-148824285D01*
X74621428Y-148938571D01*
X74592857Y-148995714D01*
X74535714Y-149052857D01*
X74450000Y-149081428D01*
X74307142Y-149081428D01*
X74850000Y-148481428D02*
X75221428Y-148481428D01*
X75021428Y-148710000D01*
X75107142Y-148710000D01*
X75164285Y-148738571D01*
X75192857Y-148767142D01*
X75221428Y-148824285D01*
X75221428Y-148967142D01*
X75192857Y-149024285D01*
X75164285Y-149052857D01*
X75107142Y-149081428D01*
X74935714Y-149081428D01*
X74878571Y-149052857D01*
X74850000Y-149024285D01*
D25*
X74181142Y-149773285D02*
X74546857Y-149773285D01*
X74364000Y-149956142D02*
X74364000Y-149590428D01*
D13*
X65727142Y-148761428D02*
X65727142Y-148161428D01*
X65870000Y-148161428D01*
X65955714Y-148190000D01*
X66012857Y-148247142D01*
X66041428Y-148304285D01*
X66070000Y-148418571D01*
X66070000Y-148504285D01*
X66041428Y-148618571D01*
X66012857Y-148675714D01*
X65955714Y-148732857D01*
X65870000Y-148761428D01*
X65727142Y-148761428D01*
X66584285Y-148361428D02*
X66584285Y-148761428D01*
X66441428Y-148132857D02*
X66298571Y-148561428D01*
X66670000Y-148561428D01*
D25*
X64581142Y-149034285D02*
X64946857Y-149034285D01*
X64764000Y-149217142D02*
X64764000Y-148851428D01*
D13*
X71400000Y-120221428D02*
X71200000Y-119935714D01*
X71057142Y-120221428D02*
X71057142Y-119621428D01*
X71285714Y-119621428D01*
X71342857Y-119650000D01*
X71371428Y-119678571D01*
X71400000Y-119735714D01*
X71400000Y-119821428D01*
X71371428Y-119878571D01*
X71342857Y-119907142D01*
X71285714Y-119935714D01*
X71057142Y-119935714D01*
X71742857Y-119878571D02*
X71685714Y-119850000D01*
X71657142Y-119821428D01*
X71628571Y-119764285D01*
X71628571Y-119735714D01*
X71657142Y-119678571D01*
X71685714Y-119650000D01*
X71742857Y-119621428D01*
X71857142Y-119621428D01*
X71914285Y-119650000D01*
X71942857Y-119678571D01*
X71971428Y-119735714D01*
X71971428Y-119764285D01*
X71942857Y-119821428D01*
X71914285Y-119850000D01*
X71857142Y-119878571D01*
X71742857Y-119878571D01*
X71685714Y-119907142D01*
X71657142Y-119935714D01*
X71628571Y-119992857D01*
X71628571Y-120107142D01*
X71657142Y-120164285D01*
X71685714Y-120192857D01*
X71742857Y-120221428D01*
X71857142Y-120221428D01*
X71914285Y-120192857D01*
X71942857Y-120164285D01*
X71971428Y-120107142D01*
X71971428Y-119992857D01*
X71942857Y-119935714D01*
X71914285Y-119907142D01*
X71857142Y-119878571D01*
X72238095Y-105952380D02*
X72238095Y-106761904D01*
X72285714Y-106857142D01*
X72333333Y-106904761D01*
X72428571Y-106952380D01*
X72619047Y-106952380D01*
X72714285Y-106904761D01*
X72761904Y-106857142D01*
X72809523Y-106761904D01*
X72809523Y-105952380D01*
X73190476Y-105952380D02*
X73809523Y-105952380D01*
X73476190Y-106333333D01*
X73619047Y-106333333D01*
X73714285Y-106380952D01*
X73761904Y-106428571D01*
X73809523Y-106523809D01*
X73809523Y-106761904D01*
X73761904Y-106857142D01*
X73714285Y-106904761D01*
X73619047Y-106952380D01*
X73333333Y-106952380D01*
X73238095Y-106904761D01*
X73190476Y-106857142D01*
X64804761Y-114990476D02*
X64852380Y-114847619D01*
X64852380Y-114609523D01*
X64804761Y-114514285D01*
X64757142Y-114466666D01*
X64661904Y-114419047D01*
X64566666Y-114419047D01*
X64471428Y-114466666D01*
X64423809Y-114514285D01*
X64376190Y-114609523D01*
X64328571Y-114800000D01*
X64280952Y-114895238D01*
X64233333Y-114942857D01*
X64138095Y-114990476D01*
X64042857Y-114990476D01*
X63947619Y-114942857D01*
X63900000Y-114895238D01*
X63852380Y-114800000D01*
X63852380Y-114561904D01*
X63900000Y-114419047D01*
X64852380Y-113990476D02*
X63852380Y-113990476D01*
X64852380Y-113419047D01*
X63852380Y-113419047D01*
X63852380Y-113038095D02*
X63852380Y-112371428D01*
X64852380Y-112800000D01*
X63852380Y-111514285D02*
X63852380Y-111990476D01*
X64328571Y-112038095D01*
X64280952Y-111990476D01*
X64233333Y-111895238D01*
X64233333Y-111657142D01*
X64280952Y-111561904D01*
X64328571Y-111514285D01*
X64423809Y-111466666D01*
X64661904Y-111466666D01*
X64757142Y-111514285D01*
X64804761Y-111561904D01*
X64852380Y-111657142D01*
X64852380Y-111895238D01*
X64804761Y-111990476D01*
X64757142Y-112038095D01*
X64852380Y-110514285D02*
X64852380Y-111085714D01*
X64852380Y-110800000D02*
X63852380Y-110800000D01*
X63995238Y-110895238D01*
X64090476Y-110990476D01*
X64138095Y-111085714D01*
X63852380Y-109657142D02*
X63852380Y-109847619D01*
X63900000Y-109942857D01*
X63947619Y-109990476D01*
X64090476Y-110085714D01*
X64280952Y-110133333D01*
X64661904Y-110133333D01*
X64757142Y-110085714D01*
X64804761Y-110038095D01*
X64852380Y-109942857D01*
X64852380Y-109752380D01*
X64804761Y-109657142D01*
X64757142Y-109609523D01*
X64661904Y-109561904D01*
X64423809Y-109561904D01*
X64328571Y-109609523D01*
X64280952Y-109657142D01*
X64233333Y-109752380D01*
X64233333Y-109942857D01*
X64280952Y-110038095D01*
X64328571Y-110085714D01*
X64423809Y-110133333D01*
X63947619Y-109180952D02*
X63900000Y-109133333D01*
X63852380Y-109038095D01*
X63852380Y-108800000D01*
X63900000Y-108704761D01*
X63947619Y-108657142D01*
X64042857Y-108609523D01*
X64138095Y-108609523D01*
X64280952Y-108657142D01*
X64852380Y-109228571D01*
X64852380Y-108609523D01*
X64328571Y-107847619D02*
X64376190Y-107704761D01*
X64423809Y-107657142D01*
X64519047Y-107609523D01*
X64661904Y-107609523D01*
X64757142Y-107657142D01*
X64804761Y-107704761D01*
X64852380Y-107800000D01*
X64852380Y-108180952D01*
X63852380Y-108180952D01*
X63852380Y-107847619D01*
X63900000Y-107752380D01*
X63947619Y-107704761D01*
X64042857Y-107657142D01*
X64138095Y-107657142D01*
X64233333Y-107704761D01*
X64280952Y-107752380D01*
X64328571Y-107847619D01*
X64328571Y-108180952D01*
X72452380Y-105500000D02*
X72690476Y-105500000D01*
X72595238Y-105738095D02*
X72690476Y-105500000D01*
X72595238Y-105261904D01*
X72880952Y-105642857D02*
X72690476Y-105500000D01*
X72880952Y-105357142D01*
X72452380Y-105500000D02*
X72690476Y-105500000D01*
X72595238Y-105738095D02*
X72690476Y-105500000D01*
X72595238Y-105261904D01*
X72880952Y-105642857D02*
X72690476Y-105500000D01*
X72880952Y-105357142D01*
M02*
